<svg width="748" height="190" viewBox="0 0 748 190" fill="none" xmlns="http://www.w3.org/2000/svg">
<path fill-rule="evenodd" clip-rule="evenodd" d="M188.396 0.292935C205.231 -0.328594 225.732 0.232246 242.859 0.231412C246.078 8.60097 250.741 18.6682 254.336 27.0156L290.685 111.502C292.771 116.351 296.373 125.361 298.862 129.621C298.324 114.884 298.691 98.3368 298.689 83.457L298.68 0.278287C315.435 -0.0284996 333.021 0.243839 349.842 0.248013L411.645 83.6826L411.65 0.250943L454.483 0.222623L454.449 130.382C458.724 119.604 464.298 107.584 468.978 96.8164L497.605 30.9785C501.825 21.2644 507.023 10.0122 510.805 0.265591C528.748 0.0122213 547.227 0.22827 565.22 0.201138C579.623 34.8888 595.269 69.2287 609.806 103.876C613.434 112.522 617.246 121.751 621.312 130.167C620.531 117.398 621.091 98.4295 621.091 85.2822L621.115 0.236294L747.905 0.224576V29.9824C720.51 30.3151 692.847 29.8141 665.394 30.0595L665.461 52.8271L742.069 52.8398L742.056 81.5918L665.419 81.5703L665.394 133.006L574.697 133.013C572.279 125.946 569.399 118.529 566.785 111.491L508.814 111.433L500.877 132.992L405.407 133.014C400.51 125.55 390.199 112.866 384.506 105.368L341.634 48.8896C341.346 76.7248 341.614 105.145 341.652 133.009L252.381 133.02C249.689 125.853 247.049 118.667 244.46 111.463L186.415 111.436C183.973 118.53 181.054 125.813 178.53 133L130.849 132.98L181.38 16.8173C183.602 11.7288 186.551 5.43704 188.396 0.292935ZM234.381 89.3369C222.945 88.8009 208.216 89.1616 196.563 89.2392C201.76 102.787 218.244 104.093 229.229 96.6533C232.078 93.9472 232.768 92.9304 234.381 89.3369ZM556.862 89.2734C544.525 89.1423 531.399 89.0517 519.067 89.2529C523.35 102.343 541.515 104.27 551.485 96.7949C554.519 94.0682 555.129 92.9939 556.862 89.2734ZM196.897 83.7558L215.83 83.8066L233.929 83.7568C232.247 79.1772 216.432 35.0764 215.191 33.8242L196.897 83.7558ZM519.309 83.7851L539.273 83.8066L556.323 83.7705C554.306 78.2661 538.897 35.2695 537.582 33.8779L519.309 83.7851Z" fill="#2C2C76"/>
<path fill-rule="evenodd" clip-rule="evenodd" d="M56.899 0.235107C76.2161 11.5748 90.2527 12.1312 111.962 11.3757C119.014 59.8499 108.465 114.568 57.0865 132.735C43.7407 129.58 28.5885 117.954 20.4196 107.081C-0.171124 79.6723 -2.50562 44.1332 1.81994 11.4001C23.0115 11.9407 38.1255 11.7586 56.899 0.235107ZM56.9791 65.7429C42.9995 65.6745 29.0199 65.691 15.0406 65.7937C18.3504 79.8321 23.1905 91.7541 32.6305 102.846C40.4699 111.397 46.2992 115.404 56.9479 119.863L56.9791 65.7429ZM56.9791 65.7429C70.7631 65.5259 85.0443 65.7084 98.8688 65.7234C101.675 51.1987 102.502 38.7546 101.255 23.8982L92.3912 23.5623C78.2404 22.2449 69.9367 20.538 57.0055 14.5349L56.9791 65.7429Z" fill="#2C2C76"/>
<path d="M729.268 170.094H727.097C727.338 165.926 730.198 164.134 734.297 164.134C737.432 164.134 740.843 165.065 740.843 169.853V179.292C740.843 180.154 741.256 180.602 742.117 180.602C742.359 180.602 742.565 180.567 742.806 180.464V182.29C742.29 182.393 741.98 182.427 741.394 182.427C739.189 182.427 738.845 181.153 738.845 179.327H738.776C737.226 181.635 735.744 182.944 732.299 182.944C728.992 182.944 726.339 181.325 726.339 177.742C726.339 172.781 731.197 172.575 735.882 172.023C737.673 171.851 738.672 171.541 738.672 169.612C738.672 166.684 736.605 165.96 734.022 165.96C731.3 165.96 729.371 167.2 729.268 170.094ZM738.672 175.537V172.712H738.603C738.328 173.229 737.363 173.401 736.778 173.505C733.091 174.159 728.51 174.159 728.51 177.604C728.51 179.775 730.404 181.118 732.471 181.118C735.813 181.118 738.672 179.017 738.672 175.537ZM729.302 157.486H730.646C730.749 159.346 732.471 160.31 734.194 160.31C735.951 160.31 737.57 159.277 737.846 157.486H739.189C738.81 160.207 736.95 161.861 734.194 161.861C731.403 161.861 729.543 160.276 729.302 157.486Z" fill="#151515"/>
<path d="M720.98 182.427V157.83H723.15V182.427H720.98Z" fill="#151515"/>
<path d="M705.045 170.094H702.875C703.116 165.926 705.975 164.135 710.075 164.135C713.21 164.135 716.62 165.065 716.62 169.853V179.293C716.62 180.154 717.033 180.602 717.895 180.602C718.136 180.602 718.343 180.567 718.584 180.464V182.29C718.067 182.393 717.757 182.427 717.171 182.427C714.966 182.427 714.622 181.153 714.622 179.327H714.553C713.003 181.635 711.521 182.944 708.076 182.944C704.769 182.944 702.117 181.325 702.117 177.742C702.117 172.781 706.974 172.575 711.659 172.024C713.451 171.851 714.45 171.541 714.45 169.612C714.45 166.684 712.383 165.96 709.799 165.96C707.077 165.96 705.148 167.201 705.045 170.094ZM714.45 175.537V172.713H714.381C714.105 173.229 713.141 173.402 712.555 173.505C708.869 174.159 704.287 174.159 704.287 177.604C704.287 179.775 706.182 181.118 708.249 181.118C711.59 181.118 714.45 179.017 714.45 175.537Z" fill="#151515"/>
<path d="M699.927 170.232H697.757C697.171 167.58 695.586 165.96 692.727 165.96C688.593 165.96 686.492 169.784 686.492 173.539C686.492 177.294 688.593 181.118 692.727 181.118C695.38 181.118 697.619 178.982 697.895 176.054H700.065C699.479 180.36 696.723 182.944 692.727 182.944C687.318 182.944 684.321 178.638 684.321 173.539C684.321 168.441 687.318 164.135 692.727 164.135C696.551 164.135 699.41 166.133 699.927 170.232Z" fill="#151515"/>
<path d="M681.447 169.853H679.276C679.173 167.166 677.106 165.96 674.625 165.96C672.696 165.96 670.423 166.718 670.423 169.026C670.423 170.921 672.593 171.645 674.109 172.024L677.003 172.678C679.483 173.057 682.067 174.504 682.067 177.604C682.067 181.463 678.243 182.944 674.936 182.944C670.767 182.944 668.011 181.049 667.632 176.674H669.802C669.975 179.603 672.145 181.118 675.039 181.118C677.106 181.118 679.896 180.223 679.896 177.742C679.896 175.675 677.967 174.986 676.004 174.504L673.213 173.884C670.388 173.16 668.252 172.127 668.252 169.13C668.252 165.513 671.801 164.135 674.936 164.135C678.518 164.135 681.274 165.995 681.447 169.853Z" fill="#151515"/>
<path d="M662.307 161.31V157.83H664.478V161.31H662.307ZM662.307 182.427V164.651H664.478V182.427H662.307Z" fill="#151515"/>
<path d="M644.183 182.427V157.83H659.789V159.828H646.525V168.716H658.307V170.714H646.525V182.427H644.183Z" fill="#151515"/>
<path d="M617.592 172.299H629.098C628.995 169.026 626.928 165.96 623.448 165.96C619.865 165.96 617.971 169.061 617.592 172.299ZM631.268 174.125H617.592C617.592 177.294 619.314 181.118 623.448 181.118C626.618 181.118 628.34 179.293 629.029 176.571H631.199C630.269 180.602 627.961 182.944 623.448 182.944C617.798 182.944 615.421 178.604 615.421 173.539C615.421 168.854 617.798 164.135 623.448 164.135C629.132 164.135 631.441 169.13 631.268 174.125Z" fill="#151515"/>
<path d="M606.056 182.427V164.651H608.054V168.82H608.123C609.225 165.926 611.637 164.272 614.841 164.41V166.58C610.913 166.408 608.226 169.233 608.226 172.954V182.427H606.056Z" fill="#151515"/>
<path d="M590.155 170.094H587.985C588.226 165.926 591.086 164.135 595.185 164.135C598.32 164.135 601.731 165.065 601.731 169.853V179.293C601.731 180.154 602.144 180.602 603.005 180.602C603.246 180.602 603.453 180.567 603.694 180.464V182.29C603.178 182.393 602.867 182.427 602.282 182.427C600.077 182.427 599.733 181.153 599.733 179.327H599.664C598.113 181.635 596.632 182.944 593.187 182.944C589.88 182.944 587.227 181.325 587.227 177.742C587.227 172.781 592.085 172.575 596.77 172.024C598.561 171.851 599.56 171.541 599.56 169.612C599.56 166.684 597.493 165.96 594.91 165.96C592.188 165.96 590.259 167.201 590.155 170.094ZM599.56 175.537V172.713H599.491C599.216 173.229 598.251 173.402 597.666 173.505C593.979 174.159 589.398 174.159 589.398 177.604C589.398 179.775 591.292 181.118 593.359 181.118C596.701 181.118 599.56 179.017 599.56 175.537Z" fill="#151515"/>
<path d="M577.325 182.427V164.651H579.323V168.82H579.392C580.495 165.926 582.906 164.272 586.11 164.41V166.58C582.183 166.408 579.496 169.233 579.496 172.954V182.427H577.325Z" fill="#151515"/>
<path d="M570.577 159.312V164.651H574.194V166.477H570.577V178.466C570.577 179.878 570.783 180.705 572.334 180.808C572.954 180.808 573.574 180.774 574.194 180.705V182.565C573.539 182.565 572.919 182.634 572.265 182.634C569.371 182.634 568.372 181.67 568.406 178.638V166.477H565.306V164.651H568.406V159.312H570.577Z" fill="#151515"/>
<path d="M563.361 169.853H561.191C561.087 167.166 559.021 165.96 556.54 165.96C554.611 165.96 552.337 166.718 552.337 169.026C552.337 170.921 554.508 171.645 556.023 172.024L558.917 172.678C561.398 173.057 563.981 174.504 563.981 177.604C563.981 181.463 560.157 182.944 556.85 182.944C552.682 182.944 549.926 181.049 549.547 176.674H551.717C551.889 179.603 554.06 181.118 556.953 181.118C559.02 181.118 561.811 180.223 561.811 177.742C561.811 175.675 559.882 174.986 557.918 174.504L555.128 173.884C552.303 173.16 550.167 172.127 550.167 169.13C550.167 165.513 553.715 164.135 556.85 164.135C560.433 164.135 563.189 165.995 563.361 169.853Z" fill="#151515"/>
<path d="M544.222 161.31V157.83H546.392V161.31H544.222ZM544.222 182.427V164.651H546.392V182.427H544.222Z" fill="#151515"/>
<path d="M525.649 182.427V164.651H527.82V167.717H527.889C528.716 165.581 531.058 164.135 533.573 164.135C538.568 164.135 540.084 166.753 540.084 170.99V182.427H537.914V171.335C537.914 168.303 536.915 165.96 533.401 165.96C529.921 165.96 527.923 168.579 527.82 172.058V182.427H525.649Z" fill="#151515"/>
<path d="M519.36 161.31V157.83H521.53V161.31H519.36ZM519.36 182.427V164.651H521.53V182.427H519.36Z" fill="#151515"/>
<path d="M490.628 182.427V164.651H492.626V167.648H492.73C493.867 165.478 495.692 164.135 498.552 164.135C500.894 164.135 502.996 165.271 503.65 167.614C504.718 165.271 506.958 164.135 509.3 164.135C513.228 164.135 515.191 166.202 515.191 170.37V182.427H513.021V170.473C513.021 167.545 511.953 165.96 508.818 165.96C505.063 165.96 503.995 169.061 503.995 172.368V182.427H501.825V170.37C501.825 167.958 500.894 165.96 498.104 165.96C494.383 165.96 492.799 168.785 492.799 172.506V182.427H490.628Z" fill="#151515"/>
<path d="M486.487 157.83V182.427H484.489V179.051H484.42C483.49 181.394 480.665 182.944 478.081 182.944C472.672 182.944 470.089 178.603 470.089 173.539C470.089 168.475 472.672 164.134 478.081 164.134C480.699 164.134 483.352 165.478 484.248 168.027H484.316V157.83H486.487ZM472.259 173.539C472.259 177.225 473.947 181.118 478.081 181.118C482.663 181.118 484.316 177.225 484.316 173.539C484.316 169.853 482.663 165.96 478.081 165.96C473.947 165.96 472.259 169.853 472.259 173.539Z" fill="#151515"/>
<path d="M457.966 160.173L453.04 172.781H462.72L457.966 160.173ZM446.839 182.427L456.76 157.83H459.379L469.025 182.427H466.51L463.513 174.779H452.316L449.354 182.427H446.839Z" fill="#151515"/>
<path d="M422.969 172.299H434.476C434.372 169.026 432.305 165.96 428.826 165.96C425.243 165.96 423.348 169.061 422.969 172.299ZM436.646 174.125H422.969C422.969 177.294 424.692 181.118 428.826 181.118C431.995 181.118 433.718 179.293 434.407 176.571H436.577C435.647 180.602 433.339 182.944 428.826 182.944C423.176 182.944 420.799 178.604 420.799 173.539C420.799 168.854 423.176 164.135 428.826 164.135C434.51 164.135 436.818 169.13 436.646 174.125Z" fill="#151515"/>
<path d="M417.553 157.83V182.427H415.555V179.051H415.486C414.556 181.394 411.731 182.944 409.147 182.944C403.739 182.944 401.155 178.603 401.155 173.539C401.155 168.475 403.739 164.134 409.147 164.134C411.766 164.134 414.418 165.478 415.314 168.027H415.383V157.83H417.553ZM403.325 173.539C403.325 177.225 405.013 181.118 409.147 181.118C413.729 181.118 415.383 177.225 415.383 173.539C415.383 169.853 413.729 165.96 409.147 165.96C405.013 165.96 403.325 169.853 403.325 173.539Z" fill="#151515"/>
<path d="M376.424 170.094H374.254C374.495 165.926 377.354 164.134 381.454 164.134C384.589 164.134 387.999 165.065 387.999 169.853V179.292C387.999 180.154 388.413 180.602 389.274 180.602C389.515 180.602 389.722 180.567 389.963 180.464V182.29C389.446 182.393 389.136 182.427 388.551 182.427C386.346 182.427 386.001 181.153 386.001 179.327H385.932C384.382 181.635 382.901 182.944 379.456 182.944C376.149 182.944 373.496 181.325 373.496 177.742C373.496 172.781 378.353 172.575 383.039 172.023C384.83 171.851 385.829 171.541 385.829 169.612C385.829 166.684 383.762 165.96 381.178 165.96C378.457 165.96 376.528 167.2 376.424 170.094ZM385.829 175.537V172.712H385.76C385.485 173.229 384.52 173.401 383.934 173.505C380.248 174.159 375.666 174.159 375.666 177.604C375.666 179.775 377.561 181.118 379.628 181.118C382.97 181.118 385.829 179.017 385.829 175.537ZM376.459 157.486H377.802C377.906 159.346 379.628 160.31 381.351 160.31C383.107 160.31 384.727 159.277 385.002 157.486H386.346C385.967 160.207 384.107 161.861 381.351 161.861C378.56 161.861 376.7 160.276 376.459 157.486Z" fill="#151515"/>
<path d="M368.137 182.427V157.83H370.307V182.427H368.137Z" fill="#151515"/>
<path d="M352.202 170.094H350.031C350.272 165.926 353.132 164.135 357.231 164.135C360.366 164.135 363.777 165.065 363.777 169.853V179.293C363.777 180.154 364.19 180.602 365.051 180.602C365.292 180.602 365.499 180.567 365.74 180.464V182.29C365.224 182.393 364.914 182.427 364.328 182.427C362.123 182.427 361.779 181.153 361.779 179.327H361.71C360.159 181.635 358.678 182.944 355.233 182.944C351.926 182.944 349.273 181.325 349.273 177.742C349.273 172.781 354.131 172.575 358.816 172.024C360.607 171.851 361.606 171.541 361.606 169.612C361.606 166.684 359.539 165.96 356.956 165.96C354.234 165.96 352.305 167.201 352.202 170.094ZM361.606 175.537V172.713H361.537C361.262 173.229 360.297 173.402 359.712 173.505C356.025 174.159 351.444 174.159 351.444 177.604C351.444 179.775 353.338 181.118 355.405 181.118C358.747 181.118 361.606 179.017 361.606 175.537Z" fill="#151515"/>
<path d="M331.7 182.427V164.651H333.87V167.717H333.939C334.766 165.581 337.109 164.135 339.623 164.135C344.619 164.135 346.135 166.753 346.135 170.99V182.427H343.964V171.335C343.964 168.303 342.965 165.96 339.451 165.96C335.972 165.96 333.974 168.579 333.87 172.058V182.427H331.7Z" fill="#151515"/>
<path d="M320.102 165.96C315.968 165.96 313.866 169.784 313.866 173.539C313.866 177.294 315.968 181.118 320.102 181.118C324.236 181.118 326.337 177.294 326.337 173.539C326.337 169.784 324.236 165.96 320.102 165.96ZM320.102 164.135C325.511 164.135 328.508 168.441 328.508 173.539C328.508 178.638 325.511 182.944 320.102 182.944C314.693 182.944 311.696 178.638 311.696 173.539C311.696 168.441 314.693 164.135 320.102 164.135Z" fill="#151515"/>
<path d="M306.268 161.31V157.83H308.438V161.31H306.268ZM306.268 182.427V164.651H308.438V182.427H306.268Z" fill="#151515"/>
<path d="M299.485 159.312V164.651H303.102V166.477H299.485V178.466C299.485 179.878 299.691 180.705 301.242 180.808C301.862 180.808 302.482 180.774 303.102 180.705V182.565C302.447 182.565 301.827 182.634 301.173 182.634C298.279 182.634 297.28 181.67 297.314 178.638V166.477H294.214V164.651H297.314V159.312H299.485ZM298.658 184.15H301.621V186.906C301.621 188.766 300.277 189.352 298.658 189.421V188.456C299.588 188.284 299.933 187.871 300.001 187.285H298.658V184.15Z" fill="#151515"/>
<path d="M280.139 170.094H277.969C278.21 165.926 281.069 164.135 285.169 164.135C288.304 164.135 291.714 165.065 291.714 169.853V179.293C291.714 180.154 292.128 180.602 292.989 180.602C293.23 180.602 293.437 180.567 293.678 180.464V182.29C293.161 182.393 292.851 182.427 292.266 182.427C290.061 182.427 289.716 181.153 289.716 179.327H289.647C288.097 181.635 286.616 182.944 283.171 182.944C279.864 182.944 277.211 181.325 277.211 177.742C277.211 172.781 282.068 172.575 286.754 172.024C288.545 171.851 289.544 171.541 289.544 169.612C289.544 166.684 287.477 165.96 284.893 165.96C282.172 165.96 280.242 167.201 280.139 170.094ZM289.544 175.537V172.713H289.475C289.199 173.229 288.235 173.402 287.649 173.505C283.963 174.159 279.381 174.159 279.381 177.604C279.381 179.775 281.276 181.118 283.343 181.118C286.685 181.118 289.544 179.017 289.544 175.537Z" fill="#151515"/>
<path d="M254.298 182.427V157.83H256.916L271.247 178.638H271.316V157.83H273.659V182.427H271.041L256.71 161.62H256.641V182.427H254.298Z" fill="#151515"/>
<path d="M228.43 170.094H226.26C226.501 165.926 229.361 164.135 233.46 164.135C236.595 164.135 240.006 165.065 240.006 169.853V179.293C240.006 180.154 240.419 180.602 241.28 180.602C241.521 180.602 241.728 180.567 241.969 180.464V182.29C241.453 182.393 241.142 182.427 240.557 182.427C238.352 182.427 238.008 181.153 238.008 179.327H237.939C236.388 181.635 234.907 182.944 231.462 182.944C228.155 182.944 225.502 181.325 225.502 177.742C225.502 172.781 230.36 172.575 235.045 172.024C236.836 171.851 237.835 171.541 237.835 169.612C237.835 166.684 235.768 165.96 233.185 165.96C230.463 165.96 228.534 167.201 228.43 170.094ZM237.835 175.537V172.713H237.766C237.491 173.229 236.526 173.402 235.941 173.505C232.254 174.159 227.673 174.159 227.673 177.604C227.673 179.775 229.567 181.118 231.634 181.118C234.976 181.118 237.835 179.017 237.835 175.537Z" fill="#151515"/>
<path d="M220.143 161.31V157.83H222.313V161.31H220.143ZM220.143 182.427V164.651H222.313V182.427H220.143Z" fill="#151515"/>
<path d="M213.36 159.312V164.651H216.977V166.477H213.36V178.466C213.36 179.878 213.566 180.705 215.117 180.808C215.737 180.808 216.357 180.774 216.977 180.705V182.565C216.322 182.565 215.702 182.634 215.048 182.634C212.154 182.634 211.155 181.67 211.189 178.638V166.477H208.089V164.651H211.189V159.312H213.36ZM212.533 184.15H215.496V186.906C215.496 188.766 214.152 189.352 212.533 189.421V188.456C213.463 188.284 213.808 187.871 213.876 187.285H212.533V184.15Z" fill="#151515"/>
<path d="M191.377 182.427V164.651H193.547V167.717H193.616C194.443 165.581 196.785 164.135 199.3 164.135C204.296 164.135 205.811 166.753 205.811 170.99V182.427H203.641V171.335C203.641 168.303 202.642 165.96 199.128 165.96C195.649 165.96 193.65 168.579 193.547 172.058V182.427H191.377Z" fill="#151515"/>
<path d="M174.822 172.299H186.328C186.225 169.026 184.158 165.96 180.678 165.96C177.095 165.96 175.201 169.061 174.822 172.299ZM188.498 174.125H174.822C174.822 177.294 176.544 181.118 180.678 181.118C183.848 181.118 185.57 179.293 186.259 176.571H188.429C187.499 180.602 185.191 182.944 180.678 182.944C175.028 182.944 172.651 178.604 172.651 173.539C172.651 168.854 175.028 164.135 180.678 164.135C186.362 164.135 188.671 169.13 188.498 174.125Z" fill="#151515"/>
<path d="M169.425 164.651V180.981C169.425 186.32 167.289 189.524 161.536 189.524C157.987 189.524 154.439 187.905 154.163 184.15H156.334C156.781 186.768 159.158 187.698 161.536 187.698C165.566 187.698 167.254 185.356 167.254 180.981V178.569H167.185C166.186 180.774 164.119 182.221 161.536 182.221C155.851 182.221 153.509 178.19 153.509 173.092C153.509 168.2 156.402 164.135 161.536 164.135C164.154 164.135 166.324 165.754 167.185 167.717H167.254V164.651H169.425ZM161.536 180.395C165.291 180.395 167.254 176.915 167.254 173.333C167.254 169.853 165.67 165.96 161.536 165.96C157.402 165.96 155.679 169.647 155.679 173.333C155.679 176.915 157.505 180.395 161.536 180.395Z" fill="#151515"/>
<path d="M141.524 160.173L136.598 172.781H146.278L141.524 160.173ZM130.397 182.427L140.318 157.83H142.937L152.583 182.427H150.068L147.071 174.779H135.874L132.912 182.427H130.397Z" fill="#151515"/>
</svg>
