<svg width="335" height="209" viewBox="0 0 335 209" fill="none" xmlns="http://www.w3.org/2000/svg">
<path d="M169.265 116.391C168.283 116.479 167.299 116.537 166.318 116.564L165.729 116.577C166.71 116.561 167.693 116.516 168.675 116.44L169.265 116.391Z" fill="#232048"/>
<path d="M181.411 114.031C179.35 114.62 177.255 115.122 175.129 115.531L174.548 115.641C175.13 115.534 175.708 115.42 176.285 115.299C176.477 115.259 176.669 115.218 176.861 115.176C178.395 114.842 179.912 114.46 181.411 114.031Z" fill="#232048"/>
<path d="M207.516 100.634C205.244 102.414 202.877 104.069 200.425 105.589C201.733 104.779 203.016 103.929 204.274 103.043C204.589 102.822 204.902 102.598 205.213 102.372C205.991 101.807 206.759 101.227 207.516 100.634Z" fill="#232048"/>
<path d="M214.859 94.1191C214.041 94.9381 213.207 95.7393 212.357 96.5218C212.782 96.1306 213.203 95.7347 213.62 95.3343C214.037 94.9338 214.45 94.5287 214.859 94.1191Z" fill="#232048"/>
<path d="M222.792 84.8945C221.871 86.1413 220.915 87.3609 219.927 88.5514L219.555 88.9966C219.804 88.7008 220.051 88.4033 220.296 88.1039C220.418 87.9542 220.54 87.804 220.662 87.6534C221.269 86.9003 221.864 86.1359 222.445 85.3609L222.792 84.8945Z" fill="#232048"/>
<path d="M233.58 66.1582C233.332 66.5083 233.097 66.8829 232.871 67.2743L232.736 67.5112C232.825 67.3521 232.915 67.1954 233.007 67.0418C233.053 66.9649 233.099 66.8886 233.146 66.8133C233.287 66.5873 233.431 66.3683 233.58 66.1582Z" fill="#232048"/>
<path d="M228.212 63.4961C230.013 64.1256 232.261 64.8159 233.883 65.7507C232.234 67.8601 231.118 71.0828 229.869 73.5067C218.426 95.7342 197.259 112.252 172.212 116.033C159.652 117.957 146.844 114.788 136.627 107.234C128.056 100.927 121.944 90.6574 120.397 80.1391C119.961 77.2892 119.738 74.4105 119.731 71.5273C120.435 71.1366 124.436 69.7671 125.424 69.3967C128.833 68.1185 132.316 66.7175 135.771 65.5963C135.814 66.3752 135.876 67.153 135.957 67.929C137.051 78.0735 140.412 85.5558 148.479 92.1922C156.764 99.0069 168.655 101.387 179.179 100.219C188.355 98.9395 198.571 94.2685 206.057 88.8686C212.864 83.958 218.757 76.9395 223.537 70.1287C225.037 67.9921 226.42 65.6911 228.048 63.693L228.212 63.4961Z" fill="#C2423A"/>
<path d="M193.756 30.1875C197.862 32.1931 202.516 34.1063 206.745 35.9418C215.172 39.5326 223.56 43.2144 231.907 46.986C233.05 47.8418 234.896 48.4982 236.385 48.9779L236.999 49.1726C239.719 50.18 242.776 51.653 245.503 52.8272L261.623 59.7323L310.836 80.7383C318.805 84.1386 326.966 87.9106 334.999 91.0933C332.838 93.8862 331.187 97.4543 328.91 99.69C324.471 98.3455 320.23 96.716 315.862 95.161C308.806 92.69 301.764 90.1776 294.735 87.6238L233.883 65.7509C232.261 64.8161 230.013 64.1257 228.211 63.4962L214.285 58.3442C211.703 57.3902 209.168 56.3614 206.515 55.6177C203.901 54.8849 203.355 56.1457 201.811 57.7821C198.406 61.3892 202.673 63.6874 204.705 66.3748C200.227 69.5353 195.767 72.7218 191.324 75.9336C189.284 77.4003 185.578 80.2004 183.565 81.2987C180.915 79.9901 175.784 76.2074 173.193 74.3006C170.107 72.029 165.612 69.0254 162.724 66.6323C163.806 65.3695 167.372 62.2288 166.981 60.5909C166.48 58.4945 163.726 55.3448 161.258 56.2603C153.324 59.2032 143.315 62.0132 135.771 65.5964C132.316 66.7177 128.833 68.1187 125.424 69.3969C124.436 69.7672 120.436 71.1365 119.731 71.5274C113.178 73.7848 106.289 76.4838 99.7463 78.9031L63.1802 92.4335L49.5335 97.5738C46.8602 98.5919 42.3784 100.389 39.6987 100.987C38.7386 99.2776 35.4225 94.2398 34.2134 92.7563C37.0964 91.3114 40.5424 89.9043 43.5093 88.6061L57.9129 82.2277L98.1436 64.3266C105.706 60.9654 113.734 57.52 121.258 54.0053L122.756 53.3013C126.011 52.3226 135.995 47.9036 138.813 46.2483C142.213 45.0338 145.92 43.1089 149.281 41.6748C157.562 38.141 165.958 33.9771 174.297 30.6205C176.201 33.0247 180.878 39.2542 183.68 40.7316C184.117 40.962 185.105 40.3374 185.386 40.0243C187.65 37.4899 191.867 32.848 193.756 30.1875Z" fill="#232048"/>
<path d="M122.755 53.3009C123.112 52.0382 124.321 49.1601 124.853 47.9018C128.6 38.8709 134.056 30.6481 140.919 23.6846C154.387 9.99156 171.961 0.383167 191.485 0.0100475C216.455 -0.467285 235.021 16.104 236.844 40.9738C237.042 43.6907 236.992 46.4425 236.998 49.1722C235.437 48.6812 233.213 47.9636 231.907 46.9855C232.2 40.3242 232.167 34.5716 229.869 28.138C227.054 19.9819 220.264 11.8609 212.335 8.19858C188.47 -2.82528 158.841 12.2204 145.558 32.9981C142.915 37.1322 140.847 41.8962 138.813 46.2479C135.995 47.9032 126.01 52.3221 122.755 53.3009Z" fill="#C2423A"/>
<path d="M225.899 123.968C227.027 124.531 227.982 129.219 228.354 130.594L231.524 142.34L242.358 182.711C243.863 188.288 245.462 195.08 247.962 200.32C250.051 204.7 255.518 204.791 256.675 206.19C256.122 206.65 228.137 205.977 223.982 205.996C226.351 204.778 227.588 204.906 230.017 204.194C237.869 201.89 232.836 192.326 232.02 186.961C231.696 184.839 230.526 181.183 229.827 179.239C227.177 179.026 223.199 179.196 220.466 179.221L204.137 179.342C203 179.342 199.052 179.256 198.36 180.014C194.403 184.339 188.481 195.152 187.208 200.681C189.378 205.253 192.703 203.958 195.566 205.782L195.407 206C193.882 206.261 171.65 206.609 171.302 206.49L171.086 205.969C171.905 204.435 175.008 204.707 176.532 203.834C178.754 202.551 180.616 200.453 181.924 198.26C194.104 177.844 205.76 157.093 217.937 136.675C219.879 133.419 223.39 126.452 225.899 123.968ZM219.422 142.785C218.276 143.9 212.687 153.737 211.462 155.822L204.516 167.665C203.181 169.954 201.71 172.29 200.572 174.671C201.095 175.688 208.742 175.38 210.238 175.477L228.867 175.698C228.598 172.782 221.852 146.01 220.42 143.193C219.952 142.861 219.985 142.835 219.422 142.785Z" fill="#232048"/>
<path d="M108.238 126.417C110.988 129.878 115.775 137.625 118.352 141.545L137.505 170.748C140.298 175.042 145.381 183.452 148.636 186.901C149.301 184.662 149.645 181.95 150.066 179.635C150.962 174.719 151.624 169.762 152.411 164.832C153.451 158.527 154.447 152.215 155.399 145.897C155.996 141.827 157.52 134.817 155.956 130.899C154.418 127.047 150.219 128.374 147.067 127.179L146.956 126.928C147.994 126.342 172.648 126.26 173.91 126.861L173.975 127.241C172.152 127.834 169.978 127.388 167.458 128.3C165.728 128.926 163.878 130.01 162.965 131.674C160.445 136.273 158.289 155.597 157.341 161.741L152.42 193.488C152.01 196.228 150.753 205.896 149.938 207.62C149.337 207.781 148.811 207.662 148.396 207.166C144.972 203.077 141.905 197.898 138.969 193.465L116.243 159.37C114.688 157.047 107.189 144.757 105.616 144.1L105.175 144.343C104.2 145.952 104.017 149.444 103.708 151.418L101.486 165.679C100.317 173.188 99.2253 180.709 98.2125 188.24C97.7391 191.664 97.0918 195.217 96.8355 198.653C96.5168 202.92 98.6052 204.224 102.209 205.015L102.235 205.513L101.932 205.766L102.662 206.103C98.1005 206.285 93.5366 206.417 88.9717 206.498C87.6707 206.515 84.4056 206.618 83.1674 206.501C81.9813 206.605 80.1314 206.946 79.1968 206.241L79.364 205.917C80.8673 205.207 81.8321 205.295 83.4995 205.211C85.1424 204.502 86.7609 204.489 88.3442 203.418C91.5888 201.221 92.6638 191.837 93.338 188.085C95.3083 177.122 96.8874 166.077 98.5988 155.072C99.336 150.33 101.092 142.009 100.958 137.498C100.926 136.399 100.479 135.604 99.8378 134.723C97.8326 131.975 94.2438 129.412 90.82 128.926C89.7241 128.769 88.6432 128.949 87.533 128.757C87.1867 128.217 87.2016 127.375 87.1323 126.674C93.9792 126.371 101.37 126.434 108.238 126.417Z" fill="#232048"/>
<path d="M83.1674 206.5C81.9813 206.605 80.1314 206.946 79.1968 206.241L79.364 205.916C80.8673 205.207 81.8321 205.295 83.4995 205.211L83.3182 205.546C82.7306 205.619 82.2391 205.68 81.6427 205.711L81.686 205.9C82.2642 206.013 82.6427 206.067 83.2174 206.132C83.217 206.446 83.2624 206.331 83.1674 206.5Z" fill="#232048"/>
<path d="M332.338 123.81L332.514 124.015C332.758 125.486 329.218 149.474 328.672 150.491C328.328 151.131 327.929 151.198 327.295 151.433L327.01 151.255C326.738 149.838 326.937 148.415 326.918 146.998C326.822 139.492 322.873 132.392 315.881 129.391C308.509 126.224 300.155 127.637 294.664 133.517C290.922 137.525 289.426 143.625 293.034 148.212C294.549 150.137 297.705 152.169 299.701 153.594C303.194 156.135 306.745 158.589 310.355 160.958C318.083 165.943 329.396 171.922 329.385 182.278C329.37 197.607 314.799 208.71 300.18 208.43C292.004 208.273 285.709 204.732 277.912 203.966C276.498 203.828 274.836 207.045 274.045 208.097C273.384 208.101 273.371 208.152 272.785 207.886C272.756 206.03 273.779 201.66 274.083 199.603L275.998 187.432C276.232 185.861 276.322 181.878 277.381 180.882C277.789 181.002 278.138 181.217 278.23 181.675C279.367 187.118 278.716 191.984 282.121 196.837C291.088 209.617 316.932 207.216 318.194 189.747C318.868 180.426 309.721 176.756 303.304 172.332C297.606 168.4 290.537 164.124 285.55 159.146C277.366 150.884 281.928 137.818 289.587 131C296.631 124.91 307.065 122.617 315.969 125.436C319.792 126.645 323.538 128.436 327.493 128.654C330.507 126.955 330.22 125.21 332.338 123.81Z" fill="#232048"/>
<path d="M62.1722 195.024C60.6289 196.962 57.13 199.912 55.1104 201.356C45.6265 208.143 35.3394 209.449 23.9839 207.668C16.4746 206.492 10.1634 202.396 5.82872 196.15C0.24951 188.11 -0.970087 177.115 0.679129 167.688C3.10158 153.841 11.0622 141.017 22.7116 133.155C32.2446 126.722 45.8077 122.742 57.0473 126.463C60.9669 127.76 63.8486 129.629 67.8083 130.393C69.2682 129.89 69.5157 129.8 70.7705 129.03C72.3674 128.049 73.0502 125.42 74.1263 125.092C74.4132 125.341 74.6279 125.651 74.5856 126.042C74.2156 129.459 73.0659 150.218 71.8291 151.752C71.4998 151.702 71.3305 151.633 71.1986 151.252C69.2713 145.686 68.7919 139.958 64.6713 135.36C61.0005 131.263 56.0012 129.145 50.5953 128.836C42.3913 128.363 34.8039 130.357 28.6564 135.946C17.8918 145.405 13.7707 160.744 12.746 174.457C11.5762 190.115 18.6949 202.85 35.4468 203.357C47.5796 203.723 53.1023 200.67 61.7966 192.797C62.9178 191.594 66.2504 187.679 67.5941 187.497C68.176 188.798 63.2407 194.185 62.1722 195.024Z" fill="#232048"/>
<path d="M61.7969 192.798C62.9181 191.594 66.2507 187.679 67.5943 187.497C68.1763 188.799 63.241 194.185 62.1725 195.024L61.971 194.698C62.8041 193.767 65.4561 191.04 65.8771 190.104L65.5509 189.801C64.6554 189.749 63.2379 192.461 61.7969 192.798Z" fill="#232048"/>
<path d="M102.208 205.015C104.276 205.234 105.521 205.32 107.51 205.935C105.702 206.088 104.48 206.122 102.662 206.103L101.932 205.766L102.234 205.513L102.208 205.015Z" fill="#232048"/>
<path d="M170.444 116.27C171.034 116.202 171.623 116.123 172.212 116.033C171.427 116.153 170.641 116.254 169.854 116.334L170.444 116.27Z" fill="#232048"/>
<path d="M172.212 116.033L172.798 115.942C172.603 115.973 172.407 116.004 172.212 116.033Z" fill="#232048"/>
</svg>
