<svg width="335" height="209" viewBox="0 0 335 209" fill="none" xmlns="http://www.w3.org/2000/svg">
<path d="M169.265 116.391C168.283 116.479 167.299 116.537 166.318 116.564L165.729 116.577C166.71 116.561 167.693 116.516 168.675 116.44L169.265 116.391Z" fill="#232048"/>
<path d="M181.411 114.031C179.35 114.62 177.255 115.122 175.129 115.531L174.548 115.641C175.13 115.534 175.708 115.42 176.285 115.299C176.477 115.259 176.669 115.218 176.861 115.176C178.395 114.842 179.912 114.46 181.411 114.031Z" fill="#232048"/>
<path d="M207.516 100.634C205.244 102.414 202.877 104.069 200.425 105.589C201.733 104.779 203.016 103.929 204.274 103.043C204.589 102.822 204.902 102.598 205.213 102.372C205.991 101.807 206.759 101.227 207.516 100.634Z" fill="#232048"/>
<path d="M214.859 94.1182C214.041 94.9371 213.207 95.7383 212.357 96.5208C212.782 96.1296 213.203 95.7338 213.62 95.3333C214.037 94.9328 214.45 94.5277 214.859 94.1182Z" fill="#232048"/>
<path d="M222.792 84.8936C221.871 86.1403 220.915 87.3599 219.927 88.5505L219.555 88.9956C219.804 88.6999 220.051 88.4023 220.296 88.103C220.418 87.9532 220.54 87.803 220.662 87.6524C221.269 86.8993 221.864 86.1349 222.445 85.3599L222.792 84.8936Z" fill="#232048"/>
<path d="M233.58 66.1582C233.332 66.5083 233.097 66.8829 232.871 67.2743L232.736 67.5112C232.825 67.3521 232.915 67.1954 233.007 67.0418C233.053 66.9649 233.099 66.8886 233.146 66.8133C233.287 66.5873 233.431 66.3683 233.58 66.1582Z" fill="#232048"/>
<path fill-rule="evenodd" clip-rule="evenodd" d="M225.899 123.968C227.027 124.531 227.982 129.219 228.354 130.594L231.524 142.34L242.358 182.711C243.863 188.288 245.462 195.08 247.962 200.32C250.051 204.7 255.518 204.791 256.675 206.19C256.122 206.65 228.137 205.977 223.982 205.996C226.351 204.778 227.588 204.906 230.017 204.194C237.869 201.89 232.836 192.326 232.02 186.961C231.696 184.839 230.526 181.183 229.827 179.239C227.177 179.026 223.199 179.196 220.466 179.221L204.137 179.342C203 179.342 199.052 179.256 198.36 180.014C194.403 184.339 188.481 195.152 187.208 200.681C189.378 205.253 192.703 203.958 195.566 205.782L195.407 206C193.882 206.261 171.65 206.609 171.302 206.49L171.086 205.969C171.905 204.435 175.008 204.707 176.532 203.834C178.754 202.551 180.616 200.453 181.924 198.26C194.104 177.844 205.76 157.093 217.937 136.675C219.879 133.419 223.39 126.452 225.899 123.968ZM219.422 142.785C218.276 143.9 212.687 153.737 211.462 155.822L204.516 167.665C203.181 169.954 201.71 172.29 200.572 174.671C201.095 175.688 208.742 175.38 210.238 175.477L228.867 175.698C228.598 172.782 221.852 146.01 220.42 143.193C219.952 142.861 219.985 142.835 219.422 142.785Z" fill="white"/>
<path d="M108.238 126.416C110.988 129.877 115.775 137.624 118.352 141.544L137.505 170.747C140.298 175.041 145.381 183.451 148.636 186.9C149.301 184.661 149.645 181.949 150.066 179.634C150.962 174.719 151.624 169.761 152.411 164.831C153.451 158.526 154.447 152.214 155.399 145.896C155.996 141.826 157.52 134.816 155.956 130.898C154.418 127.046 150.219 128.373 147.067 127.178L146.956 126.927C147.994 126.341 172.648 126.259 173.91 126.86L173.975 127.241C172.152 127.833 169.978 127.387 167.458 128.299C165.728 128.925 163.878 130.009 162.965 131.673C160.445 136.272 158.289 155.596 157.341 161.74L152.42 193.487C152.01 196.227 150.753 205.895 149.938 207.619C149.337 207.78 148.811 207.661 148.396 207.165C144.972 203.076 141.905 197.897 138.969 193.464L116.243 159.369C114.688 157.046 107.189 144.756 105.616 144.099L105.175 144.342C104.2 145.951 104.017 149.444 103.708 151.417L101.486 165.678C100.317 173.187 99.2253 180.708 98.2125 188.239C97.7391 191.663 97.0918 195.216 96.8355 198.652C96.5168 202.919 98.6052 204.223 102.209 205.014L102.235 205.512L101.932 205.765L102.662 206.102C98.1005 206.284 93.5366 206.416 88.9717 206.497C87.6707 206.514 84.4056 206.617 83.1674 206.5C81.9813 206.604 80.1314 206.945 79.1968 206.24L79.364 205.916C80.8673 205.206 81.8321 205.294 83.4995 205.21C85.1424 204.501 86.7609 204.488 88.3442 203.417C91.5888 201.22 92.6638 191.836 93.338 188.084C95.3083 177.121 96.8874 166.076 98.5988 155.071C99.336 150.329 101.092 142.008 100.958 137.497C100.926 136.398 100.479 135.603 99.8378 134.722C97.8326 131.974 94.2438 129.411 90.82 128.925C89.7241 128.768 88.6432 128.948 87.533 128.756C87.1867 128.216 87.2016 127.374 87.1323 126.673C93.9792 126.37 101.37 126.433 108.238 126.416Z" fill="white"/>
<path d="M83.1674 206.5C81.9813 206.605 80.1314 206.946 79.1968 206.241L79.364 205.916C80.8673 205.207 81.8321 205.295 83.4995 205.211L83.3182 205.546C82.7306 205.619 82.2391 205.68 81.6427 205.711L81.686 205.9C82.2642 206.013 82.6427 206.067 83.2174 206.132C83.217 206.446 83.2624 206.331 83.1674 206.5Z" fill="#232048"/>
<path d="M332.338 123.809L332.514 124.014C332.758 125.485 329.218 149.473 328.672 150.49C328.328 151.13 327.929 151.197 327.295 151.432L327.01 151.254C326.738 149.837 326.937 148.414 326.918 146.997C326.822 139.491 322.873 132.391 315.881 129.39C308.509 126.224 300.155 127.636 294.664 133.516C290.922 137.524 289.426 143.624 293.034 148.211C294.549 150.136 297.705 152.168 299.701 153.593C303.194 156.134 306.745 158.588 310.355 160.957C318.083 165.942 329.396 171.921 329.385 182.277C329.37 197.606 314.799 208.709 300.18 208.429C292.004 208.272 285.709 204.731 277.912 203.965C276.498 203.827 274.836 207.044 274.045 208.096C273.384 208.1 273.371 208.151 272.785 207.885C272.756 206.029 273.779 201.659 274.083 199.602L275.998 187.431C276.232 185.86 276.322 181.878 277.381 180.881C277.789 181.001 278.138 181.216 278.23 181.675C279.367 187.117 278.716 191.983 282.121 196.836C291.088 209.616 316.932 207.215 318.194 189.746C318.868 180.425 309.721 176.755 303.304 172.331C297.606 168.399 290.537 164.123 285.55 159.145C277.366 150.883 281.928 137.817 289.587 130.999C296.631 124.909 307.065 122.616 315.969 125.435C319.792 126.644 323.538 128.435 327.493 128.653C330.507 126.954 330.22 125.209 332.338 123.809Z" fill="white"/>
<path d="M62.1722 195.024C60.6289 196.962 57.13 199.912 55.1104 201.356C45.6265 208.143 35.3394 209.449 23.9839 207.668C16.4746 206.492 10.1634 202.396 5.82872 196.15C0.24951 188.11 -0.970087 177.115 0.679129 167.688C3.10158 153.841 11.0622 141.017 22.7116 133.155C32.2446 126.722 45.8077 122.742 57.0473 126.463C60.9669 127.76 63.8486 129.629 67.8083 130.393C69.2682 129.89 69.5157 129.8 70.7705 129.03C72.3674 128.049 73.0502 125.42 74.1263 125.092C74.4132 125.341 74.6279 125.651 74.5856 126.042C74.2156 129.459 73.0659 150.218 71.8291 151.752C71.4998 151.702 71.3305 151.633 71.1986 151.252C69.2713 145.686 68.7919 139.958 64.6713 135.36C61.0005 131.263 56.0012 129.145 50.5953 128.836C42.3913 128.363 34.8039 130.357 28.6564 135.946C17.8918 145.405 13.7707 160.744 12.746 174.457C11.5762 190.115 18.6949 202.85 35.4468 203.357C47.5796 203.723 53.1023 200.67 61.7966 192.797C62.9178 191.594 66.2504 187.679 67.5941 187.497C68.176 188.798 63.2407 194.185 62.1722 195.024Z" fill="white"/>
<path d="M61.7969 192.798C62.9181 191.594 66.2507 187.679 67.5943 187.497C68.1763 188.799 63.241 194.185 62.1725 195.024L61.971 194.698C62.8041 193.767 65.4561 191.04 65.8771 190.104L65.5509 189.801C64.6554 189.749 63.2379 192.461 61.7969 192.798Z" fill="#232048"/>
<path d="M102.208 205.014C104.276 205.233 105.521 205.319 107.51 205.934C105.702 206.087 104.48 206.121 102.662 206.102L101.932 205.765L102.234 205.512L102.208 205.014Z" fill="#232048"/>
<path d="M170.444 116.27C171.034 116.202 171.623 116.123 172.212 116.033C171.427 116.153 170.641 116.254 169.854 116.334L170.444 116.27Z" fill="#232048"/>
<path d="M172.212 116.032L172.798 115.941C172.603 115.972 172.407 116.003 172.212 116.032Z" fill="#232048"/>
<path d="M193.756 30.1865C197.862 32.1921 202.516 34.1054 206.745 35.9408C215.172 39.5316 223.56 43.2134 231.907 46.985C233.05 47.8408 234.896 48.4972 236.385 48.9769L236.999 49.1717C239.719 50.1791 242.776 51.652 245.503 52.8262L261.623 59.7313L310.836 80.7373C318.805 84.1376 326.966 87.9097 334.999 91.0924C332.838 93.8852 331.187 97.4533 328.91 99.6891C324.471 98.3445 320.23 96.7151 315.862 95.16C308.806 92.689 301.764 90.1767 294.735 87.6228L233.883 65.7499C232.261 64.8151 230.013 64.1247 228.211 63.4953L214.285 58.3433C211.703 57.3892 209.168 56.3605 206.515 55.6167C203.901 54.884 203.355 56.1447 201.811 57.7812C198.406 61.3882 202.673 63.6865 204.705 66.3738C200.227 69.5344 195.767 72.7208 191.324 75.9326C189.284 77.3994 185.578 80.1995 183.565 81.2977C180.915 79.9891 175.784 76.2064 173.193 74.2996C170.107 72.0281 165.612 69.0244 162.724 66.6313C163.806 65.3686 167.372 62.2278 166.981 60.5899C166.48 58.4935 163.726 55.3439 161.258 56.2594C153.324 59.2022 143.315 62.0122 135.771 65.5954C132.316 66.7167 128.833 68.1177 125.424 69.3959C124.436 69.7662 120.436 71.1355 119.731 71.5264C113.178 73.7838 106.289 76.4828 99.7463 78.9021L63.1802 92.4325L49.5335 97.5728C46.8602 98.5909 42.3784 100.388 39.6987 100.986C38.7386 99.2766 35.4225 94.2388 34.2134 92.7553C37.0964 91.3104 40.5424 89.9034 43.5093 88.6051L57.9129 82.2267L98.1436 64.3257C105.706 60.9644 113.734 57.519 121.258 54.0043L122.756 53.3003C126.011 52.3216 135.995 47.9027 138.813 46.2473C142.213 45.0328 145.92 43.1079 149.281 41.6738C157.562 38.14 165.958 33.9761 174.297 30.6195C176.201 33.0238 180.878 39.2533 183.68 40.7306C184.117 40.961 185.105 40.3364 185.386 40.0233C187.65 37.4889 191.867 32.8471 193.756 30.1865Z" fill="white"/>
<path d="M227.646 65.9346L227.671 65.9443L227.698 65.9531C229.565 66.6055 231.288 67.1411 232.569 67.8154C231.577 69.6583 230.756 71.7837 229.869 73.5059C218.426 95.7331 197.259 112.251 172.212 116.032C159.652 117.955 146.844 114.787 136.627 107.232C128.056 100.925 121.943 90.656 120.397 80.1377C120.109 78.2582 119.916 76.3662 119.815 74.4688C120.273 74.308 120.729 74.1461 121.184 73.9893L121.432 73.9033L121.662 73.7764C121.622 73.7984 121.796 73.7133 122.335 73.5049C122.794 73.3279 123.366 73.1178 123.965 72.9014C125.108 72.4887 126.444 72.0218 126.953 71.8311C130.054 70.6683 133.036 69.477 136.018 68.46C137.172 78.3349 140.553 85.6716 148.479 92.1914C156.763 99.006 168.654 101.385 179.178 100.218C188.354 98.9379 198.572 94.2671 206.057 88.8672C212.864 83.9566 218.757 76.9385 223.537 70.1279C224.587 68.6329 225.581 67.0584 226.64 65.5625L227.646 65.9346Z" fill="white"/>
<path fill-rule="evenodd" clip-rule="evenodd" d="M191.486 0.0100406C216.455 -0.467117 235.02 16.1035 236.843 40.9729C236.953 42.4693 236.985 43.9767 236.995 45.4846C235.772 45.0632 234.743 44.6308 234.181 44.2102L233.918 44.013L233.618 43.8772C233.088 43.6377 232.556 43.4011 232.026 43.1624C232.099 38.0436 231.716 33.311 229.869 28.138C227.054 19.9819 220.263 11.8609 212.334 8.19852C188.47 -2.82528 158.841 12.2198 145.558 32.9973C143.742 35.8378 142.198 38.9763 140.75 42.0735C139.925 42.4245 139.105 42.7534 138.28 43.0481L138.013 43.1438L137.769 43.2864C136.531 44.0137 133.482 45.4689 130.214 46.9085C127.997 47.8851 125.835 48.7833 124.229 49.3958C124.471 48.8096 124.692 48.2816 124.853 47.9016C128.6 38.8708 134.056 30.6474 140.919 23.6839C154.387 9.99094 171.962 0.383158 191.486 0.0100406Z" fill="white"/>
</svg>
