<svg width="114" height="133" viewBox="0 0 114 133" fill="none" xmlns="http://www.w3.org/2000/svg">
<path fill-rule="evenodd" clip-rule="evenodd" d="M56.899 0C76.2161 11.3397 90.2527 11.8961 111.962 11.1406C119.014 59.6148 108.465 114.333 57.0865 132.5C43.7407 129.345 28.5885 117.719 20.4196 106.846C-0.171124 79.4372 -2.50562 43.8981 1.81994 11.165C23.0115 11.7056 38.1255 11.5235 56.899 0ZM56.9791 65.5078C42.9995 65.4394 29.0199 65.4559 15.0406 65.5586C18.3504 79.597 23.1905 91.519 32.6305 102.611C40.4699 111.162 46.2992 115.169 56.9479 119.628L56.9791 65.5078ZM56.9791 65.5078C70.7631 65.2908 85.0443 65.4733 98.8688 65.4883C101.675 50.9636 102.502 38.5195 101.255 23.6631L92.3912 23.3271C78.2404 22.0098 69.9367 20.3029 57.0055 14.2998L56.9791 65.5078Z" fill="white"/>
</svg>
