<svg width="237" height="237" viewBox="0 0 237 237" fill="none" xmlns="http://www.w3.org/2000/svg">
<circle cx="118.5" cy="118.5" r="118.5" fill="white"/>
<path fill-rule="evenodd" clip-rule="evenodd" d="M213.725 54.801C248.817 107.26 234.64 178.645 182.192 213.724C129.742 248.809 58.3563 234.656 23.2702 182.192C-11.8096 129.738 2.35424 58.3655 54.7922 23.2691C107.247 -11.8104 178.633 2.35479 213.725 54.801ZM210.921 56.0662C176.785 5.01784 107.3 -8.76866 56.2393 25.3729C5.20033 59.5146 -8.57955 129.002 25.5632 180.05C59.704 231.098 129.195 244.887 180.257 210.726C231.29 176.598 245.077 107.115 210.921 56.0662ZM178.548 208.226C128.769 241.529 61.3714 228.168 28.0869 178.378C-5.23474 128.564 8.13215 61.1937 57.9234 27.8845C107.713 -5.41774 175.113 7.94862 208.411 57.7385C241.726 107.534 228.364 174.93 178.548 208.226ZM97.9346 44.0922L115.937 41.3237L114.787 35.213L112.464 35.5716L112.652 38.2046C112.713 39.0935 112.329 39.2808 111.485 39.4212L103.402 40.656L101.973 31.4184L110.11 30.1715L109.721 27.6414L101.577 28.8761L100.331 20.7148L108.389 19.4738C109.222 19.3529 109.673 19.431 109.866 20.2889L110.464 22.6964L112.682 22.3451L111.971 16.3418L94.1083 19.0658L94.4073 21.0188L96.2733 20.9512C97.1624 20.9218 97.3634 21.316 97.4962 22.1857L100.227 39.926C100.361 40.8071 100.259 41.1363 99.4062 41.4038L97.6244 42.0124L97.9346 44.0922ZM45.4563 190.158C51.7383 196.385 58.7582 194.183 63.6033 189.306C69.0824 183.798 70.9375 177.74 65.5123 172.346C59.2132 166.093 52.1826 168.307 47.3535 173.179C41.8747 178.719 40.0073 184.752 45.4563 190.158ZM57.4374 170.922C59.3653 170.795 61.0179 171.671 62.6903 173.324C66.5401 177.131 65.8478 182.052 61.2674 186.686C58.9881 188.99 55.4367 191.441 53.5217 191.575C51.6044 191.715 49.9265 190.82 48.266 189.166C44.4043 185.347 45.0975 180.446 49.6773 175.812C51.9758 173.501 55.5153 171.062 57.4374 170.922ZM195.006 186.271L206.165 171.245L200.905 167.583L199.457 169.542L201.507 171.342C202.188 171.926 202.055 172.363 201.537 173.057L196.495 179.82L188.783 174.079L193.826 167.286L191.704 165.716L186.655 172.503L179.85 167.444L184.843 160.7C185.354 160.001 185.737 159.744 186.509 160.236L188.656 161.564L190.049 159.708L185.184 155.816L174.097 170.746L175.726 171.95L177.035 170.539C177.667 169.882 178.098 170.028 178.828 170.569L193.656 181.59C194.385 182.124 194.556 182.435 194.123 183.25L193.254 184.977L195.006 186.271ZM116.351 194.087L108.742 216.119C108.311 217.404 107.963 217.628 107.063 217.8L105.676 218.065L105.701 220.201L114.379 220.145L114.367 218.085L112.404 217.768C111.753 217.665 111.424 217.391 111.424 216.837C111.424 216.617 111.454 216.369 111.558 216.084L113.036 211.577L122.638 211.504L124.256 216.096C124.373 216.375 124.421 216.594 124.421 216.801C124.421 217.288 124.128 217.574 123.485 217.689L121.501 218.03L121.507 220.086L130.795 220.019L130.782 217.878L129.382 217.652C128.453 217.482 128.069 217.269 127.632 215.993L119.725 194.05L116.351 194.087ZM117.718 197.188L118.132 198.807L121.714 208.981L113.886 209.047L117.336 198.813L117.718 197.188ZM28.7255 113.762C26.3599 113.763 24.4256 115.671 24.4261 118.056C24.4252 120.421 26.3601 122.35 28.7257 122.35C31.0978 122.35 33.0187 120.421 33.0185 118.056C33.0192 115.672 31.0976 113.762 28.7255 113.762ZM126.002 38.4536L127.054 30.7555L128.308 30.925C129.382 31.0773 129.889 31.8553 130.253 32.6152L133.885 40.6741C134.656 42.3104 135.673 43.9095 137.551 44.1593C139.011 44.3773 140.094 43.9885 140.404 43.8116L140.86 41.9332C140.629 41.9572 139.972 42.0481 139.595 41.9941C138.725 41.8897 137.813 41.2816 137.096 39.7742L134.091 33.2538C133.581 32.1112 132.845 31.0586 132.127 30.7855C134.357 30.7736 138.677 29.836 139.374 24.8986C140.015 20.0826 137.059 18.1966 132.26 17.5392L123.102 16.2746L122.816 18.3184L124.616 18.8838C125.49 19.152 125.576 19.4738 125.431 20.3497L123.003 38.0411C122.881 38.9105 122.7 39.2019 121.823 39.226L119.926 39.2755L119.633 41.343L128.793 42.5948L129.086 40.4979L126.854 39.9144C126.002 39.6948 125.873 39.3299 126.002 38.4536ZM127.395 28.3224L128.618 19.5107L131.213 19.8759C134.352 20.301 136.365 21.6506 135.939 24.7832C135.666 26.7651 135.101 27.6843 134.025 28.3463C132.904 29.0461 131.78 28.9244 130.489 28.7532L127.395 28.3224ZM28.0684 157.343L35.2749 153.869L35.8353 155.037C36.3275 156.053 35.9442 156.923 35.4951 157.672L30.636 165.376C29.6554 166.952 28.8779 168.727 29.7226 170.497C30.3794 171.864 31.3158 172.571 31.6382 172.734L33.512 172.053C33.3417 171.884 32.9104 171.373 32.7449 171.014C32.3505 170.2 32.3449 169.08 33.238 167.614L37.1184 161.338C37.8175 160.237 38.2919 158.991 38.1209 158.23C39.4168 160.164 42.6531 163.338 47.2816 161.107C51.7938 158.96 51.738 155.342 49.5795 150.842L45.4738 142.249L43.5598 143.172L44.0827 145.04C44.3372 145.922 44.1129 146.201 43.2909 146.578L26.7251 154.527C25.9154 154.922 25.563 154.928 25.034 154.179L23.8909 152.587L21.9808 153.511L26.092 162.092L28.0502 161.156L27.2782 158.9C27.0036 158.041 27.2479 157.714 28.0684 157.343ZM37.5499 152.781L45.8147 148.834L46.983 151.267C48.3754 154.211 48.3758 156.704 45.4563 158.108C43.5895 158.991 42.4886 159.045 41.297 158.491C40.0558 157.908 39.5327 156.892 38.9486 155.675L37.5499 152.781ZM148.717 211.729L142.696 196.378L162.188 210.569L165.126 209.405L157.012 188.705C156.703 187.858 156.666 187.397 157.456 186.965L159.135 186.084L158.362 184.095L150.037 187.361L150.823 189.349L152.652 188.857C153.535 188.625 153.796 188.99 154.125 189.836L160.151 205.222L140.64 191.04L134.984 193.267L135.763 195.236L137.599 194.762C138.483 194.53 138.774 194.884 139.115 195.723L145.822 212.866C146.164 213.706 146.138 214.053 145.349 214.527L143.682 215.53L144.466 217.506L152.883 214.228L152.087 212.233L150.201 212.629C149.301 212.817 149.065 212.568 148.717 211.729ZM119.343 189.812L116.636 189.836L112.501 193.916L113.923 194.883L117.974 191.654L122.134 194.829L123.502 193.857L119.343 189.812ZM49.2447 81.0493C46.7205 85.914 41.7157 85.8116 36.565 83.1352C34.2167 81.9119 30.4461 79.1277 29.9238 77.4734C29.4498 76.0565 29.285 74.5601 30.5567 72.1339C31.7295 69.8902 32.6602 68.9959 34.175 67.8036L37.9639 68.9232L39.1255 66.6911L34.3086 63.5525C31.0121 65.8461 29.7711 67.9313 28.7013 69.9867C24.9914 77.1205 28.6471 82.8742 35.1969 86.273C42.3792 89.9953 47.9319 89.3499 51.3798 82.7457C53.1564 79.3227 53.3441 76.0558 53.4785 74.0558L48.0168 71.2212C47.2504 70.821 47.0195 70.638 47.2745 69.7677L47.6694 68.4356L45.84 67.4863L42.0205 74.8388L43.8497 75.7951L45.0733 74.1585C45.5842 73.4774 45.9307 73.4656 46.7035 73.8783L50.8568 76.0323C50.552 77.8756 50.1324 79.3407 49.2447 81.0493ZM185.306 66.034L195.006 56.7546C195.631 56.1456 195.954 56.0301 196.666 56.5644L198.186 57.6903L199.682 56.2616L193.699 50.0157L192.219 51.456L193.259 53.0258C193.777 53.7427 193.638 54.0658 193.005 54.6668L183.924 63.37C181.784 65.4142 180.348 66.1133 179.235 66.0583C177.898 65.9732 176.547 65.1279 175.574 64.1064C173.288 61.7217 171.998 58.4937 175.574 55.0634L184.862 46.1649C185.505 45.5572 185.835 45.4365 186.529 45.9833L188.054 47.1083L189.563 45.6787L183.475 39.3297L181.967 40.7584L183.037 42.3288C183.555 43.0577 183.414 43.3805 182.776 43.9887L173.086 53.2619C169.141 57.0275 168.914 61.1933 172.795 65.2679C175.837 68.436 180.81 70.346 185.306 66.034ZM86.969 48.5502L83.8979 26.0546C83.7343 24.7834 84.0131 24.4486 84.7485 23.9796L85.8558 23.2688L84.9685 21.4067L77.092 25.2209L77.9808 27.0451L79.7381 26.4371C80.4614 26.1583 80.8327 26.1747 81.0393 26.6189C81.1187 26.7778 81.1795 27.0636 81.2398 27.3487L84.0134 44.974L71.3381 32.1413C71.1007 31.8979 70.9252 31.6669 70.8277 31.4734C70.6265 31.0715 70.828 30.8222 71.4607 30.4258L73.0352 29.4344L72.1473 27.6055L63.64 31.7043L64.5447 33.5777L65.7135 33.1701C66.5405 32.8708 67.3119 32.7012 68.2253 33.6321L84.6453 49.6626L86.969 48.5502ZM176.736 78.932C155.147 46.6278 111.412 37.9621 79.1167 59.5507C46.8187 81.1531 38.1458 124.879 59.7534 157.19C81.3554 189.483 125.065 198.167 157.379 176.548C189.665 154.946 198.357 111.232 176.736 78.932ZM155.65 173.968C124.774 194.639 82.9855 186.332 62.3135 155.463C41.6678 124.576 49.9631 82.7885 80.8504 62.1366C111.722 41.4901 153.509 49.7668 174.169 80.6546C194.817 111.519 186.528 153.322 155.65 173.968ZM85.0412 152.649L86.5433 152.182C86.78 151.962 87.0237 151.816 87.3281 151.725C87.4489 151.634 87.5825 151.561 87.7229 151.494C86.0683 145.079 84.3174 138.668 82.6087 132.258L82.6089 153.605C82.9484 153.246 83.3693 152.965 83.8184 152.833C84.1897 152.584 84.6094 152.558 85.0412 152.649ZM153.09 132.892C152.536 134.982 152.003 137.063 151.461 139.161C150.524 142.895 149.582 146.66 148.542 150.394C149.789 151.713 151.095 152.9 152.087 153.137C152.586 154.072 153.248 154.881 153.983 155.581L153.984 132.168C153.753 132.514 153.46 132.769 153.09 132.892ZM133.207 149.704C133.209 149.709 133.209 149.716 133.209 149.724C133.191 149.705 133.172 149.694 133.135 149.657C134.899 152.596 135.939 154.201 137.308 156.548C137.472 157.861 137.491 158.542 137.795 159.26L137.85 159.26C138.057 159.797 138.391 160.295 139.06 161.048C139.059 161.973 139.857 162.837 140.537 163.171C140.592 163.438 140.641 163.547 140.78 163.736C141.31 164.302 142.733 164.327 143.512 164.162C144.09 163.689 144.448 163.718 145.032 163.584C145.61 163.499 145.61 163.438 146.279 163.317C146.814 163.037 147.228 162.909 147.55 162.751C147.982 162.374 147.915 161.675 147.55 161.394C148.371 160.823 149.502 160.172 148.419 159.388C148.351 159.363 148.303 159.315 148.249 159.279C148.748 158.397 148.639 157.467 148.006 156.748C148.005 155.404 147.343 154.711 146.352 153.836C146.328 153.837 146.315 153.836 146.29 153.83C148.182 147.432 150.147 139.215 152.087 131.819C152.926 131.875 153.066 131.42 153.194 130.945C153.801 130.775 153.948 130.318 153.509 129.808C154.301 129.473 154.343 128.987 154.136 128.367C156.569 125.605 158.277 123.775 158.564 122.838C158.795 121.847 158.011 119.833 157.238 116.976C157.318 116.665 157.5 115.941 156.704 115.746C156.642 115.681 156.6 115.601 156.538 115.558C156.787 115.419 156.953 115.15 156.953 114.854C156.953 114.408 156.6 114.049 156.137 114.05C155.68 114.05 155.316 114.408 155.316 114.853C155.316 114.986 155.353 115.102 155.402 115.194C155.243 115.23 155.073 115.328 154.884 115.431C154.142 115.266 153.747 115.874 153.565 116.325C151.685 118.356 149.782 119.803 149.405 120.759C149.296 121.634 149.349 123.792 149.952 127.236C149.18 127.581 149.094 128.226 149.55 128.834C148.857 129.041 148.827 129.528 149.223 129.989C149.076 130.568 149.235 130.921 149.612 131.2C147.854 138.308 146.011 144.647 143.299 152.965C142.771 152.839 140.519 153.216 139.048 152.656C137.734 150.745 136.961 149.505 136.147 147.899C138.147 148.448 138.951 148.326 141.359 147.875C138.652 146.336 137.758 145.673 135.964 142.913C138.233 141.861 139.729 140.955 140.775 139.654C141.359 142.822 142.235 144.543 144.204 145.978C144.387 145.431 144.54 144.878 144.722 144.33L144.722 86.7685C144.722 86.3732 145.032 86.0684 145.403 86.0681C145.781 86.0679 146.084 86.3731 146.084 86.768L146.084 139.659C146.851 136.965 147.58 134.259 148.261 131.522C148.036 131.152 147.933 130.737 147.952 130.27C147.628 129.625 147.684 128.938 148.073 128.415C147.976 127.788 148.165 127.174 148.614 126.706C148.419 125.513 148.261 124.309 148.182 123.117C148.127 122.321 148.079 121.397 148.182 120.606L148.182 120.461L148.261 120.314C148.572 119.506 149.435 118.684 150.062 118.083C150.901 117.285 151.728 116.507 152.519 115.663C152.835 115.01 153.334 114.5 153.984 114.299L153.984 90.6904C153.984 90.3022 154.295 89.9984 154.672 89.998C155.031 89.9981 155.353 90.3019 155.352 90.6906L155.353 113.004C155.596 112.906 155.857 112.852 156.137 112.852C157.256 112.851 158.187 113.746 158.187 114.853C158.186 114.998 158.175 115.132 158.138 115.267C158.338 115.504 158.454 115.783 158.509 116.112C158.564 116.397 158.545 116.665 158.491 116.939C158.801 118.07 159.159 119.176 159.458 120.302C159.681 121.16 159.945 122.235 159.756 123.106L159.744 123.149L159.738 123.191C159.47 124.031 158.655 125.003 158.095 125.69C157.25 126.706 156.35 127.715 155.469 128.713C155.505 129.041 155.444 129.351 155.352 129.625L155.353 156.627C156.301 157.223 157.274 157.564 158.108 157.564C159.786 159.006 160.778 159.388 163.058 159.905C160.315 156.664 161.404 133.073 161.306 113.345C161.507 113.345 162.681 114.043 162.887 114.043C161.496 109.817 161.836 103.893 161.933 97.284C162.37 97.4602 163.235 98.159 163.673 98.3479C163.326 94.6081 163.417 93.75 163.417 91.6387C163.417 78.503 156.576 74.9885 151.217 73.5282C141.662 71.3456 135.009 78.9042 137.308 86.9206C136.754 89.438 135.367 91.3362 133.02 92.4005C131.093 93.0689 128.379 93.2332 127.249 91.0252C127.753 91.3537 128.125 91.5241 128.763 91.5367C128.178 90.9281 127.858 90.0408 127.578 89.0364C127.128 87.3285 126.841 85.2245 125.758 83.3857C126.841 84.3108 127.219 85.2543 127.595 86.1227C128.118 83.6482 127.37 80.625 126.251 79.2883C127.171 79.7511 127.195 79.6407 127.863 80.3464C128.028 78.9668 127.815 78.4008 127.395 77.5297C127.37 75.5667 127.157 74.9394 126.251 73.785C127.195 74.2037 127.863 74.1364 128.725 73.6509C127.462 73.2189 126.597 72.4713 125.692 71.0904C124.831 69.8079 124.516 67.7886 122.858 66.8416L123.131 65.6202C124.028 65.3049 123.605 64.4068 123.688 64.0434C123.902 63.1172 124.548 62.3544 124.979 61.9292L125.421 61.7814L125.421 60.6368L124.944 60.7957C124.979 58.9884 124.349 58.2466 121.912 58.3029C120.652 57.4755 119.133 57.9813 119.008 58.0315C118.891 58.0721 118.837 58.0031 118.862 57.915C118.862 57.9138 118.936 57.7065 118.936 57.589C118.936 57.4346 118.884 57.2942 118.803 57.1773L118.803 55.913L119.797 55.9128L119.797 54.7682L118.802 54.7677L118.803 53.8338L117.667 53.8339L117.667 54.7679L116.658 54.768L116.658 55.9126L117.667 55.9124L117.666 57.1231C117.561 57.2495 117.494 57.4104 117.494 57.5887C117.494 57.7062 117.565 57.9147 117.567 57.9151C117.592 58.0023 117.54 58.0726 117.422 58.0319C117.298 57.9809 115.779 57.4757 114.515 58.3033C112.073 58.2458 111.446 58.9927 111.486 60.8139L110.954 60.6367L110.954 61.7813L111.481 61.9574C111.909 62.3883 112.533 63.1396 112.744 64.0431C112.826 64.406 112.404 65.3045 113.299 65.6205L113.526 66.6293C112.537 66.8048 110.488 67.4539 108.633 67.3631L108.796 68.4327L107.745 68.6943C107.665 68.7189 107.575 68.7427 107.47 68.7667L107.47 67.7385L107.477 67.7328L107.478 67.5742L107.47 67.1862L107.47 65.4471C108.864 65.4647 110.099 65.5988 111.46 65.7573L111.399 63.0374C109.989 63.2449 108.662 63.361 107.22 63.4633C107.379 62.1445 107.52 60.9217 107.761 59.6384C106.832 59.6991 105.92 59.6989 105.002 59.639C105.251 60.9218 105.378 62.1144 105.494 63.4279C104.156 63.3533 102.892 63.257 101.564 63.0927L101.644 65.6959C102.215 65.6105 104.66 65.5558 105.518 65.5435L105.519 69.217C104.108 69.6981 102.892 70.7075 104.028 73.4011C104.417 72.4709 104.721 71.8745 105.542 71.6061C105.543 75.87 105.866 80.5529 104.783 84.6586C106.284 84.1351 106.802 84.1096 108.335 84.6088C107.314 81.0268 107.38 77.1596 107.489 73.4613C107.635 73.4682 107.786 73.4804 107.938 73.5111C110.128 73.8031 112.397 74.6419 113 77.1162C113.584 79.4269 111.782 80.6739 110.791 82.4992C108.911 86.2701 109.617 89.39 107.866 91.2392C108.451 91.2932 109.077 91.202 109.077 91.202C107.695 93.0995 105.025 93.0995 103.031 92.5035C101.414 91.919 99.7706 89.9552 99.0725 87.6989C102.058 77.998 92.0165 71.856 84.7982 73.9787C80.9361 75.1098 73.4302 77.5672 73.1335 92.2842C72.9319 94.4366 73.2857 95.7259 72.7009 97.9216C73.3819 97.715 73.644 97.6113 74.2524 97.302C74.2528 103.402 74.2404 111.576 72.9867 114.288C73.6672 114.116 74.1915 113.782 74.544 113.473C75.0736 138.705 75.3904 157.199 73.5834 161.59C76.3135 160.702 77.5357 160.32 79.1054 158.415C79.8661 158.299 80.5897 158.196 81.2398 158.019L81.2397 127.058C80.0474 122.492 78.8863 117.912 77.7979 113.333C77.3959 111.556 77.2984 110.364 77.8154 108.588L78.3394 106.765L79.804 108.011C80.3897 108.498 80.8568 108.997 81.2398 109.495L81.24 90.29C81.2399 89.9118 81.5565 89.6084 81.9276 89.6081C82.3039 89.6082 82.6087 89.912 82.6081 90.2906L82.6085 112.237C85.7398 121.22 88.1007 130.458 90.5026 139.678L90.5021 86.3732C90.5024 85.9718 90.8056 85.6735 91.183 85.6739C91.5601 85.6735 91.8887 85.9713 91.8895 86.3729L91.889 144.877C92.029 145.473 92.1935 146.039 92.3395 146.629C93.6702 144.846 94.5048 142.925 94.985 140.053C95.8414 141.265 97.3382 142.238 99.4248 143.156C97.7214 146.099 97.4724 146.964 94.7173 148.41C96.6989 149.263 98.7254 149.414 100.465 148.302C100.441 148.424 100.415 148.532 100.374 148.63C99.8325 149.627 99.4305 150.532 98.9506 151.367C98.3482 152.419 97.8438 152.833 97.1124 153.702C95.6113 154.189 94.9238 153.433 93.2765 153.805C93.246 153.836 93.2143 153.842 93.1907 153.847C93.0753 153.563 92.9895 153.295 93.051 153.27C93.2457 153.209 93.4337 153.112 93.5135 152.911C93.696 152.924 94.0543 152.705 94.1692 152.546C94.475 152.584 94.6682 152.437 94.7647 152.206L97.0957 151.525C97.3628 151.652 97.7038 151.756 97.8122 151.543C98.5919 151.215 98.7498 150.782 98.8351 150.461C98.6099 150.255 98.0551 149.859 97.2591 150.161C97.0213 150.004 96.8152 150.399 96.779 150.564L94.4314 151.276C94.1689 151.153 93.8712 151.105 93.6705 151.275C93.4335 151.153 93.0873 151.215 92.9472 151.416C92.8507 151.367 92.5529 151.233 92.3629 151.276C88.8244 138.772 85.6854 124.783 81.3982 112.47C80.8503 110.899 80.2426 109.982 79.002 108.917C78.5517 110.504 78.6312 111.454 79.0018 113.052C81.9332 125.472 85.9469 139.708 89.1641 152.181C89.1832 152.182 88.6907 152.334 88.575 152.565C88.4036 152.485 88.0214 152.674 87.8748 152.857C87.638 152.839 87.394 152.983 87.3093 153.209L85.0656 153.897C84.7616 153.793 84.5543 153.726 84.3665 153.945C83.7646 153.999 83.2895 154.651 83.2053 154.961C83.447 155.167 84.0986 155.527 84.7489 155.24C84.9987 155.301 85.2781 155.113 85.4365 154.814L87.6377 154.157C87.8083 154.37 88.1673 154.286 88.3867 154.158C88.5749 154.292 89.0062 154.219 89.1337 154.072C89.3417 154.23 89.5716 154.249 89.8145 154.182C89.9006 154.157 89.9432 154.147 90.01 154.147C90.0404 154.249 90.1616 154.664 90.2647 155.004C88.7578 155.666 88.6042 156.317 88.9213 157.052C88.9334 157.162 88.976 157.302 89.012 157.424C88.2094 157.637 87.5838 158.622 88.0212 159.388C88.0208 159.73 88.1847 160.046 88.525 160.312L88.5506 160.3L88.5988 160.3C88.0505 160.963 87.681 162.107 89.3522 162.375C89.1219 163.767 89.9553 163.718 90.5887 163.937C90.9465 164.253 91.208 164.345 91.7923 164.515C92.6492 164.588 93.1176 164.752 93.8909 165.172C94.5406 165.336 95.0818 165.299 95.7753 165.002C96.1229 164.796 96.2554 164.587 96.3958 164.271C97.3378 163.84 97.5381 163.651 97.7212 162.587C98.6634 161.394 99.3578 158.288 99.5519 157.673C100.415 154.961 101.888 152.668 103.663 150.346C103.352 152.273 103.743 154.534 105.287 155.704C105.513 151.525 107.215 149.401 109.102 146.543C109.63 146.695 110.809 146.471 110.748 147.049C109.653 157.491 102.313 160.981 98.9077 164.041C100.184 165.196 101.838 166.29 103.237 167.574C102.811 168.224 102.459 168.528 101.948 169.161C102.91 169.739 106.893 172.215 108.03 172.925C107.611 173.728 107.141 174.239 106.571 175.126C110.998 177.967 113.267 179.069 117.779 181.695C117.839 181.664 125.151 178.155 129.809 175.461C129.382 174.884 128.927 174.197 128.453 173.466C130.977 171.977 133.075 170.571 135.009 169.313C134.499 168.735 134.195 168.388 133.659 167.712C136.08 165.961 136.273 165.809 138.147 164.357C130.484 157.162 127.809 154.876 124.865 146.66C125.717 146.368 126.549 146.081 127.322 145.803C129.651 149.062 130.806 150.395 131.78 154.857C133.36 153.294 132.991 151.749 133.111 149.596C133.191 149.658 133.245 149.718 133.306 149.785C133.306 149.785 133.276 149.767 133.264 149.761C133.249 149.734 133.226 149.716 133.207 149.704ZM133.207 149.704C133.206 149.698 133.201 149.695 133.191 149.695L133.207 149.704ZM136.043 147.875C136.073 147.942 136.08 147.974 136.072 147.99L136.019 147.875L136.043 147.875ZM122.461 61.4512C122.36 61.8887 121.658 63.686 121.658 63.686L121.647 63.6934C121.882 63.7972 122.051 64.0813 122.051 64.4177C122.051 64.8399 121.783 65.1845 121.451 65.1843C121.123 65.1841 120.854 64.8403 120.854 64.4181C120.854 64.3853 120.856 64.3553 120.858 64.324L120.845 64.3369L120.51 64.2629C120.51 64.2789 120.511 64.2964 120.511 64.3131C120.511 64.7121 120.146 65.0351 119.694 65.0349C119.243 65.0349 118.879 64.7121 118.879 64.3131C118.879 63.9196 119.235 63.6001 119.678 63.592C119.671 63.442 119.569 61.4786 118.842 61.0779C118.836 61.0731 118.547 60.7624 118.943 59.8146C118.943 59.8146 120.398 59.4686 121.033 59.7019C121.674 59.9347 122.591 60.8854 122.461 61.4512ZM107.488 72.4287L107.488 71.4244C109.386 71.4072 111.454 72.1122 112.579 72.3371L113.17 73.7844C111.624 73.2009 109.209 72.4213 107.488 72.4287ZM136.116 147.893C136.147 147.966 136.177 148.052 136.207 148.131C136.159 148.051 136.116 147.966 136.08 147.887C136.097 147.888 136.11 147.887 136.116 147.893ZM115.998 67.9638C115.998 67.9876 115.998 68.0186 116.015 68.031C116.21 68.8645 115.682 69.7033 114.836 69.8988C114.001 70.1048 113.151 69.5937 112.945 68.762C112.937 68.7301 112.927 68.7 112.927 68.6941L115.998 67.9638ZM117.586 61.0781C116.858 61.4789 116.759 63.4417 116.753 63.5927C117.196 63.6005 117.554 63.9202 117.553 64.3126C117.554 64.7117 117.187 65.0356 116.735 65.0353C116.283 65.0351 115.917 64.7114 115.917 64.3131C115.917 64.2963 115.919 64.2789 115.922 64.2621L115.587 64.337L115.572 64.3239C115.573 64.3552 115.577 64.3857 115.577 64.418C115.577 64.8402 115.307 65.1839 114.977 65.184C114.645 65.1838 114.377 64.8396 114.377 64.4178C114.377 64.081 114.548 63.7975 114.782 63.693L114.772 63.6857C114.772 63.6857 114.07 61.8884 113.968 61.4512C113.837 60.8849 114.755 59.9344 115.396 59.7019C116.032 59.4685 117.486 59.8148 117.486 59.8148C117.884 60.7628 117.596 61.073 117.586 61.0781ZM141.736 134.417C141.948 140.043 133.319 141.491 118.138 147.122C103.694 142.177 95.1126 140.985 94.851 135.585L94.8511 95.568L141.736 95.5681L141.736 134.417ZM100.794 139.709C106.595 141.58 112.367 143.565 118.138 145.522C124.616 143.57 139.614 139.746 140.53 134.43L140.53 134.417C140.581 134.096 140.629 133.42 140.61 133.08L140.581 96.5896L95.9815 96.6076L95.9816 134.564C95.9815 134.655 95.9945 134.728 95.9944 134.806C96.2548 137.312 98.5604 138.705 100.794 139.709ZM126.251 141.07C125.619 141.149 124.396 141.241 123.745 140.559C122.858 141.345 121.788 141.618 120.868 141.37L120.827 141.37C120.223 141.903 119.47 141.653 120.236 141.15C119.61 141.022 118.728 140.753 118.727 140.055C118.826 139.812 119.104 139.794 119.336 140.042L119.374 140.029C119.713 139.805 119.609 139.927 119.805 139.574C118.618 138.333 121.684 137.209 120.954 136.692C120.601 136.406 120.303 136.778 120.102 137.057C119.767 136.474 120.236 135.925 121.161 135.925C120.85 135.237 120.274 134.023 119.684 133.334C119.177 132.725 118.728 131.504 118.995 129.96C119.574 127.375 119.081 127.837 118.903 127.089C118.68 126.177 118.96 125.8 119.743 125.392C119.221 126.269 121.209 126.797 120.437 128.141C122.736 128.524 121.208 130.421 121.871 131.437C120.182 130.828 121.185 129.552 120.175 129.528C119.573 129.498 121.885 132.745 121.891 132.97C121.987 132.824 122.086 132.787 122.315 132.768C122.475 132.617 122.609 132.556 122.816 132.556C122.736 133.315 122.736 133.42 122.785 134.119C123.436 134.958 124.007 135.73 124.257 136.272C124.67 137.118 124.699 138.572 124.104 139.866C124.766 139.496 125.107 139.464 125.595 139.118C125.692 139.337 125.716 139.574 125.673 139.757C125.96 139.794 126.105 139.756 126.544 140.11C126.178 140.188 125.807 140.298 125.643 140.554C125.898 140.554 126.202 140.796 126.251 141.07ZM107.664 136.691L107.635 136.691L107.665 133.42L108.37 132.507L109.63 131.942L110.896 132.453L111.624 133.42L111.893 134.54C111.37 135.488 110.876 136.364 110.354 137.172C110.055 137.044 109.732 136.886 109.576 136.698C109.137 137.368 108.207 137.209 107.664 136.691ZM127.085 119.774L126.871 119.889L126.969 120.113L126.678 120.089L126.597 120.399L126.288 120.259L126.027 120.46L125.801 120.272L125.515 120.399L125.431 120.149L125.126 120.162L125.169 119.906L124.877 119.852L124.949 119.609L124.689 119.431L124.908 119.274L124.804 119.031L125.041 118.892L125.04 118.648L125.327 118.611L125.394 118.356L125.704 118.453L125.898 118.24L126.105 118.453L126.39 118.356L126.47 118.611L126.731 118.617L126.756 118.879L127.054 118.958L126.999 119.213L127.237 119.391L126.999 119.56L127.085 119.774ZM100.611 99.2108L100.884 99.0341L100.884 98.7365L101.181 98.7067L101.262 98.409L101.613 98.536L101.828 98.2862L102.039 98.5358L102.362 98.4089L102.447 98.7068L102.744 98.7364L102.744 99.0228L103.086 99.1198L103.012 99.4487L103.269 99.6243L103.031 99.8431L103.128 100.074L102.892 100.215L102.982 100.5L102.665 100.482L102.58 100.811L102.259 100.647L101.955 100.883L101.717 100.682L101.407 100.83L101.304 100.538L100.994 100.548L101.031 100.257L100.714 100.191L100.774 99.8927L100.489 99.6734L100.75 99.5087L100.611 99.2108ZM116.472 141.149C117.141 141.605 116.502 141.855 115.899 141.37L115.913 141.37L115.846 141.345C114.908 141.606 113.748 141.345 112.817 140.559C111.977 141.37 110.895 141.265 110.056 141.327C110.129 140.986 110.415 140.753 110.804 140.686C110.589 140.311 110.335 140.244 109.959 140.165C110.286 139.909 110.53 139.933 110.906 139.794C110.852 139.599 110.829 139.337 110.906 139.119C111.412 139.464 111.777 139.496 112.452 139.866C111.838 138.571 111.863 137.118 112.288 136.272C112.598 135.657 113.315 134.74 114.105 133.779L113.821 134.119C113.886 133.42 113.887 133.315 113.814 132.555C114.045 132.556 114.168 132.617 114.331 132.769C114.568 132.787 114.666 132.824 114.769 132.97C116.235 131.182 117.549 129.498 116.569 129.528C115.505 129.552 116.556 130.828 114.788 131.437C115.462 130.421 113.886 128.524 116.289 128.141C115.462 126.797 117.53 126.269 117.001 125.392C117.815 125.8 118.077 126.177 117.869 127.089C117.694 127.837 117.153 127.375 117.767 129.96C118.046 131.504 117.579 132.725 117.049 133.335C116.447 134.023 115.852 135.238 115.535 135.924C116.503 135.925 116.977 136.474 116.636 137.057C116.406 136.778 116.125 136.406 115.749 136.692C115 137.209 118.156 138.333 116.934 139.574C117.141 139.926 117.026 139.805 117.402 140.029L117.427 140.043C117.669 139.794 117.944 139.811 118.078 140.054C118.078 140.753 117.141 141.022 116.472 141.149ZM103.584 136.765L103.565 136.765C102.824 137.154 101.973 137.087 101.497 136.387C100.866 137.118 100.107 137.118 99.4495 136.698L99.4304 136.698L99.4306 133.396L100.324 132.294L101.564 131.961L102.892 132.409L103.585 133.444L103.584 136.765ZM134.309 119.906C134.389 120.727 132.364 120.789 132.273 119.414C132.32 118.021 134.285 118.003 134.285 118.782C133.689 118.684 133.349 118.958 133.349 119.414C133.392 119.774 133.701 120.024 134.309 119.906ZM98.5431 114.008L98.5427 104.258C98.5429 102.757 99.7283 101.334 101.414 101.68C102.781 101.971 103.415 102.623 102.781 103.96C103.645 104.483 104.252 104.709 105.475 104.922C105.652 104.574 105.932 104.15 106.212 103.821C106.04 103.864 105.963 103.864 105.792 103.893C106.18 103.51 106.638 103.408 106.722 103.036C106.778 102.818 106.517 102.379 106.328 102.253C106.163 102.295 105.963 102.277 105.792 102.277L105.792 103.14L105.275 103.14L105.275 102.063C105.116 102.149 105.014 102.264 104.941 102.428C104.545 101.784 104.832 101.419 105.287 101.224C105.275 100.805 105.287 100.506 105.275 100.098C105.062 100.098 104.795 100.13 104.496 100.191C104.497 99.9955 104.467 99.7581 104.467 99.5828C104.832 99.6242 104.917 99.6369 105.275 99.6244C105.275 99.3816 105.183 99.0587 105.141 98.822C105.408 98.8404 105.653 98.8274 105.92 98.8219C105.883 99.0771 105.793 99.3389 105.792 99.6238C106.164 99.6361 106.285 99.607 106.583 99.551C106.583 99.795 106.594 99.9583 106.582 100.13C106.357 100.098 106.011 100.098 105.792 100.075C105.792 100.343 105.816 100.865 105.816 101.103C105.919 101.073 106.011 101.054 106.096 101.055L106.107 101.047L106.115 101.047C106.413 100.422 107.502 100.257 108.188 100.409C109.132 100.628 109.035 101.711 109.873 102.178C109.6 102.253 109.569 102.319 109.386 102.21C109.483 102.683 109.722 102.787 109.842 103.17C109.617 103.127 109.6 103.127 109.434 103.097C109.654 103.408 109.843 103.767 109.916 104.046C109.679 104.016 109.654 103.997 109.466 103.998C109.617 104.265 109.831 104.709 109.855 104.965C111.077 104.891 111.648 104.776 112.372 104.337C111.905 103.072 111.826 102.301 113.504 101.765C114.768 101.54 116.514 101.839 116.514 104.574L116.514 113.758C116.532 114.5 116.636 114.865 117.037 115.285C116.406 115.132 115.918 114.895 115.299 113.746C114.92 113.716 114.567 113.478 114.002 112.469C112.889 112.128 112.793 112.098 112.793 108.528C112.682 108.844 112.568 108.844 112.213 108.983C111.796 108.917 111.648 108.698 111.509 108.485C111.413 108.748 111.321 108.857 110.992 108.893C110.853 108.814 110.748 108.759 110.555 108.552C110.896 109.112 111.667 110.328 112.213 111.162C111.849 111.058 111.747 111.039 111.37 110.948C111.996 112.061 112.116 112.298 112.927 113.583C112.986 113.709 113.037 113.661 113.163 113.661C113.626 113.709 113.748 113.417 114.027 113.685C114.027 113.685 114.021 113.709 114.02 113.716L114.027 113.709C114.294 113.618 114.623 113.746 114.538 114.226C114.434 114.081 114.362 113.996 114.112 114.025C114.112 114.025 114.112 114.068 114.106 114.092C113.705 114.226 113.771 113.965 113.291 114.068C113.626 114.47 113.996 114.354 114.052 114.774C114.052 114.829 114.044 114.865 114.002 114.883L114.021 114.962C114.216 115.163 114.168 115.431 113.985 115.668C113.881 115.132 113.704 115.23 113.661 115.126L113.626 115.108C113.614 115.126 113.546 115.132 113.468 115.116C112.902 114.671 113.291 114.555 113.037 114.208C112.945 114.171 112.927 114.154 112.865 114.226C112.683 114.81 113.151 114.877 112.683 115.303C112.616 115.315 112.579 115.309 112.531 115.303C112.604 115.504 112.232 115.303 112.213 115.839C111.782 115.516 111.893 115.266 112.093 115.193L112.081 115.175C112.063 115.14 111.996 115.175 111.972 115.126C111.996 114.877 112.396 114.64 112.586 114.226C112.586 114.154 112.586 114.154 112.477 114.117C111.954 114.299 112.233 114.483 111.623 114.555C111.583 114.531 111.557 114.5 111.558 114.494C111.479 114.665 111.229 114.469 111.21 114.883C110.944 114.664 111.077 114.184 111.37 114.184C111.413 114.184 111.303 114.123 111.37 114.05C111.54 113.856 111.796 114.014 112.232 113.794C112.329 113.746 112.281 113.709 112.281 113.709C111.796 113.009 110.993 112.085 110.609 111.363C110.589 111.739 110.493 112.11 110.329 112.25C109.94 111.484 109.769 111.228 109.234 110.382C109.143 110.535 109.179 110.486 109.035 110.577C108.93 110.565 108.827 110.462 108.742 110.444C109.167 112.499 109.35 112.943 110.408 114.664C110.158 114.865 109.385 115.096 109.059 115.285C109.18 115.523 109.326 115.698 109.484 115.935C108.864 116.306 108.528 116.47 107.611 116.781C106.723 116.507 106.419 116.355 105.531 115.936C105.701 115.681 105.84 115.418 105.932 115.175C105.312 114.865 104.996 114.725 104.29 114.409C105.866 112.353 106.023 112.111 106.6 110.449C106.517 110.487 106.449 110.511 106.314 110.577C106.285 110.51 106.164 110.316 106.107 110.256C105.653 111.082 105.566 111.094 104.959 111.77C104.812 111.576 104.758 111.502 104.758 111.271C104.6 111.429 103.889 112.098 102.562 113.417C102.562 113.417 102.538 113.497 102.624 113.527C103.031 113.746 103.328 113.601 103.476 113.765C103.499 113.831 103.5 113.867 103.481 113.886L103.427 113.886C103.676 114.014 103.889 114.403 103.652 114.591C103.638 114.184 103.371 114.354 103.31 114.215L103.31 114.208C103.298 114.226 103.293 114.244 103.237 114.251C103.031 114.244 102.259 113.685 102.258 113.966C102.447 114.354 102.862 114.573 102.886 114.81C102.862 114.864 102.642 114.81 102.745 114.883C102.886 114.963 103.061 115.223 102.642 115.491C102.624 115.053 102.345 115.139 102.302 115.049C102.296 115.023 102.278 115.066 102.259 115.041C101.905 114.981 102.154 114.518 101.972 113.965C101.924 113.88 101.905 113.886 101.808 113.928C101.517 114.251 101.936 114.378 101.358 114.786C101.261 114.816 101.218 114.81 101.177 114.786C101.152 114.95 100.964 114.786 100.866 115.345C100.659 115.102 100.581 114.841 100.83 114.634C100.883 114.579 100.793 114.591 100.763 114.483C100.835 114.092 101.213 114.184 101.517 113.794C101.074 113.709 101.133 113.91 100.75 113.764C100.476 113.717 100.391 113.794 100.287 113.965C100.178 113.497 100.524 113.357 100.794 113.449L100.805 113.454C100.794 113.449 100.794 113.443 100.794 113.443C101.091 113.162 101.195 113.448 101.674 113.411C101.809 113.411 101.838 113.417 101.924 113.32C102.277 112.961 103.743 111.216 104.108 110.803C103.821 110.913 103.652 110.881 103.323 110.796C103.662 110.316 104.175 109.259 104.625 108.431C104.625 108.413 104.466 108.747 104.199 108.826C103.918 108.748 103.827 108.65 103.694 108.388C103.5 108.698 103.403 108.68 103.086 108.893C102.781 108.789 102.623 108.698 102.447 108.432C102.296 109.83 102.143 111.144 101.218 111.69C101.006 112.499 100.726 112.907 99.783 113.32C99.6068 114.025 99.0837 114.738 98.1712 115.053C98.3532 114.671 98.4522 114.421 98.5431 114.008ZM110.608 98.9498C110.608 98.2867 113.194 98.0064 113.254 99.7092C113.151 101.371 110.609 101.126 110.609 100.342C111.413 100.775 111.954 100.191 111.978 99.7095C111.954 99.2419 111.32 98.6933 110.608 98.9498ZM99.7286 125.472C99.7704 125.502 99.833 125.569 99.875 125.612C99.875 125.612 99.7831 125.555 99.7286 125.472ZM101.033 120.75L101.018 120.758L101.006 120.758L101.031 120.746L101.033 120.75ZM99.7286 125.472C99.5825 125.343 99.4544 125.306 99.3456 125.446C99.3765 125.69 99.3454 125.757 99.2293 125.891C99.283 126.098 99.31 126.055 99.7282 126.067C99.3768 126.067 99.2831 126.116 99.186 126.286C99.3634 126.45 99.425 126.639 99.3934 126.858C99.6801 127.022 100.307 126.706 100.557 126.45C100.61 126.572 100.61 126.719 100.557 126.869C101.073 126.736 101.462 126.487 101.564 126.335C101.613 126.486 101.516 126.596 101.541 126.827C101.838 126.736 102.015 126.705 102.216 126.469C102.162 126.639 102.143 126.719 102.095 126.913C102.484 126.816 102.58 126.797 102.811 126.469C102.776 126.706 102.8 126.706 102.811 126.869C103.261 126.657 103.328 126.676 103.603 126.335C103.53 126.615 103.542 126.639 103.56 126.858C103.969 126.639 104.108 126.547 104.235 126.202C104.29 126.335 104.272 126.45 104.315 126.657C104.551 126.523 104.697 126.389 104.891 126.116C104.917 126.236 104.795 126.39 104.794 126.56C105.11 126.486 105.281 126.39 105.427 126.169C105.792 127.406 107.416 127.405 107.671 128.111L107.671 128.791L105.665 128.791L105.665 127.856H103.585L103.585 128.816L101.565 128.815L101.565 127.855L99.4246 127.856L99.4245 128.815L97.1251 128.815L97.1498 117.571L118.113 117.571L118.157 117.498L118.114 97.9398L139.485 97.9396L139.509 117.523L118.85 117.547L118.856 117.571C119.994 121.567 121.057 124.923 122.135 127.751L128.885 127.751L128.884 126.676C128.55 127.15 128.058 127.059 127.802 126.548C127.388 126.949 126.937 126.858 126.775 126.335C126.391 126.736 125.838 126.676 125.691 126.067C125.491 126.736 125.15 127.168 124.305 127.118C123.502 127.357 123.272 127.327 123.069 127.15C122.437 127.363 122.255 127.363 122.013 127.252L123.52 122.235C123.801 121.312 124.397 120.867 125.636 121.074C126.726 121.262 126.677 122.345 126.434 123.063C127.249 123.215 127.802 123.251 128.671 123.282C128.715 123.282 128.752 123.282 128.769 123.27C128.726 123.258 128.69 123.251 128.642 123.25C129.031 122.928 129.086 122.776 129.267 122.424L128.873 122.424C129.28 122.084 129.366 121.969 129.523 121.634C129.213 121.834 128.252 122.424 127.887 121.823C127.899 121.731 128.927 121.652 129.018 121.433C128.976 121.397 128.994 121.348 128.976 121.306C128.495 121.147 128.155 121.233 127.785 121.378C127.645 120.789 127.971 120.551 129.073 120.563C131.39 119.876 130.856 120.686 131.567 121.834C131.439 121.835 131.256 121.81 131.122 121.81C131.306 122.157 131.373 122.273 131.647 122.57C131.438 122.516 131.293 122.48 131.154 122.48C131.293 122.826 131.372 122.929 131.567 123.215C131.543 123.215 131.505 123.221 131.446 123.251C131.48 123.251 131.505 123.258 131.543 123.27C132.175 123.124 132.564 123.057 132.991 122.893C132.661 122.194 132.607 121.311 133.799 121.001C134.632 120.806 135.308 121.19 135.593 121.75L138.324 127.168C138.233 127.362 137.978 127.363 137.12 127.15C136.828 127.302 136.662 127.327 135.994 127.059C135.392 127.168 135.022 127.059 134.523 125.976C134.444 126.513 134.098 126.638 133.586 126.225C133.465 126.797 133.02 126.888 132.636 126.39C132.528 126.937 132.126 127.059 131.671 126.676L131.779 127.751L139.467 127.758L139.467 129.351L139.498 129.351L139.498 133.17C139.418 137.646 132.703 139.598 129.134 140.973C125.29 137.032 121.958 131.029 118.138 117.652C116.866 122.096 115.674 125.727 114.513 128.731L113.57 128.815L113.57 127.856L112.969 127.856C113.339 127.04 113.248 126.706 113.382 126.025C113.468 125.604 113.886 125.648 113.924 125.927C114.252 125.532 113.771 125.033 113.285 125.472C113.114 125.137 113.108 125.065 113.236 124.748C113.43 124.578 113.832 124.596 113.844 124.942C114.282 124.662 113.68 123.514 112.889 124.449C112.72 124.231 112.658 124.085 112.658 123.892C112.927 123.58 113.17 123.635 113.211 123.926C113.657 123.58 112.927 122.852 112.397 123.446C111.905 122.57 111.546 120.466 112.787 120.18C113.504 120.034 113.911 120.302 114.251 120.789C114.295 120.989 114.495 121.348 114.117 121.487C114.192 121.634 114.294 121.701 114.458 121.75C113.924 122.12 114.725 123.002 114.726 123.446C114.915 123.191 114.987 123.038 114.915 122.801C115.012 122.905 115.001 122.965 115.041 123.117C115.286 122.801 115.078 122.57 115 122.358C115.122 122.467 115.152 122.546 115.249 122.655C115.377 122.047 115.291 121.945 115.121 121.731C115.304 121.701 115.334 121.567 115.438 121.433C114.854 121.378 114.538 120.09 113.771 119.803C111.583 119.152 110.998 121.19 111.613 123.002C111.863 123.775 112.403 124.971 112.616 125.727C112.75 126.202 112.744 126.858 112.329 127.856L111.624 127.856L111.623 128.816L110.67 128.815C109.179 127.514 108.729 126.226 107.823 125.228C108.121 125.422 108.536 125.727 109.077 125.757C108.864 125.422 108.633 125.289 108.633 124.881C109.102 125.392 109.794 125.386 110.196 125.265C109.684 124.863 109.35 124.608 109.326 123.701C109.758 124.049 109.916 124.231 110.195 124.548C110.633 123.72 110.379 123.288 109.976 122.717C110.336 122.984 110.269 122.832 110.67 122.924C110.53 122.559 110.608 122.515 110.257 122.194C110.608 122.334 110.463 122.194 110.748 122.195C110.633 121.944 110.719 121.786 110.269 121.524C110.578 121.524 110.578 121.378 110.719 121.233C109.684 120.916 110.305 120.539 109.167 120.15C109.509 119.632 108.742 119.286 108.481 119.803C108.285 119.718 108.285 119.652 108.079 119.62C108.176 118.885 107.209 118.958 107.33 119.62C106.802 119.774 106.638 119.803 106.242 120.009C106.188 120.138 106.18 120.241 106.187 120.399C105.72 120.655 105.542 120.747 105.002 120.916C104.783 120.916 104.74 121.111 104.996 121.111C104.995 121.233 105.063 121.701 105.11 121.913C105.116 122.066 105.214 122.047 105.233 121.926C105.233 121.87 105.628 121.567 105.78 121.554C105.793 121.396 105.866 121.397 105.877 121.554C106.005 121.603 106.097 121.73 106.089 122.194C104.417 122.047 104.192 122.047 104.065 121.731C103.985 121.348 103.719 121.433 103.918 121.834C103.985 122.047 104.066 122.194 106.005 122.344C105.84 122.503 105.653 122.546 105.257 122.57C105.257 122.394 105.166 122.394 105.159 122.57C105.116 122.57 105.073 122.637 105.074 122.765C104.996 122.851 104.941 122.953 104.941 122.953C104.551 122.905 104.289 122.692 103.652 122.765C102.94 121.823 101.974 122.344 101.033 120.75L101.304 120.613L101.645 121.233L101.997 121.056L101.645 120.442C102.928 119.905 103.743 119.652 105.299 119.608C105.781 119.103 106.04 118.898 106.497 118.386C104.392 118.24 103.165 118.922 101.449 120.053L101.414 120.059L101.031 119.391L100.69 119.56L100.907 119.937C100.726 119.718 100.415 119.536 100.063 119.718C99.6559 119.718 99.4541 119.773 99.3098 120.077C98.811 120.138 98.7988 121.032 99.1862 121.19L99.2112 121.178L99.2112 121.19L98.9998 121.305L99.2055 121.634L99.6796 121.396C99.6867 121.628 99.7283 121.725 99.9045 121.853C100.002 121.78 100.112 121.701 100.227 121.603C100.276 121.926 100.307 122.157 100.465 122.503C100.58 122.393 100.659 122.334 100.75 122.236C100.762 122.655 100.793 122.8 100.883 123.13C101.017 123.002 101.152 122.881 101.261 122.801C101.213 123.227 101.213 123.514 101.449 123.72C101.54 123.568 101.541 123.452 101.589 123.288C101.784 123.476 101.997 123.72 102.362 123.878C102.38 123.951 102.507 124.066 102.551 124.139C102.332 124.346 102.197 124.389 101.888 124.432C102.215 124.675 102.38 124.674 102.8 124.559C102.624 124.748 102.538 124.942 102.296 125.033C102.599 125.099 102.77 125.099 103.049 125.1C102.313 125.113 101.905 125.228 101.152 125.812C101.23 125.496 101.407 125.113 101.098 125.192C100.95 125.258 100.824 125.229 100.677 125.1C100.5 125.099 100.524 125.319 100.524 125.569C100.501 125.192 100.415 124.863 100.142 124.972C100.064 125.137 99.9536 125.228 99.6554 125.192C99.5826 125.264 99.6557 125.386 99.7286 125.472ZM121.699 112.794C120.803 111.87 120.825 112.165 120.516 112.165C120.242 112.274 120.346 112.535 120.223 112.834C120.14 113.101 119.883 113.199 119.993 113.46C120.223 113.709 120.183 113.91 121.477 113.551C120.158 113.942 120.333 114.015 120.29 114.306C120.346 114.518 120.619 114.574 120.893 114.774C121.112 114.982 121.149 115.231 121.477 115.23C121.872 115.126 122.097 115.139 122.111 113.995C122.111 115.223 122.359 115.097 122.657 115.223C123.003 115.223 122.961 115.066 123.332 114.786C123.686 114.591 123.801 114.615 123.88 114.33C123.843 114.102 124.039 113.902 122.885 113.569C123.971 113.866 124.053 113.707 124.256 113.498C124.421 113.217 124.019 113.022 123.952 112.755C123.879 112.481 123.916 112.298 123.71 112.11C123.418 112.086 123.295 111.867 122.475 112.803C123.332 111.811 123.12 111.794 122.918 111.514C122.609 111.326 122.317 111.502 122.03 111.483C121.587 111.484 121.564 111.478 121.276 111.623C121.191 111.793 120.854 111.92 121.699 112.794ZM127.699 133.584L127.195 133.584L127.195 134.551L127.698 134.551L127.699 135.172L127.195 135.172L127.195 136.388L128.202 136.388L128.202 135.676L128.672 135.676L128.672 136.388L129.608 136.388L129.608 135.172L129.152 135.172L129.152 134.551L129.609 134.551L129.609 133.584L129.152 133.584L129.152 134.125L128.672 134.125L128.672 133.584L128.202 133.584L128.203 134.125L127.699 134.124L127.699 133.584ZM133.537 132.216L134.011 132.216L134.011 132.902L134.941 132.902L134.941 131.675L134.498 131.675L134.499 131.066H134.941L134.941 130.118L134.499 130.118L134.498 130.646L134.012 130.647L134.012 130.118L133.537 130.118L133.538 130.646L133.038 130.647L133.039 130.118L132.539 130.118L132.539 131.066L133.038 131.066L133.038 131.675L132.54 131.675L132.539 132.902L133.537 132.903L133.537 132.216ZM126.415 132.216L126.896 132.216L126.896 132.902L127.826 132.903L127.826 131.675L127.37 131.675L127.37 131.066L127.826 131.066L127.827 130.117L127.37 130.117L127.37 130.646L126.897 130.647L126.896 130.118L126.415 130.118L126.415 130.647L125.922 130.647L125.922 130.118L125.418 130.118L125.418 131.066L125.922 131.066L125.922 131.675L125.418 131.675L125.418 132.903L126.415 132.903L126.415 132.216ZM123.242 108.115C123.843 108.115 124.117 108.024 125.108 107.714C124.909 108.024 124.992 108.412 125.187 108.632C125.188 109.021 125.249 109.258 125.503 109.567C125.491 109.848 125.522 110.036 125.709 110.195C125.849 111.229 126.105 111.763 126.799 113.035C126.293 113.217 125.849 113.575 125.849 114.234C125.849 115.151 126.835 115.515 127.54 115.516C127.894 116.081 128.227 116.246 128.696 116.246C129.176 116.247 129.542 116.081 129.894 115.515C130.594 115.515 131.597 115.15 131.597 114.233C131.596 113.575 131.135 113.217 130.631 113.034C131.305 111.763 131.597 111.229 131.712 110.194C131.944 110.037 131.974 109.848 131.956 109.567C132.175 109.258 132.272 109.02 132.272 108.632C132.436 108.412 132.539 108.023 132.321 107.713C133.293 108.024 133.586 108.114 134.225 108.114C136.148 108.096 136.59 107.276 137.198 106.375C135.464 106.765 135.033 105.268 133.537 105.268C134.146 105.25 134.723 104.132 134.724 102.538C134.723 100.677 133.05 98.4094 131.122 98.4092C132.54 99.0775 133.039 100.481 132.99 101.703C132.923 103.317 132.272 103.633 131.646 104.047C130.782 103.554 130.339 103.717 129.608 104.533C129.463 104.016 129.103 103.907 128.696 103.907C128.308 103.907 127.96 104.016 127.809 104.533C127.104 103.717 126.659 103.554 125.758 104.046C125.187 103.633 124.505 103.317 124.458 101.703C124.396 100.482 124.908 99.0778 126.324 98.4092C124.396 98.409 122.737 100.677 122.736 102.537C122.736 104.132 123.308 105.25 123.922 105.269C122.437 105.269 122.006 106.764 120.273 106.375C120.85 107.276 121.337 108.096 123.242 108.115ZM129.974 132.216L130.466 132.216L130.466 132.903L131.384 132.903L131.384 131.675L130.947 131.675L130.947 131.066L131.384 131.066L131.384 130.118L130.947 130.117L130.947 130.647L130.466 130.646L130.466 130.118L129.974 130.118L129.974 130.647L129.481 130.646L129.481 130.118L128.988 130.118L128.989 131.066L129.481 131.066L129.481 131.675L128.989 131.675L128.989 132.902L129.974 132.902L129.974 132.216ZM131.256 133.584L130.757 133.584L130.758 134.551L131.256 134.551L131.256 135.172L130.758 135.172L130.758 136.388L131.749 136.388L131.75 135.676L132.23 135.676L132.229 136.388L133.161 136.388L133.16 135.173L132.717 135.172L132.716 134.551L133.16 134.551L133.16 133.584L132.717 133.584L132.717 134.125L132.229 134.125L132.23 133.583L131.75 133.584L131.749 134.125L131.257 134.125L131.256 133.584ZM137.29 112.462C137.228 111.113 133.543 111.015 133.543 113.679C133.598 116.24 137.29 116.051 137.362 114.555C136.383 115.194 135.209 114.47 135.209 113.679C135.21 112.851 136.322 112.062 137.29 112.462ZM134.82 133.583L134.321 133.584L134.322 134.551L134.821 134.551L134.82 135.172L134.322 135.172L134.321 136.388L135.325 136.388L135.326 135.676L135.794 135.676L135.795 136.388L136.736 136.388L136.737 135.172L136.292 135.172L136.292 134.551H136.737L136.737 133.584H136.292L136.292 134.125L135.794 134.125L135.794 133.584L135.326 133.584L135.325 134.125L134.82 134.125L134.82 133.583ZM127.431 102.952L128.69 102.295L130.04 102.969L129.864 101.564L130.867 100.506L129.462 100.257L128.69 98.8218L128.02 100.257L126.471 100.506L127.645 101.504L127.431 102.952ZM137.096 132.216L137.576 132.216L137.575 132.902L138.501 132.902L138.501 131.675L138.069 131.674L138.069 131.066L138.501 131.066L138.5 130.118L138.069 130.118L138.069 130.646L137.575 130.647L137.576 130.118L137.096 130.117L137.095 130.646L136.597 130.646L136.597 130.118L136.097 130.118L136.097 131.066L136.596 131.066L136.597 131.675L136.097 131.675L136.097 132.903L137.096 132.903L137.096 132.216ZM208.117 113.762C205.747 113.762 203.825 115.672 203.824 118.056C203.824 120.421 205.747 122.35 208.118 122.35C210.49 122.35 212.406 120.42 212.406 118.056C212.406 115.672 210.489 113.762 208.117 113.762ZM66.3401 51.0798L57.0239 41.422C56.4098 40.7718 56.2936 40.4553 56.8421 39.756L57.9543 38.2356L56.5127 36.7383L50.2865 42.7294L51.7389 44.2265L53.2956 43.1623C54.0252 42.6564 54.3357 42.7782 54.9557 43.4046L63.6824 52.4653C65.7376 54.6003 66.4257 56.0233 66.3701 57.1484C66.3157 58.4808 65.4575 59.8362 64.4608 60.8164C62.0636 63.1017 58.8479 64.4045 55.4123 60.8398L46.4838 51.5846C45.8633 50.9515 45.7416 50.6298 46.2773 49.9171L47.403 48.3977L45.9672 46.9015L39.6486 52.9942L41.0776 54.4979L42.6343 53.4398C43.3644 52.9166 43.7054 53.0618 44.3069 53.6827L53.6058 63.352C57.4007 67.2617 61.5589 67.5004 65.6226 63.5948C68.7779 60.5426 70.6643 55.5562 66.3401 51.0798ZM182.684 76.5735L190.377 91.7524L195.827 88.76L194.774 86.6575L192.324 87.6665C191.496 87.9939 191.187 87.6915 190.803 86.9355L187.635 80.6898L204.597 72.1032C205.376 71.7029 205.729 71.6895 206.246 72.4021L207.474 74.1159L209.31 73.1741L205.241 65.1407L203.392 66.0949L203.958 67.8831C204.225 68.7407 204.013 69.0081 203.229 69.4024L187.312 77.4736C186.529 77.8753 186.182 77.8864 185.671 77.1689L184.521 75.6555L182.684 76.5735ZM185.556 195.151L184.234 193.485L182.513 194.422C181.729 194.865 181.419 194.695 180.853 193.996L169.426 179.588C168.867 178.889 168.763 178.55 169.402 177.879L170.691 176.421L169.383 174.749L162.292 180.379L163.611 182.052L165.327 181.104C166.111 180.672 166.428 180.817 167.004 181.547L178.409 195.928C178.981 196.628 179.072 196.982 178.464 197.657L177.144 199.098L178.464 200.77L185.556 195.151ZM66.1083 207.143L74.1004 210.313L74.8969 208.331L73.2123 207.43C72.464 207.017 72.4019 206.59 72.6348 205.885L80.2848 188.99L79.2631 212.349L81.6472 213.304L96.2255 195.315L90.6057 213.08C90.3508 213.724 89.9799 213.967 89.2007 213.766L87.3089 213.249L86.5246 215.251L95.1131 218.656L95.915 216.661L94.0535 215.597C93.2695 215.111 93.3061 214.831 93.5734 213.949L99.1267 196.009C99.4298 195.272 99.783 195.145 100.61 195.352L102.563 195.898L103.36 193.905L96.2309 191.07L82.4558 208.408L83.6176 186.084L76.8974 183.408L76.1129 185.378L77.7787 186.278C78.4845 186.68 78.6374 187.051 78.3993 187.689L70.2745 204.693C69.8675 205.52 69.6965 205.763 68.7964 205.556L66.9058 205.149L66.1083 207.143ZM151.053 44.8034L158.723 30.7495L160.291 54.0962L163.002 55.5801L173.374 36.6179C173.792 35.8455 174.109 35.5422 174.924 35.8697L176.646 36.5561L177.624 34.7384L170.016 30.5845L169.018 32.4043L170.527 33.4616C171.237 33.9849 171.14 34.398 170.709 35.1826L163.021 49.2677L161.421 25.8836L156.235 23.0552L155.243 24.8803L156.727 25.9322C157.456 26.4485 157.379 26.8816 156.953 27.653L148.383 43.3612C147.958 44.1281 147.69 44.3414 146.85 44.0437L145.063 43.4356L144.076 45.2474L151.771 49.4561L152.774 47.6367L151.297 46.4706C150.579 45.9226 150.627 45.5748 151.053 44.8034ZM215.015 151.656L213.026 150.877L212.01 152.531C211.549 153.322 211.183 153.341 210.35 152.999L193.283 146.184C192.44 145.848 192.189 145.587 192.397 144.699L192.803 142.801L190.828 142.017L187.464 150.408L189.453 151.199L190.463 149.539C190.937 148.754 191.295 148.755 192.123 149.078L209.189 155.894C210.034 156.217 210.277 156.473 210.076 157.372L209.663 159.277L211.639 160.067L215.015 151.656Z" fill="#004990"/>
</svg>
