<svg width="235" height="235" viewBox="0 0 235 235" fill="none" xmlns="http://www.w3.org/2000/svg">
<path d="M117.5 0C182.393 0 235 52.6065 235 117.5C235 182.393 182.393 235 117.5 235C52.6065 235 0 182.393 0 117.5C0 52.6065 52.6065 0 117.5 0ZM212.725 53.8008C177.633 1.35485 106.246 -12.8099 53.792 22.2695C1.3543 57.366 -12.8093 128.738 22.2705 181.191C57.3566 233.656 128.742 247.809 181.192 212.724C233.64 177.645 247.817 106.26 212.725 53.8008ZM55.2393 24.373C106.3 -9.7685 175.784 4.01804 209.921 55.0664C244.077 106.115 230.29 175.598 179.257 209.727C128.195 243.888 58.7042 230.098 24.5635 179.05C-9.57929 128.003 4.20036 58.5148 55.2393 24.373ZM207.41 56.7383C174.112 6.94872 106.714 -6.41727 56.9238 26.8848C7.13258 60.1939 -6.23475 127.564 27.0869 177.378C60.3714 227.169 127.77 240.529 177.549 207.226C227.365 173.93 240.725 106.533 207.41 56.7383ZM126.632 214.993C127.069 216.269 127.453 216.482 128.383 216.651L129.782 216.878L129.795 219.019L120.507 219.086L120.501 217.03L122.484 216.688C123.128 216.573 123.421 216.289 123.421 215.801C123.421 215.594 123.373 215.375 123.257 215.096L121.639 210.504L112.036 210.576L110.558 215.084C110.454 215.369 110.424 215.618 110.424 215.838C110.424 216.391 110.753 216.665 111.403 216.768L113.367 217.085L113.379 219.146L104.7 219.201L104.676 217.065L106.062 216.8C106.963 216.628 107.311 216.404 107.742 215.119L115.351 193.087L118.726 193.05L126.632 214.993ZM82.6172 185.084L81.4561 207.408L95.2305 190.069L102.359 192.905L101.562 194.898L99.6104 194.352C98.7832 194.145 98.4301 194.272 98.127 195.009L92.5732 212.949C92.3059 213.831 92.2698 214.111 93.0537 214.597L94.915 215.661L94.1133 217.655L85.5244 214.251L86.3086 212.249L88.2012 212.767C88.98 212.967 89.3507 212.723 89.6055 212.079L95.2256 194.314L80.6475 212.305L78.2627 211.349L79.2852 187.99L71.6348 204.885C71.4018 205.59 71.464 206.016 72.2119 206.43L73.8965 207.331L73.1006 209.312L65.1084 206.143L65.9062 204.149L67.7959 204.556C68.696 204.763 68.8675 204.52 69.2744 203.692L77.3994 186.689C77.6375 186.051 77.4841 185.679 76.7783 185.277L75.1133 184.378L75.8975 182.408L82.6172 185.084ZM158.136 185.084L156.456 185.965C155.665 186.396 155.702 186.859 156.012 187.705L164.126 208.405L161.188 209.568L141.696 195.378L147.717 210.729C148.064 211.568 148.301 211.817 149.201 211.629L151.087 211.232L151.884 213.229L143.466 216.507L142.682 214.53L144.349 213.527C145.138 213.053 145.163 212.706 144.821 211.866L138.115 194.723C137.774 193.884 137.483 193.53 136.6 193.762L134.764 194.236L133.983 192.268L139.64 190.04L159.15 204.222L153.125 188.836C152.796 187.991 152.535 187.625 151.652 187.856L149.822 188.349L149.037 186.361L157.362 183.095L158.136 185.084ZM116.336 197.812L112.886 208.048L120.714 207.981L117.132 197.807L116.719 196.188L116.336 197.812ZM169.691 175.421L168.402 176.879C167.763 177.549 167.867 177.889 168.426 178.588L179.854 192.996C180.419 193.695 180.729 193.865 181.513 193.422L183.234 192.484L184.556 194.151L177.464 199.77L176.144 198.098L177.464 196.656C178.071 195.981 177.98 195.628 177.408 194.928L166.004 180.547C165.428 179.817 165.111 179.672 164.327 180.104L162.611 181.052L161.292 179.379L168.383 173.749L169.691 175.421ZM122.502 192.856L121.135 193.828L116.975 190.654L112.923 193.883L111.501 192.916L115.636 188.836L118.343 188.812L122.502 192.856ZM46.3535 172.179C51.1826 167.307 58.2137 165.094 64.5127 171.347C69.9375 176.74 68.0825 182.798 62.6035 188.307C57.7584 193.184 50.738 195.386 44.4561 189.158C39.0071 183.752 40.8747 177.719 46.3535 172.179ZM56.4375 169.922C54.5154 170.062 50.9762 172.502 48.6777 174.812C44.0981 179.446 43.4043 184.347 47.2656 188.166C48.9261 189.819 50.6043 190.715 52.5215 190.575C54.4364 190.441 57.9883 187.99 60.2676 185.687C64.848 181.052 65.5401 176.131 61.6904 172.324C60.018 170.671 58.3653 169.795 56.4375 169.922ZM78.1162 58.5508C110.411 36.9623 154.146 45.6278 175.735 77.9316C197.356 110.231 188.665 153.946 156.379 175.548C124.065 197.167 80.3549 188.483 58.7529 156.189C37.1458 123.879 45.8186 80.1532 78.1162 58.5508ZM189.049 158.708L187.656 160.563L185.509 159.236C184.737 158.745 184.354 159.001 183.843 159.7L178.85 166.444L185.655 171.503L190.704 164.716L192.826 166.286L187.783 173.079L195.495 178.819L200.537 172.057C201.054 171.362 201.188 170.926 200.507 170.342L198.457 168.542L199.905 166.583L205.165 170.245L194.006 185.271L192.254 183.977L193.123 182.25C193.556 181.435 193.385 181.124 192.656 180.59L177.828 169.569C177.098 169.028 176.667 168.882 176.034 169.539L174.726 170.95L173.098 169.746L184.184 154.815L189.049 158.708ZM173.169 79.6543C152.508 48.7669 110.722 40.4903 79.8506 61.1367C48.9634 81.7885 40.668 123.575 61.3135 154.463C81.9855 185.332 123.774 193.639 154.65 172.968C185.527 152.322 193.817 110.519 173.169 79.6543ZM117.803 52.834V53.7676L118.797 53.7686V54.9131H117.803V56.1777C117.884 56.2945 117.936 56.4346 117.936 56.5889C117.935 56.7064 117.863 56.9139 117.862 56.915C117.838 57.0032 117.891 57.0718 118.008 57.0312C118.134 56.9808 119.652 56.4756 120.912 57.3027C123.349 57.2465 123.98 57.9887 123.944 59.7959L124.421 59.6367V60.7812L123.979 60.9287C123.548 61.3538 122.902 62.117 122.688 63.043C122.605 63.4063 123.028 64.3047 122.132 64.6201L121.857 65.8418C123.516 66.7888 123.831 68.8083 124.691 70.0908C125.597 71.4716 126.462 72.2184 127.726 72.6504C126.863 73.1359 126.195 73.2038 125.251 72.7852C126.157 73.9394 126.37 74.5667 126.396 76.5293C126.815 77.4004 127.027 77.9671 126.862 79.3467C126.194 78.641 126.171 78.7509 125.251 78.2881C126.37 79.6248 127.118 82.6486 126.595 85.123C126.219 84.2546 125.841 83.3109 124.758 82.3857C125.841 84.2245 126.129 86.3283 126.578 88.0361C126.858 89.0405 127.178 89.9286 127.763 90.5371C127.125 90.5246 126.753 90.3538 126.249 90.0254C127.38 92.2332 130.093 92.0688 132.021 91.4004C134.367 90.3362 135.755 88.4382 136.309 85.9209C134.009 77.9045 140.661 70.346 150.217 72.5283C155.575 73.9886 162.417 77.503 162.417 90.6387C162.417 92.7499 162.326 93.6081 162.673 97.3477C162.235 97.1588 161.37 96.4604 160.933 96.2842C160.836 102.893 160.496 108.817 161.887 113.043C161.681 113.043 160.507 112.345 160.306 112.345C160.404 132.073 159.315 155.664 162.059 158.904C159.778 158.387 158.786 158.005 157.108 156.563C156.275 156.564 155.302 156.223 154.354 155.627L154.353 128.625C154.444 128.352 154.505 128.041 154.469 127.713C155.349 126.716 156.25 125.706 157.095 124.69C157.654 124.003 158.47 123.031 158.738 122.191L158.744 122.148L158.756 122.105C158.945 121.235 158.681 120.16 158.458 119.302C158.159 118.176 157.801 117.07 157.491 115.939C157.545 115.666 157.564 115.397 157.51 115.112C157.454 114.783 157.338 114.504 157.138 114.267C157.175 114.132 157.187 113.998 157.188 113.854C157.187 112.746 156.256 111.851 155.138 111.852C154.857 111.851 154.597 111.906 154.354 112.004L154.353 89.6904C154.353 89.3018 154.03 88.9982 153.672 88.998C153.295 88.9985 152.983 89.3023 152.983 89.6904V113.299C152.334 113.5 151.835 114.011 151.519 114.663C150.728 115.507 149.901 116.286 149.062 117.083C148.435 117.684 147.572 118.507 147.262 119.314L147.183 119.461L147.182 119.606C147.079 120.397 147.127 121.321 147.182 122.117C147.261 123.309 147.419 124.513 147.614 125.706C147.165 126.174 146.976 126.788 147.073 127.415C146.684 127.938 146.629 128.625 146.952 129.27C146.933 129.737 147.035 130.153 147.261 130.522C146.579 133.259 145.851 135.966 145.084 138.659V85.7676C145.083 85.373 144.781 85.0685 144.403 85.0684C144.032 85.0687 143.722 85.3732 143.722 85.7686V143.33C143.54 143.878 143.387 144.431 143.204 144.978C141.235 143.543 140.358 141.822 139.774 138.654C138.728 139.955 137.233 140.86 134.964 141.913C136.757 144.673 137.652 145.336 140.358 146.875C137.951 147.326 137.147 147.448 135.146 146.899C135.961 148.505 136.734 149.745 138.048 151.656C139.519 152.216 141.77 151.839 142.299 151.965C145.011 143.647 146.853 137.308 148.611 130.2C148.234 129.921 148.076 129.568 148.223 128.989C147.827 128.528 147.857 128.041 148.55 127.834C148.094 127.226 148.18 126.581 148.952 126.235C148.35 122.792 148.296 120.634 148.405 119.759C148.783 118.804 150.686 117.356 152.565 115.324C152.748 114.874 153.142 114.266 153.885 114.431C154.073 114.327 154.243 114.23 154.401 114.193C154.353 114.102 154.315 113.986 154.315 113.853C154.316 113.408 154.681 113.05 155.138 113.05C155.6 113.049 155.953 113.408 155.953 113.854C155.953 114.15 155.787 114.419 155.538 114.559C155.599 114.601 155.643 114.681 155.704 114.746C156.5 114.941 156.317 115.665 156.237 115.976C157.011 118.833 157.795 120.846 157.564 121.838C157.278 122.775 155.569 124.605 153.136 127.367C153.342 127.987 153.3 128.473 152.509 128.808C152.948 129.318 152.801 129.775 152.193 129.945C152.066 130.42 151.926 130.875 151.088 130.819C149.148 138.215 147.182 146.432 145.29 152.83C145.314 152.837 145.328 152.837 145.352 152.837C146.343 153.712 147.005 154.404 147.006 155.748C147.639 156.466 147.748 157.397 147.249 158.279C147.303 158.315 147.352 158.363 147.419 158.388C148.502 159.172 147.37 159.824 146.55 160.395C146.915 160.675 146.982 161.374 146.55 161.751C146.229 161.909 145.814 162.038 145.279 162.317C144.61 162.439 144.61 162.499 144.032 162.584C143.448 162.718 143.09 162.689 142.512 163.162C141.733 163.327 140.31 163.302 139.78 162.736C139.641 162.547 139.591 162.438 139.537 162.171C138.857 161.837 138.059 160.973 138.06 160.048C137.392 159.295 137.057 158.797 136.85 158.261L136.795 158.26C136.491 157.542 136.472 156.861 136.308 155.548C134.939 153.2 133.898 151.595 132.135 148.657C132.172 148.694 132.191 148.706 132.209 148.725C132.209 148.716 132.208 148.709 132.207 148.704C132.226 148.716 132.249 148.734 132.264 148.762C132.276 148.767 132.307 148.785 132.307 148.785C132.245 148.718 132.191 148.658 132.111 148.597C131.991 150.75 132.36 152.295 130.779 153.857C129.806 149.395 128.651 148.062 126.321 144.803C125.549 145.081 124.717 145.367 123.865 145.659C126.809 153.876 129.484 156.162 137.147 163.356C135.273 164.809 135.08 164.961 132.659 166.712C133.195 167.388 133.499 167.735 134.009 168.312C132.075 169.571 129.977 170.976 127.452 172.466C127.927 173.196 128.382 173.884 128.809 174.461C124.159 177.151 116.864 180.652 116.779 180.695C112.267 178.069 109.998 176.967 105.571 174.126C106.141 173.239 106.611 172.728 107.03 171.925C105.893 171.215 101.909 168.739 100.948 168.16C101.459 167.528 101.811 167.224 102.237 166.574C100.838 165.291 99.1844 164.196 97.9082 163.041C101.314 159.982 108.653 156.491 109.748 146.049C109.808 145.471 108.629 145.695 108.102 145.543C106.215 148.402 104.513 150.526 104.287 154.704C102.743 153.535 102.352 151.273 102.663 149.346C100.888 151.668 99.415 153.961 98.5518 156.674C98.3575 157.289 97.6627 160.395 96.7207 161.587C96.5376 162.651 96.3374 162.84 95.3955 163.271C95.2551 163.587 95.1228 163.795 94.7754 164.002C94.0819 164.299 93.5403 164.337 92.8906 164.172C92.1174 163.753 91.6489 163.587 90.792 163.515C90.208 163.345 89.9465 163.253 89.5889 162.938C88.9555 162.718 88.1224 162.767 88.3525 161.375C86.6816 161.107 87.0504 159.963 87.5986 159.301L87.5508 159.3L87.5254 159.312C87.1851 159.046 87.0211 158.729 87.0215 158.388C86.5841 157.622 87.2092 156.636 88.0117 156.424C87.9758 156.302 87.933 156.162 87.9209 156.052C87.6039 155.317 87.7581 154.666 89.2646 154.004C89.1615 153.664 89.0402 153.249 89.0098 153.146C88.9431 153.146 88.9004 153.157 88.8145 153.182C88.5716 153.249 88.3417 153.23 88.1338 153.072C88.006 153.219 87.5748 153.291 87.3867 153.157C87.1674 153.286 86.8084 153.37 86.6377 153.157L84.4365 153.814C84.2782 154.113 83.9987 154.301 83.749 154.24C83.0987 154.527 82.4468 154.168 82.2051 153.961C82.2893 153.651 82.7645 153 83.3662 152.945C83.554 152.726 83.7615 152.793 84.0654 152.896L86.3096 152.209C86.3944 151.983 86.6382 151.839 86.875 151.856C87.0217 151.674 87.4039 151.485 87.5752 151.565C87.6911 151.334 88.1831 151.182 88.1641 151.182C84.9469 138.709 80.9334 124.471 78.002 112.052C77.6315 110.453 77.5517 109.504 78.002 107.917C79.2425 108.981 79.8506 109.899 80.3984 111.47C84.6856 123.783 87.8248 137.772 91.3633 150.276C91.5532 150.233 91.8509 150.367 91.9473 150.416C92.0874 150.215 92.4339 150.153 92.6709 150.275C92.8717 150.106 93.1693 150.153 93.4316 150.276L95.7793 149.563C95.8158 149.399 96.0213 149.004 96.2588 149.161C97.0548 148.859 97.6098 149.255 97.835 149.461C97.7496 149.783 97.5917 150.215 96.8125 150.543C96.7041 150.756 96.3628 150.652 96.0957 150.525L93.7646 151.206C93.6681 151.437 93.4745 151.583 93.1689 151.546C93.054 151.704 92.6962 151.923 92.5137 151.911C92.4339 152.112 92.2455 152.209 92.0508 152.271C91.9898 152.295 92.0752 152.563 92.1904 152.847C92.214 152.842 92.246 152.836 92.2764 152.806C93.9236 152.433 94.6112 153.189 96.1123 152.702C96.8436 151.833 97.348 151.419 97.9502 150.367C98.4301 149.533 98.8326 148.627 99.374 147.63C99.4149 147.532 99.4412 147.424 99.4648 147.302C97.7256 148.414 95.6985 148.263 93.7168 147.41C96.4719 145.963 96.7214 145.099 98.4248 142.156C96.3382 141.238 94.8418 140.265 93.9854 139.053C93.5052 141.924 92.6704 143.846 91.3398 145.629C91.1939 145.039 91.0286 144.473 90.8887 143.877L90.8896 85.373C90.8888 84.9715 90.5596 84.6735 90.1826 84.6738C89.8054 84.6737 89.5023 84.9719 89.502 85.373L89.5029 138.678C87.101 129.458 84.7396 120.22 81.6084 111.237V89.291C81.609 88.9124 81.304 88.6086 80.9277 88.6084C80.5567 88.6087 80.2401 88.9119 80.2402 89.29V108.495C79.8572 107.997 79.3894 107.498 78.8037 107.011L77.3398 105.765L76.8154 107.588C76.2984 109.364 76.3958 110.556 76.7979 112.333C77.8862 116.912 79.047 121.492 80.2393 126.059L80.2402 157.02C79.5902 157.197 78.8662 157.299 78.1055 157.415C76.5359 159.32 75.313 159.702 72.583 160.59C74.39 156.199 74.0735 137.704 73.5439 112.473C73.1915 112.782 72.6669 113.116 71.9863 113.287C73.24 110.575 73.2524 102.402 73.252 96.3018C72.6439 96.611 72.382 96.7153 71.7012 96.9219C72.2859 94.7261 71.9322 93.4366 72.1338 91.2842C72.4305 76.5676 79.9356 74.1096 83.7979 72.9785C91.0161 70.8558 101.057 76.9983 98.0723 86.6992C98.7704 88.9555 100.414 90.9195 102.031 91.5039C104.025 92.0998 106.695 92.0993 108.076 90.2021C108.06 90.2045 107.443 90.2924 106.866 90.2393C108.617 88.39 107.911 85.2699 109.791 81.499C110.782 79.6738 112.584 78.4269 112 76.1162C111.397 73.642 109.129 72.8027 106.938 72.5107C106.787 72.48 106.635 72.4678 106.489 72.4609C106.38 76.159 106.314 80.0265 107.335 83.6084C105.802 83.1093 105.284 83.1349 103.783 83.6582C104.866 79.5527 104.542 74.8701 104.542 70.6064C103.721 70.8749 103.417 71.4713 103.028 72.4014C101.892 69.7079 103.107 68.6979 104.519 68.2168V64.5439C103.661 64.5563 101.216 64.611 100.645 64.6963L100.564 62.0928C101.892 62.2571 103.155 62.3532 104.493 62.4277C104.378 61.1143 104.251 59.9214 104.002 58.6387C104.92 58.6985 105.832 58.6993 106.762 58.6387C106.52 59.9218 106.38 61.1444 106.221 62.4629C107.662 62.3606 108.989 62.2446 110.398 62.0371L110.46 64.7578C109.099 64.5993 107.864 64.4649 106.471 64.4473L106.47 66.1865L106.478 66.5742V66.7324L106.47 66.7383V67.7666C106.574 67.7426 106.665 67.719 106.745 67.6943L107.796 67.4326L107.633 66.3633C109.488 66.454 111.538 65.8044 112.526 65.6289L112.299 64.6201C111.404 64.3041 111.826 63.4058 111.743 63.043C111.533 62.1395 110.909 61.388 110.48 60.957L109.954 60.7812V59.6367L110.486 59.8135C110.446 57.9927 111.073 57.2463 113.515 57.3037C114.778 56.4768 116.295 56.9806 116.422 57.0322C116.54 57.0729 116.592 57.0022 116.567 56.915C116.565 56.9146 116.494 56.7064 116.494 56.5889C116.494 56.4107 116.561 56.2494 116.666 56.123L116.667 54.9121L115.657 54.9131V53.7676H116.667V52.834H117.803ZM48.5791 149.842C50.7376 154.342 50.7935 157.96 46.2812 160.107C41.653 162.338 38.4169 159.164 37.1211 157.229C37.2921 157.991 36.8173 159.237 36.1182 160.338L32.2383 166.614C31.3451 168.08 31.3508 169.199 31.7451 170.014C31.9107 170.373 32.3414 170.884 32.5117 171.054L30.6387 171.734C30.3162 171.571 29.3795 170.864 28.7227 169.497C27.878 167.727 28.6551 165.952 29.6357 164.376L34.4951 156.672C34.9442 155.924 35.3271 155.053 34.835 154.037L34.2754 152.869L27.0684 156.343C26.2479 156.714 26.0037 157.041 26.2783 157.899L27.0498 160.156L25.0918 161.092L20.9805 152.512L22.8906 151.587L24.0342 153.179C24.563 153.928 24.9152 153.921 25.7246 153.526L42.291 145.577C43.1127 145.201 43.3372 144.921 43.083 144.04L42.5596 142.172L44.4736 141.249L48.5791 149.842ZM191.804 141.801L191.396 143.699C191.189 144.587 191.44 144.848 192.283 145.184L209.35 151.999C210.183 152.34 210.549 152.322 211.01 151.531L212.025 149.877L214.015 150.656L210.64 159.067L208.663 158.276L209.076 156.372C209.277 155.473 209.033 155.217 208.188 154.895L191.123 148.078C190.296 147.755 189.936 147.754 189.463 148.539L188.453 150.199L186.464 149.408L189.828 141.018L191.804 141.801ZM36.5498 151.78L37.9482 154.675C38.5323 155.892 39.0557 156.908 40.2969 157.491C41.4885 158.045 42.5893 157.991 44.4561 157.107C47.3755 155.704 47.3758 153.211 45.9834 150.267L44.8145 147.834L36.5498 151.78ZM152.983 154.581C152.248 153.881 151.586 153.072 151.087 152.137C150.095 151.9 148.789 150.713 147.542 149.394C148.582 145.66 149.524 141.894 150.461 138.16C151.003 136.063 151.536 133.982 152.09 131.892C152.46 131.769 152.753 131.514 152.983 131.168V154.581ZM81.6084 131.258C83.3171 137.668 85.0681 144.079 86.7227 150.494C86.5824 150.561 86.4489 150.634 86.3281 150.726C86.0238 150.817 85.7797 150.963 85.543 151.182L84.041 151.648C83.6093 151.558 83.1897 151.585 82.8184 151.833C82.3693 151.965 81.9479 152.246 81.6084 152.604V131.258ZM135.206 147.132C135.177 147.052 135.147 146.966 135.116 146.894C135.11 146.888 135.097 146.888 135.08 146.888C135.116 146.966 135.158 147.051 135.206 147.132ZM135.019 146.875L135.072 146.99C135.08 146.974 135.073 146.942 135.043 146.875H135.019ZM93.8516 94.5684L93.8506 134.585C94.1123 139.985 102.694 141.177 117.139 146.122C132.319 140.491 140.948 139.043 140.735 133.417L140.736 94.5684H93.8516ZM139.61 132.08C139.629 132.42 139.581 133.096 139.53 133.417V133.43C138.614 138.746 123.616 142.571 117.139 144.522C111.367 142.565 105.595 140.581 99.7939 138.709C97.5609 137.705 95.2547 136.312 94.9941 133.807C94.9942 133.728 94.9814 133.655 94.9814 133.564V95.6074L139.581 95.5898L139.61 132.08ZM118.743 124.392C117.96 124.799 117.68 125.177 117.903 126.089C118.081 126.837 118.573 126.376 117.995 128.96C117.728 130.504 118.177 131.725 118.684 132.334C119.273 133.022 119.851 134.238 120.161 134.925C119.237 134.925 118.767 135.474 119.103 136.057C119.303 135.778 119.601 135.407 119.954 135.691C120.684 136.208 117.618 137.333 118.805 138.574C118.61 138.927 118.713 138.805 118.374 139.029L118.337 139.042C118.105 138.793 117.826 138.812 117.728 139.055C117.728 139.753 118.61 140.022 119.236 140.149C118.47 140.653 119.223 140.902 119.826 140.37H119.868C120.787 140.618 121.857 140.345 122.745 139.56C123.396 140.241 124.619 140.15 125.251 140.07C125.202 139.797 124.898 139.554 124.644 139.554C124.807 139.298 125.178 139.189 125.544 139.11C125.105 138.757 124.96 138.794 124.673 138.757C124.716 138.575 124.692 138.337 124.595 138.118C124.107 138.464 123.766 138.496 123.104 138.866C123.699 137.571 123.67 136.118 123.257 135.271C123.007 134.73 122.436 133.958 121.785 133.119C121.736 132.42 121.736 132.315 121.815 131.557C121.609 131.557 121.475 131.617 121.315 131.769C121.086 131.787 120.987 131.824 120.891 131.97C120.884 131.744 118.574 128.499 119.175 128.528C120.185 128.552 119.182 129.829 120.871 130.438C120.208 129.422 121.736 127.524 119.438 127.141C120.208 125.797 118.221 125.268 118.743 124.392ZM116.001 124.392C116.53 125.268 114.462 125.797 115.288 127.141C112.886 127.524 114.462 129.421 113.788 130.438C115.556 129.829 114.505 128.551 115.569 128.527C116.549 128.497 115.234 130.182 113.769 131.97C113.666 131.824 113.568 131.786 113.331 131.769C113.168 131.617 113.045 131.556 112.813 131.556C112.886 132.315 112.886 132.42 112.82 133.119L113.105 132.778C112.315 133.739 111.598 134.657 111.288 135.271C110.863 136.118 110.838 137.571 111.452 138.866C110.777 138.496 110.412 138.464 109.906 138.118C109.828 138.337 109.852 138.599 109.906 138.794C109.531 138.933 109.286 138.908 108.959 139.164C109.336 139.244 109.59 139.311 109.804 139.687C109.416 139.753 109.129 139.985 109.057 140.326C109.895 140.265 110.977 140.369 111.816 139.56C112.747 140.345 113.908 140.605 114.846 140.345L114.913 140.37H114.899C115.502 140.855 116.141 140.605 115.472 140.149C116.141 140.022 117.078 139.753 117.078 139.054C116.944 138.811 116.669 138.794 116.427 139.043L116.402 139.029C116.026 138.805 116.14 138.927 115.934 138.574C117.156 137.333 114 136.208 114.749 135.691C115.125 135.406 115.406 135.777 115.636 136.057C115.977 135.473 115.502 134.925 114.534 134.925C114.851 134.238 115.447 133.023 116.049 132.335C116.579 131.726 117.047 130.504 116.768 128.96C116.153 126.375 116.694 126.837 116.869 126.089C117.077 125.177 116.815 124.799 116.001 124.392ZM117.113 96.9395L117.157 116.498L117.113 116.571H96.1494L96.125 127.815H98.4248V126.855H100.564V127.815H102.585V126.856H104.665V127.791H106.671V127.11C106.415 126.405 104.792 126.405 104.427 125.169C104.281 125.39 104.11 125.487 103.794 125.561C103.794 125.39 103.917 125.236 103.892 125.116C103.697 125.39 103.551 125.523 103.314 125.657C103.272 125.45 103.29 125.336 103.235 125.202C103.108 125.548 102.969 125.639 102.561 125.858C102.542 125.639 102.53 125.615 102.603 125.335C102.328 125.676 102.261 125.657 101.812 125.869C101.8 125.706 101.776 125.706 101.812 125.469C101.581 125.796 101.484 125.816 101.095 125.913C101.143 125.72 101.162 125.638 101.216 125.469C101.015 125.705 100.838 125.736 100.541 125.827C100.517 125.596 100.613 125.486 100.563 125.335C100.462 125.487 100.073 125.736 99.5566 125.869C99.6103 125.719 99.61 125.572 99.5566 125.45C99.3066 125.706 98.6802 126.022 98.3936 125.858C98.4251 125.639 98.363 125.45 98.1855 125.286C98.2826 125.116 98.3772 125.066 98.7285 125.066C98.3104 125.054 98.2833 125.098 98.2295 124.891C98.3453 124.756 98.3765 124.69 98.3457 124.446C98.4545 124.307 98.5824 124.343 98.7285 124.473C98.6556 124.386 98.5824 124.264 98.6553 124.191C98.9534 124.228 99.0639 124.137 99.1426 123.972C99.415 123.863 99.5009 124.192 99.5244 124.569C99.5245 124.32 99.5005 124.099 99.6768 124.1C99.8236 124.228 99.9502 124.258 100.098 124.191C100.407 124.113 100.23 124.496 100.151 124.812C100.905 124.228 101.313 124.113 102.049 124.1C101.77 124.099 101.599 124.099 101.296 124.033C101.538 123.942 101.624 123.748 101.8 123.559C101.38 123.674 101.215 123.675 100.888 123.433C101.197 123.39 101.332 123.346 101.551 123.139C101.507 123.065 101.38 122.951 101.362 122.878C100.998 122.72 100.784 122.476 100.589 122.288C100.54 122.452 100.54 122.568 100.449 122.721C100.213 122.515 100.213 122.227 100.262 121.801C100.152 121.881 100.018 122.002 99.8838 122.13C99.7936 121.8 99.7624 121.655 99.75 121.236C99.6592 121.334 99.5802 121.393 99.4648 121.503C99.307 121.157 99.2757 120.926 99.2266 120.603C99.1116 120.701 99.0017 120.779 98.9043 120.853C98.7285 120.725 98.6867 120.628 98.6797 120.396L98.2051 120.634L98 120.306L98.2109 120.189V120.178L98.1865 120.189C97.7992 120.032 97.811 119.138 98.3096 119.077C98.4539 118.774 98.6562 118.717 99.0635 118.718C99.4149 118.536 99.7259 118.718 99.9072 118.937L99.6895 118.56L100.03 118.391L100.414 119.059L100.449 119.054C102.165 117.922 103.392 117.24 105.497 117.386C105.04 117.897 104.78 118.103 104.299 118.608C102.743 118.652 101.928 118.906 100.645 119.442L100.997 120.056L100.645 120.232L100.304 119.613L100.033 119.75C100.974 121.344 101.94 120.824 102.652 121.765C103.289 121.693 103.551 121.904 103.94 121.953C103.942 121.95 103.997 121.849 104.073 121.765C104.073 121.637 104.116 121.569 104.159 121.569C104.166 121.394 104.257 121.394 104.257 121.57C104.653 121.546 104.84 121.503 105.005 121.345C103.066 121.194 102.985 121.047 102.918 120.834C102.718 120.433 102.986 120.348 103.065 120.73C103.192 121.047 103.417 121.047 105.09 121.194C105.097 120.731 105.005 120.602 104.877 120.554C104.866 120.397 104.792 120.396 104.78 120.554C104.628 120.567 104.234 120.87 104.233 120.926C104.214 121.047 104.117 121.065 104.11 120.913C104.063 120.701 103.996 120.233 103.996 120.111C103.74 120.111 103.783 119.916 104.002 119.916C104.542 119.747 104.72 119.654 105.188 119.398C105.181 119.241 105.188 119.138 105.242 119.01C105.637 118.803 105.802 118.774 106.33 118.62C106.21 117.958 107.175 117.885 107.078 118.62C107.284 118.651 107.285 118.718 107.48 118.804C107.742 118.287 108.509 118.632 108.167 119.149C109.305 119.539 108.684 119.916 109.719 120.232C109.578 120.378 109.578 120.524 109.269 120.524C109.718 120.787 109.633 120.944 109.748 121.194C109.463 121.194 109.608 121.333 109.257 121.193C109.608 121.515 109.53 121.559 109.67 121.924C109.269 121.832 109.335 121.984 108.976 121.717C109.378 122.287 109.633 122.72 109.195 123.548C108.916 123.231 108.758 123.049 108.326 122.701C108.35 123.608 108.684 123.863 109.195 124.265C108.794 124.386 108.101 124.392 107.633 123.881C107.633 124.289 107.864 124.422 108.077 124.757C107.536 124.726 107.121 124.422 106.823 124.229C107.729 125.226 108.179 126.514 109.67 127.815H110.623L110.624 126.856L111.329 126.855C111.743 125.858 111.75 125.202 111.616 124.727C111.403 123.971 110.863 122.775 110.612 122.002C109.997 120.19 110.583 118.152 112.771 118.804C113.538 119.09 113.855 120.378 114.438 120.433C114.334 120.567 114.304 120.702 114.121 120.731C114.291 120.945 114.377 121.047 114.249 121.655C114.152 121.546 114.122 121.467 114 121.357C114.078 121.57 114.285 121.801 114.041 122.117C114 121.966 114.012 121.905 113.915 121.801C113.987 122.038 113.914 122.192 113.726 122.446C113.725 122.003 112.924 121.12 113.458 120.75C113.294 120.701 113.192 120.634 113.117 120.487C113.495 120.348 113.294 119.989 113.251 119.789C112.91 119.302 112.504 119.034 111.787 119.18C110.546 119.465 110.905 121.57 111.396 122.446C111.926 121.852 112.656 122.579 112.212 122.926C112.17 122.635 111.926 122.58 111.657 122.892C111.657 123.085 111.72 123.231 111.89 123.449C112.68 122.514 113.282 123.662 112.845 123.942C112.832 123.596 112.43 123.578 112.235 123.748C112.108 124.065 112.115 124.137 112.285 124.472C112.772 124.033 113.251 124.531 112.924 124.927C112.886 124.648 112.468 124.604 112.382 125.024C112.248 125.705 112.339 126.04 111.969 126.855H112.57V127.815L113.514 127.731C114.675 124.727 115.867 121.095 117.139 116.651C120.958 130.028 124.29 136.032 128.134 139.974C131.703 138.598 138.418 136.646 138.498 132.17V128.351H138.467V126.759L130.779 126.751L130.671 125.676C131.126 126.059 131.529 125.937 131.637 125.39C132.021 125.888 132.465 125.797 132.586 125.226C133.098 125.638 133.443 125.512 133.522 124.976C134.022 126.059 134.392 126.168 134.994 126.059C135.662 126.326 135.828 126.302 136.12 126.15C136.978 126.363 137.233 126.362 137.324 126.168L134.593 120.75C134.308 120.19 133.632 119.806 132.799 120.001C131.607 120.311 131.661 121.194 131.991 121.894C131.564 122.057 131.175 122.124 130.543 122.27C130.505 122.258 130.48 122.251 130.445 122.251C130.505 122.221 130.543 122.215 130.566 122.215C130.372 121.929 130.292 121.825 130.153 121.479C130.292 121.479 130.439 121.516 130.647 121.57C130.373 121.273 130.306 121.157 130.122 120.811C130.256 120.81 130.439 120.834 130.567 120.834C129.856 119.686 130.39 118.876 128.073 119.563C126.972 119.552 126.646 119.788 126.785 120.378C127.155 120.233 127.495 120.147 127.976 120.306C127.994 120.347 127.976 120.396 128.019 120.433C127.927 120.652 126.899 120.731 126.888 120.823C127.252 121.424 128.212 120.834 128.522 120.634C128.366 120.968 128.28 121.084 127.873 121.424H128.267C128.085 121.776 128.031 121.928 127.642 122.25C127.69 122.251 127.726 122.258 127.769 122.271C127.752 122.282 127.715 122.282 127.672 122.282C126.803 122.251 126.249 122.215 125.434 122.063C125.678 121.345 125.726 120.262 124.637 120.074C123.397 119.867 122.801 120.312 122.52 121.235L121.013 126.252C121.255 126.363 121.437 126.363 122.069 126.15C122.271 126.327 122.503 126.357 123.306 126.118C124.15 126.168 124.491 125.736 124.691 125.067C124.838 125.676 125.391 125.736 125.774 125.335C125.937 125.858 126.388 125.949 126.802 125.548C127.058 126.059 127.55 126.15 127.884 125.676L127.885 126.751H121.135C120.057 123.923 118.993 120.567 117.855 116.571L117.85 116.547L138.51 116.523L138.485 96.9395H117.113ZM107.37 131.508L106.665 132.42L106.635 135.691H106.664C107.206 136.209 108.137 136.368 108.576 135.698C108.732 135.886 109.055 136.044 109.354 136.172C109.876 135.364 110.369 134.488 110.893 133.54L110.624 132.42L109.896 131.452L108.63 130.942L107.37 131.508ZM99.3242 131.294L98.4307 132.396V135.697H98.4492C99.1066 136.118 99.866 136.117 100.497 135.387C100.972 136.087 101.824 136.154 102.565 135.765H102.584L102.585 132.444L101.892 131.409L100.564 130.961L99.3242 131.294ZM126.699 132.584V133.124L127.203 133.125L127.202 132.584H127.672V133.125H128.151V132.584H128.608V133.551H128.152L128.151 134.173H128.608V135.388H127.673L127.672 134.676H127.202V135.388H126.195V134.172L126.699 134.173L126.698 133.551H126.195V132.584H126.699ZM131.229 133.125L131.717 133.124V132.584H132.16V133.551H131.717V134.173H132.16L132.161 135.388H131.229V134.676H130.75L130.749 135.388H129.758V134.172H130.257L130.256 133.551H129.758V132.584H130.256L130.257 133.125H130.749L130.75 132.584L131.229 132.583V133.125ZM133.82 133.125H134.325V132.584H134.794V133.125H135.293L135.292 132.584H135.737V133.551H135.292V134.172L135.736 134.173V135.388H134.795L134.794 134.676H134.325L134.324 135.388H133.321V134.172H133.82V133.551H133.322L133.321 132.584L133.82 132.583V133.125ZM126.826 129.117V130.066L126.37 130.065L126.369 130.675H126.826V131.902H125.896V131.216H125.415V131.903L124.418 131.902V130.675H124.922V130.065H124.418V129.118H124.922V129.646H125.415V129.118L125.896 129.117V129.646H126.37V129.117H126.826ZM133.941 129.118V130.066H133.499L133.498 130.675H133.941V131.902H133.012L133.011 131.216H132.537V131.903L131.539 131.902L131.54 130.675H132.038V130.066H131.539V129.117L132.039 129.118L132.038 129.646H132.537V129.118H133.012V129.646H133.498L133.499 129.117L133.941 129.118ZM128.481 129.117V129.646L128.975 129.646V129.118H129.466V129.646H129.947V129.117H130.385L130.384 130.066L129.947 130.065V130.675H130.384V131.902H129.466V131.216L128.975 131.217L128.974 131.902H127.988L127.989 130.675L128.48 130.676L128.481 130.065L127.988 130.066V129.117H128.481ZM137.501 130.066H137.069L137.068 130.675H137.501V131.902H136.575L136.576 131.216H136.096V131.902H135.097V130.675H135.597V130.065L135.097 130.066V129.118H135.597V129.646H136.096V129.117L136.576 129.118L136.575 129.646H137.068V129.118L137.5 129.117L137.501 130.066ZM98.7285 124.473C98.7827 124.555 98.8738 124.612 98.875 124.612C98.833 124.569 98.7703 124.502 98.7285 124.473ZM27.7256 112.762C30.0975 112.762 32.019 114.672 32.0186 117.056C32.0188 119.421 30.0977 121.35 27.7256 121.35C25.36 121.35 23.4248 119.42 23.4258 117.056C23.4255 114.671 25.3601 112.762 27.7256 112.762ZM207.117 112.762C209.489 112.762 211.406 114.671 211.406 117.056C211.406 119.42 209.489 121.35 207.117 121.35C204.747 121.349 202.825 119.421 202.824 117.057C202.825 114.672 204.747 112.762 207.117 112.762ZM100.006 119.758H100.018L100.033 119.75L100.03 119.746L100.006 119.758ZM133.284 117.782C133.284 117.003 131.32 117.021 131.272 118.414C131.364 119.788 133.389 119.727 133.309 118.906C132.701 119.024 132.392 118.773 132.349 118.414C132.349 117.957 132.689 117.684 133.284 117.782ZM124.704 117.453L124.394 117.355L124.326 117.61L124.04 117.648L124.041 117.892L123.804 118.031L123.908 118.273L123.688 118.432L123.949 118.608L123.877 118.853L124.169 118.906L124.126 119.162L124.431 119.149L124.516 119.398L124.801 119.272L125.026 119.46L125.288 119.259L125.597 119.398L125.678 119.089L125.969 119.113L125.871 118.889L126.085 118.773L125.999 118.56L126.236 118.391L125.999 118.213L126.054 117.958L125.756 117.879L125.731 117.617L125.471 117.611L125.391 117.356L125.105 117.453L124.897 117.24L124.704 117.453ZM104.92 97.8223C104.653 97.8277 104.409 97.8406 104.142 97.8223C104.184 98.0588 104.275 98.3814 104.275 98.624C103.917 98.6365 103.832 98.6244 103.467 98.583C103.467 98.7583 103.497 98.996 103.496 99.1914C103.795 99.1301 104.062 99.0978 104.275 99.0977C104.287 99.506 104.275 99.8046 104.287 100.224C103.832 100.418 103.546 100.784 103.94 101.428C104.014 101.264 104.116 101.149 104.274 101.063V102.141H104.792V101.276C104.963 101.276 105.163 101.295 105.327 101.253C105.516 101.379 105.778 101.818 105.722 102.036C105.638 102.408 105.18 102.51 104.792 102.893C104.962 102.863 105.041 102.863 105.212 102.82C104.933 103.149 104.653 103.574 104.476 103.922C103.253 103.709 102.646 103.483 101.781 102.96C102.415 101.623 101.781 100.971 100.414 100.68C98.7285 100.334 97.5432 101.757 97.543 103.258V113.008C97.452 113.421 97.353 113.671 97.1709 114.054C98.0835 113.738 98.6069 113.025 98.7832 112.32C99.7263 111.907 100.005 111.499 100.218 110.69C101.142 110.144 101.296 108.83 101.447 107.432C101.623 107.698 101.781 107.79 102.086 107.894C102.403 107.68 102.5 107.698 102.693 107.389C102.827 107.651 102.918 107.748 103.198 107.826C103.463 107.748 103.621 107.421 103.625 107.431C103.174 108.259 102.662 109.317 102.322 109.797C102.651 109.881 102.822 109.913 103.108 109.803C102.743 110.216 101.277 111.961 100.924 112.32C100.838 112.416 100.808 112.411 100.674 112.411C100.195 112.448 100.091 112.163 99.7939 112.442C99.7939 112.442 99.7934 112.449 99.8047 112.454L99.7939 112.448C99.5246 112.357 99.1778 112.497 99.2871 112.966C99.3903 112.794 99.4762 112.717 99.75 112.765C100.133 112.91 100.074 112.709 100.517 112.794C100.213 113.183 99.8349 113.092 99.7627 113.482C99.7931 113.59 99.8831 113.579 99.8301 113.634C99.5807 113.841 99.6598 114.103 99.8662 114.346C99.964 113.787 100.152 113.95 100.177 113.786C100.218 113.81 100.261 113.816 100.357 113.786C100.936 113.378 100.517 113.251 100.809 112.929C100.905 112.886 100.925 112.88 100.973 112.965C101.155 113.518 100.906 113.982 101.259 114.041C101.278 114.066 101.296 114.023 101.302 114.049C101.345 114.139 101.623 114.054 101.642 114.491C102.06 114.223 101.885 113.963 101.744 113.883C101.643 113.81 101.86 113.864 101.886 113.811C101.862 113.574 101.448 113.354 101.259 112.966C101.259 112.685 102.031 113.245 102.237 113.251C102.293 113.245 102.299 113.226 102.311 113.208V113.215C102.372 113.354 102.639 113.184 102.652 113.591C102.889 113.403 102.676 113.014 102.427 112.886L102.481 112.887C102.5 112.868 102.499 112.831 102.476 112.765C102.328 112.601 102.032 112.746 101.624 112.526C101.539 112.497 101.562 112.417 101.562 112.417C102.889 111.098 103.6 110.429 103.759 110.271C103.759 110.502 103.813 110.576 103.959 110.771C104.567 110.094 104.653 110.082 105.107 109.256C105.164 109.317 105.285 109.51 105.314 109.577C105.449 109.511 105.517 109.486 105.601 109.449C105.024 111.11 104.866 111.353 103.29 113.409C103.996 113.725 104.312 113.865 104.932 114.175C104.84 114.418 104.701 114.681 104.531 114.936C105.419 115.355 105.723 115.507 106.61 115.781C107.528 115.47 107.864 115.306 108.483 114.936C108.325 114.698 108.18 114.523 108.059 114.285C108.385 114.096 109.158 113.865 109.408 113.664C108.35 111.943 108.167 111.499 107.742 109.444C107.827 109.462 107.931 109.565 108.035 109.577C108.179 109.487 108.143 109.534 108.234 109.382C108.77 110.228 108.94 110.484 109.329 111.25C109.492 111.11 109.589 110.738 109.608 110.362C109.992 111.085 110.795 112.009 111.28 112.709C111.28 112.709 111.329 112.746 111.232 112.794C110.796 113.014 110.54 112.856 110.37 113.05C110.303 113.124 110.413 113.184 110.37 113.184C110.077 113.184 109.944 113.664 110.211 113.883C110.23 113.469 110.478 113.665 110.558 113.494C110.557 113.499 110.583 113.531 110.623 113.555C111.233 113.482 110.954 113.299 111.477 113.116C111.586 113.153 111.587 113.154 111.586 113.226C111.396 113.64 110.996 113.877 110.972 114.126C110.996 114.174 111.064 114.14 111.081 114.175L111.093 114.193C110.892 114.266 110.782 114.516 111.213 114.839C111.232 114.303 111.604 114.503 111.53 114.303C111.579 114.309 111.617 114.316 111.684 114.304C112.151 113.878 111.683 113.81 111.864 113.227C111.926 113.154 111.945 113.172 112.036 113.208C112.29 113.555 111.903 113.671 112.469 114.115C112.546 114.132 112.614 114.126 112.626 114.108L112.661 114.126C112.704 114.23 112.881 114.133 112.985 114.668C113.168 114.431 113.216 114.163 113.021 113.962L113.002 113.883C113.044 113.864 113.052 113.828 113.052 113.773C112.996 113.354 112.626 113.469 112.291 113.067C112.771 112.965 112.704 113.226 113.105 113.092C113.111 113.069 113.111 113.028 113.111 113.025C113.361 112.996 113.434 113.082 113.538 113.227C113.623 112.747 113.294 112.618 113.026 112.709L113.021 112.716C113.021 112.709 113.026 112.689 113.026 112.686C112.747 112.417 112.625 112.709 112.163 112.661C112.037 112.661 111.986 112.709 111.927 112.583C111.116 111.299 110.995 111.061 110.369 109.948C110.746 110.039 110.849 110.058 111.213 110.161C110.667 109.328 109.896 108.112 109.555 107.552C109.748 107.759 109.852 107.814 109.992 107.894C110.321 107.857 110.413 107.747 110.51 107.484C110.649 107.698 110.796 107.917 111.213 107.983C111.567 107.844 111.683 107.844 111.793 107.528C111.793 111.098 111.889 111.128 113.002 111.47C113.567 112.478 113.921 112.716 114.299 112.746C114.918 113.895 115.406 114.132 116.037 114.285C115.637 113.865 115.532 113.499 115.514 112.758L115.515 103.574C115.515 100.839 113.769 100.54 112.504 100.765C110.826 101.301 110.904 102.072 111.372 103.337C110.648 103.775 110.076 103.891 108.854 103.965C108.831 103.709 108.617 103.265 108.466 102.998C108.654 102.997 108.679 103.016 108.916 103.046C108.843 102.767 108.654 102.407 108.435 102.097C108.6 102.126 108.617 102.128 108.843 102.17C108.722 101.787 108.483 101.683 108.386 101.21C108.569 101.318 108.601 101.252 108.873 101.178C108.035 100.711 108.131 99.628 107.188 99.4092C106.501 99.2572 105.413 99.4222 105.115 100.047L105.107 100.048L105.097 100.055C105.011 100.054 104.919 100.072 104.816 100.103C104.816 99.8645 104.792 99.343 104.792 99.0752C105.01 99.0983 105.357 99.0984 105.582 99.1299C105.594 98.9587 105.583 98.7947 105.583 98.5508C105.285 98.6068 105.164 98.6363 104.792 98.624C104.792 98.3391 104.884 98.0774 104.92 97.8223ZM130.122 97.4092C132.05 97.4094 133.723 99.6771 133.724 101.538C133.723 103.132 133.146 104.25 132.537 104.269C134.032 104.269 134.464 105.765 136.198 105.375C135.59 106.275 135.148 107.096 133.225 107.114C132.586 107.115 132.293 107.023 131.321 106.713C131.54 107.023 131.436 107.413 131.272 107.632C131.272 108.02 131.175 108.259 130.956 108.567C130.974 108.848 130.944 109.037 130.712 109.194C130.597 110.229 130.305 110.763 129.631 112.034C130.135 112.217 130.596 112.575 130.597 113.233C130.597 114.15 129.594 114.515 128.894 114.515C128.542 115.081 128.176 115.246 127.696 115.246C127.227 115.246 126.894 115.081 126.54 114.516C125.835 114.515 124.849 114.151 124.849 113.234C124.849 112.575 125.293 112.217 125.799 112.035C125.105 110.763 124.849 110.228 124.709 109.194C124.523 109.036 124.491 108.848 124.503 108.567C124.248 108.258 124.188 108.021 124.188 107.632C123.992 107.412 123.909 107.024 124.107 106.714C123.117 107.024 122.842 107.114 122.241 107.114C120.337 107.096 119.85 106.276 119.273 105.375C121.006 105.764 121.437 104.269 122.922 104.269C122.308 104.25 121.737 103.131 121.736 101.537C121.737 99.6764 123.396 97.409 125.324 97.4092C123.908 98.0777 123.396 99.4814 123.458 100.703C123.506 102.316 124.187 102.634 124.758 103.047C125.658 102.554 126.103 102.717 126.809 103.533C126.96 103.016 127.308 102.907 127.696 102.907C128.103 102.907 128.463 103.016 128.607 103.533C129.338 102.717 129.782 102.554 130.646 103.047C131.272 102.633 131.923 102.317 131.99 100.703C132.039 99.4812 131.54 98.0774 130.122 97.4092ZM132.544 112.679C132.544 110.015 136.228 110.113 136.29 111.462C135.323 111.062 134.209 111.851 134.209 112.679C134.209 113.47 135.383 114.194 136.362 113.555C136.29 115.05 132.598 115.239 132.544 112.679ZM121.03 110.483C121.317 110.503 121.609 110.326 121.919 110.514C122.12 110.794 122.332 110.811 121.475 111.803C122.295 110.867 122.418 111.086 122.71 111.11C122.916 111.298 122.879 111.481 122.951 111.755C123.019 112.022 123.422 112.218 123.257 112.498C123.054 112.708 122.971 112.865 121.886 112.568C123.039 112.902 122.844 113.102 122.88 113.33C122.802 113.615 122.686 113.591 122.332 113.786C121.961 114.066 122.002 114.224 121.657 114.224C121.358 114.097 121.11 114.223 121.11 112.995C121.096 114.139 120.872 114.127 120.478 114.23C120.149 114.231 120.112 113.981 119.894 113.773C119.62 113.574 119.347 113.519 119.29 113.307C119.333 113.015 119.158 112.942 120.478 112.551C119.183 112.91 119.223 112.709 118.993 112.46C118.883 112.199 119.139 112.101 119.223 111.834C119.346 111.535 119.242 111.274 119.517 111.165C119.825 111.165 119.803 110.871 120.699 111.794C119.854 110.92 120.191 110.793 120.276 110.623C120.564 110.478 120.588 110.484 121.03 110.483ZM128.463 99.2568L129.866 99.5059L128.864 100.563L129.04 101.969L127.689 101.295L126.431 101.951L126.645 100.504L125.471 99.5059L127.021 99.2568L127.689 97.8223L128.463 99.2568ZM112.254 98.709C112.194 97.0064 109.609 97.2871 109.608 97.9502C110.321 97.6939 110.954 98.2424 110.979 98.71C110.954 99.1911 110.412 99.7743 109.608 99.3418C109.608 100.126 112.151 100.37 112.254 98.709ZM100.613 97.5361L100.262 97.4092L100.181 97.707L99.8838 97.7363V98.0342L99.6104 98.2109L99.75 98.5088L99.4893 98.6738L99.7744 98.8926L99.7139 99.1904L100.031 99.2578L99.9932 99.5479L100.304 99.5381L100.407 99.8301L100.717 99.6826L100.955 99.8838L101.259 99.6465L101.58 99.8105L101.665 99.4824L101.982 99.5L101.892 99.2148L102.128 99.0742L102.031 98.8428L102.27 98.624L102.013 98.4482L102.086 98.1201L101.744 98.0225V97.7363L101.447 97.707L101.361 97.4092L101.039 97.5361L100.827 97.2861L100.613 97.5361ZM208.311 72.1738L206.474 73.1162L205.246 71.4023C204.73 70.6898 204.376 70.7033 203.598 71.1035L186.635 79.6895L189.804 85.9355C190.187 86.6912 190.496 86.994 191.323 86.667L193.774 85.6572L194.827 87.7598L189.377 90.752L181.685 75.5732L183.521 74.6553L184.671 76.1689C185.182 76.8863 185.529 76.8753 186.312 76.4736L202.229 68.4023C203.013 68.0081 203.225 67.7404 202.958 66.8828L202.393 65.0947L204.241 64.1406L208.311 72.1738ZM38.126 65.6914L36.9639 67.9229L33.1748 66.8037C31.6602 67.996 30.7294 68.8902 29.5566 71.1338C28.285 73.56 28.4498 75.0567 28.9238 76.4736C29.4465 78.128 33.2173 80.9115 35.5654 82.1348C40.716 84.811 45.7208 84.9142 48.2451 80.0498C49.1328 78.3412 49.5516 76.8755 49.8564 75.0322L45.7031 72.8779C44.9307 72.4654 44.584 72.4774 44.0732 73.1582L42.8496 74.7949L41.0205 73.8389L44.8398 66.4863L46.6689 67.4355L46.2744 68.7676C46.0195 69.6377 46.2505 69.8207 47.0166 70.2207L52.4785 73.0557C52.3442 75.0557 52.1565 78.3232 50.3799 81.7461C46.932 88.3499 41.3792 88.9954 34.1973 85.2734C27.6474 81.8746 23.9913 76.1202 27.7012 68.9863C28.771 66.9311 30.0123 64.8462 33.3086 62.5527L38.126 65.6914ZM106.488 71.4287C108.209 71.4213 110.624 72.2008 112.17 72.7842L111.579 71.3369C110.454 71.112 108.386 70.4077 106.488 70.4248V71.4287ZM111.927 67.6943C111.927 67.7008 111.937 67.7304 111.944 67.7617C112.15 68.5934 113.001 69.1044 113.836 68.8984C114.682 68.703 115.21 67.8647 115.016 67.0312C114.998 67.0189 114.998 66.9877 114.998 66.9639L111.927 67.6943ZM188.563 44.6787L187.054 46.1084L185.529 44.9834C184.835 44.4365 184.505 44.5573 183.861 45.165L174.574 54.0635C170.998 57.4937 172.288 60.7217 174.574 63.1064C175.547 64.1279 176.898 64.9735 178.235 65.0586C179.348 65.1134 180.785 64.414 182.924 62.3701L192.006 53.667C192.638 53.0661 192.777 52.7423 192.26 52.0254L191.22 50.4561L192.698 49.0156L198.683 55.2617L197.187 56.6904L195.666 55.5645C194.954 55.0302 194.631 55.1458 194.006 55.7549L184.306 65.0342C179.81 69.3459 174.837 67.4357 171.795 64.2676C167.915 60.193 168.141 56.0274 172.086 52.2617L181.775 42.9883C182.414 42.3802 182.554 42.0578 182.037 41.3291L180.967 39.7588L182.475 38.3301L188.563 44.6787ZM56.9541 37.2354L55.8418 38.7559C55.2935 39.455 55.4096 39.7719 56.0234 40.4219L65.3398 50.0801C69.6639 54.5563 67.7782 59.5425 64.623 62.5947C60.5594 66.5003 56.4003 66.2613 52.6055 62.3516L43.3066 52.6826C42.7054 52.062 42.3645 51.9167 41.6348 52.4395L40.0771 53.498L38.6484 51.9941L44.9668 45.9014L46.4033 47.3975L45.2773 48.917C44.7417 49.6296 44.8629 49.9519 45.4834 50.585L54.4121 59.8398C57.8478 63.4045 61.0637 62.1017 63.4609 59.8164C64.4576 58.8362 65.3157 57.4808 65.3701 56.1484C65.4257 55.0233 64.7379 53.5998 62.6826 51.4648L53.9561 42.4043C53.3361 41.778 53.0253 41.6564 52.2959 42.1621L50.7393 43.2266L49.2861 41.7295L55.5127 35.7383L56.9541 37.2354ZM120.033 58.7021C119.401 58.4698 117.956 58.8116 117.943 58.8145C117.547 59.7623 117.836 60.0733 117.842 60.0781C118.568 60.4787 118.671 62.44 118.679 62.5918C118.235 62.5998 117.879 62.9199 117.879 63.3135C117.879 63.7123 118.244 64.0352 118.694 64.0352C119.146 64.0352 119.511 63.7122 119.511 63.3135C119.51 63.2967 119.511 63.2788 119.511 63.2627L119.845 63.3369L119.857 63.3242C119.855 63.3553 119.854 63.3853 119.854 63.418C119.854 63.8402 120.123 64.1843 120.451 64.1846C120.783 64.1847 121.051 63.84 121.052 63.418C121.052 63.0816 120.882 62.7972 120.647 62.6934L120.658 62.6865C120.658 62.6865 121.36 60.8887 121.461 60.4512C121.591 59.8854 120.675 58.9352 120.033 58.7021ZM116.486 58.8145C116.486 58.8145 115.032 58.4687 114.396 58.7021C113.755 58.9349 112.837 59.8849 112.968 60.4512C113.069 60.8853 113.762 62.6608 113.771 62.6855L113.782 62.6934C113.549 62.7979 113.378 63.0811 113.377 63.418C113.377 63.8395 113.645 64.1832 113.977 64.1836C114.307 64.1835 114.577 63.8402 114.577 63.418C114.576 63.3857 114.573 63.3553 114.572 63.3242L114.587 63.3369L114.922 63.2617C114.919 63.2785 114.917 63.2967 114.917 63.3135C114.917 63.7117 115.283 64.0349 115.735 64.0352C116.187 64.0352 116.554 63.7114 116.554 63.3125C116.554 62.9202 116.195 62.6006 115.753 62.5928C115.758 62.4418 115.859 60.479 116.586 60.0781C116.599 60.0699 116.882 59.7574 116.486 58.8145ZM160.422 24.8838L162.021 48.2676L169.709 34.1826C170.141 33.3983 170.237 32.985 169.527 32.4619L168.019 31.4043L169.016 29.585L176.624 33.7383L175.646 35.5557L173.924 34.8701C173.108 34.5426 172.792 34.8458 172.374 35.6182L162.003 54.5801L159.291 53.0967L157.723 29.749L150.053 43.8037C149.627 44.575 149.579 44.9227 150.297 45.4707L151.773 46.6367L150.771 48.4561L143.076 44.2471L144.063 42.4355L145.851 43.0439C146.69 43.3415 146.958 43.1281 147.383 42.3613L155.953 26.6533C156.379 25.8819 156.456 25.4489 155.727 24.9326L154.243 23.8799L155.234 22.0557L160.422 24.8838ZM84.8555 22.2686L83.748 22.9795C83.0128 23.4484 82.734 23.7836 82.8975 25.0547L85.9688 47.5498L83.6455 48.6621L67.2256 32.6318C66.3124 31.7011 65.5407 31.8707 64.7139 32.1699L63.5449 32.5781L62.6396 30.7041L71.1475 26.6055L72.0352 28.4346L70.4609 29.4258C69.8282 29.8221 69.6269 30.0717 69.8281 30.4736C69.9258 30.6671 70.1006 30.8984 70.3379 31.1416L83.0137 43.9736L80.2402 26.3486C80.1799 26.0636 80.1184 25.7781 80.0391 25.6191C79.8325 25.175 79.4616 25.1587 78.7383 25.4375L76.9805 26.0449L76.0918 24.2207L83.9688 20.4062L84.8555 22.2686ZM131.261 16.5391C136.059 17.1964 139.015 19.0826 138.374 23.8984C137.677 28.8356 133.358 29.7731 131.127 29.7852C131.845 30.0583 132.581 31.1113 133.092 32.2539L136.097 38.7744C136.813 40.2816 137.726 40.8897 138.595 40.9941C138.972 41.0481 139.628 40.9576 139.859 40.9336L139.404 42.8115C139.094 42.9885 138.011 43.3772 136.551 43.1592C134.673 42.9094 133.656 41.31 132.885 39.6738L129.253 31.6152C128.889 30.8554 128.382 30.0771 127.308 29.9248L126.054 29.7559L125.002 37.4531C124.873 38.3293 125.002 38.6944 125.854 38.9141L128.086 39.498L127.793 41.5947L118.633 40.3428L118.927 38.2754L120.823 38.2256C121.7 38.2015 121.882 37.9104 122.003 37.041L124.431 19.3496C124.576 18.4738 124.49 18.152 123.616 17.8838L121.815 17.3184L122.102 15.2744L131.261 16.5391ZM111.683 21.3447L109.464 21.6963L108.866 19.2891C108.673 18.4312 108.223 18.3528 107.389 18.4736L99.3311 19.7148L100.577 27.876L108.721 26.6416L109.109 29.1719L100.973 30.418L102.402 39.6562L110.485 38.4209C111.329 38.2806 111.713 38.0934 111.652 37.2051L111.464 34.5713L113.787 34.2129L114.938 40.3232L96.9346 43.0918L96.624 41.0127L98.4062 40.4043C99.2586 40.1368 99.3611 39.8069 99.2275 38.9258L96.4961 21.1855C96.3633 20.316 96.1624 19.9219 95.2734 19.9512L93.4072 20.0186L93.1084 18.0654L110.972 15.3418L111.683 21.3447ZM126.396 27.3223L129.489 27.7529C130.779 27.9242 131.904 28.0462 133.024 27.3467C134.101 26.6846 134.666 25.7651 134.939 23.7832C135.365 20.6507 133.352 19.3012 130.214 18.876L127.618 18.5107L126.396 27.3223Z" fill="white"/>
</svg>
