<svg xmlns="http://www.w3.org/2000/svg" width="149" height="37" fill="none"><g clip-path="url(#a)"><path fill="#002b7f" d="M6.612 8.31 0 11.642v24.35l6.612-3.334zM2.674 1.143l-.275.202C.942 2.41-.001 4.715.293 6.495c.294 1.779 1.713 2.357 3.17 1.292l.276-.201c1.457-1.066 2.4-3.371 2.106-5.15S4.132.078 2.675 1.143"/><path fill="#ce1126" d="M15.499 7.977a6.56 6.56 0 0 1 6.408.276 6.6 6.6 0 0 1 3.124 5.62v8.915a7.67 7.67 0 0 1-4.21 6.846l-10.066 5.073v-24.34zm-.186 6.891v11.574l3.463-1.745a2.87 2.87 0 0 0 1.577-2.566v-5.462c0-.93-.479-1.793-1.267-2.28a2.66 2.66 0 0 0-2.6-.112z"/><path fill="#fcd116" d="M10.755 10.397 6.612 8.31v24.353l4.143 2.089z"/></g><path fill="#0b2353" d="M148.335 15.565v10.068h-2.083v-1.188a3.44 3.44 0 0 1-1.297.987 4.1 4.1 0 0 1-1.681.347q-1.187 0-2.138-.493a3.64 3.64 0 0 1-1.48-1.462q-.53-.969-.53-2.339v-5.92h2.065v5.61q0 1.351.676 2.083.676.712 1.846.712t1.845-.712q.694-.732.694-2.083v-5.61zM136.985 20.353q0 .566-.073 1.023h-7.692q.091 1.206.895 1.937.804.73 1.974.73 1.68 0 2.375-1.406h2.247a4.56 4.56 0 0 1-1.662 2.284q-1.188.877-2.96.877-1.445 0-2.595-.64a4.8 4.8 0 0 1-1.791-1.827q-.639-1.188-.639-2.74 0-1.554.621-2.723a4.5 4.5 0 0 1 1.773-1.827q1.15-.64 2.631-.64 1.425 0 2.539.622a4.37 4.37 0 0 1 1.736 1.754q.621 1.114.621 2.576m-2.174-.658q-.018-1.15-.822-1.845t-1.992-.695q-1.078 0-1.845.695-.768.676-.914 1.845zM124.009 25.76q-.567 0-.95-.383a1.3 1.3 0 0 1-.384-.95q0-.567.384-.95.383-.384.95-.384.548 0 .931.384.384.383.384.95 0 .566-.384.95a1.27 1.27 0 0 1-.931.383M120.936 20.353q0 .566-.074 1.023h-7.692q.092 1.206.895 1.937.804.73 1.974.73 1.68 0 2.375-1.406h2.247a4.56 4.56 0 0 1-1.662 2.284q-1.188.877-2.96.877-1.443 0-2.595-.64a4.8 4.8 0 0 1-1.79-1.827q-.64-1.188-.64-2.74 0-1.554.621-2.723a4.5 4.5 0 0 1 1.773-1.827q1.15-.64 2.631-.64 1.424 0 2.54.622a4.37 4.37 0 0 1 1.735 1.754q.621 1.114.622 2.576m-2.175-.658q-.018-1.15-.822-1.845t-1.992-.695q-1.077 0-1.845.695-.768.676-.914 1.845zM107.158 17.265v5.573q0 .566.255.822.275.237.914.237h1.279v1.736h-1.645q-1.406 0-2.156-.658-.749-.657-.749-2.137v-5.573h-1.187v-1.7h1.187v-2.502h2.102v2.503h2.448v1.699zM91.467 20.554q0-1.516.621-2.686.64-1.17 1.718-1.809a4.6 4.6 0 0 1 2.412-.658q1.188 0 2.064.475.895.457 1.426 1.152v-1.462h2.101v10.067h-2.101v-1.498q-.53.712-1.444 1.188-.913.474-2.083.475-1.296 0-2.375-.658a4.9 4.9 0 0 1-1.718-1.864q-.62-1.206-.62-2.722m8.24.036q0-1.041-.438-1.808a2.95 2.95 0 0 0-1.114-1.17 2.94 2.94 0 0 0-1.499-.402 2.94 2.94 0 0 0-1.498.402q-.694.384-1.133 1.151-.42.75-.42 1.79 0 1.042.42 1.828.439.786 1.133 1.206.713.402 1.498.402a2.94 2.94 0 0 0 1.499-.402 2.95 2.95 0 0 0 1.114-1.17q.439-.785.439-1.827M87.611 17.265v5.573q0 .566.256.822.274.237.913.237h1.28v1.736h-1.645q-1.407 0-2.156-.658-.75-.657-.75-2.137v-5.573h-1.187v-1.7h1.188v-2.502h2.101v2.503h2.448v1.699zM81.24 14.231a1.3 1.3 0 0 1-.95-.384 1.3 1.3 0 0 1-.384-.95q0-.566.384-.95a1.3 1.3 0 0 1 .95-.383q.549 0 .932.383.384.384.384.95 0 .567-.384.95a1.27 1.27 0 0 1-.932.384m1.023 1.334v10.067H80.18V15.565zM75.63 17.265v5.573q0 .566.255.822.275.237.914.237h1.279v1.736h-1.644q-1.407 0-2.156-.658-.75-.657-.75-2.137v-5.573h-1.187v-1.7h1.188v-2.502h2.1v2.503h2.449v1.699zM66.23 15.401q1.188 0 2.12.494a3.5 3.5 0 0 1 1.48 1.461q.53.969.53 2.34v5.937h-2.065v-5.627q0-1.353-.676-2.065-.675-.73-1.846-.73-1.169 0-1.863.73-.676.712-.676 2.065v5.627H61.15V15.566h2.083v1.15a3.5 3.5 0 0 1 1.297-.968 4.2 4.2 0 0 1 1.7-.347M58.918 20.353q0 .566-.073 1.023h-7.692q.092 1.206.895 1.937.804.73 1.974.73 1.68 0 2.375-1.406h2.247a4.57 4.57 0 0 1-1.662 2.284q-1.188.877-2.96.877-1.444 0-2.595-.64a4.8 4.8 0 0 1-1.79-1.827q-.64-1.188-.64-2.74 0-1.554.621-2.723a4.5 4.5 0 0 1 1.773-1.827q1.15-.64 2.63-.64 1.425 0 2.54.622a4.37 4.37 0 0 1 1.736 1.754q.621 1.114.621 2.576m-2.174-.658q-.018-1.15-.822-1.845t-1.992-.695q-1.078 0-1.845.695-.768.676-.914 1.845zM36.431 20.554q0-1.517.621-2.686.64-1.17 1.718-1.81a4.63 4.63 0 0 1 2.43-.657q.986 0 1.937.439.968.42 1.535 1.133v-4.86h2.1v13.52h-2.1v-1.516q-.512.73-1.426 1.206-.895.475-2.064.475a4.6 4.6 0 0 1-2.412-.658 4.9 4.9 0 0 1-1.718-1.864q-.62-1.206-.62-2.722m8.24.036q0-1.041-.438-1.809a2.95 2.95 0 0 0-1.114-1.169 2.94 2.94 0 0 0-1.499-.402 2.94 2.94 0 0 0-1.498.402q-.694.384-1.133 1.151-.42.75-.42 1.79 0 1.042.42 1.828.439.786 1.133 1.206.712.402 1.498.402a2.94 2.94 0 0 0 1.499-.402 2.95 2.95 0 0 0 1.114-1.17q.438-.785.439-1.827M33.185 14.231a1.3 1.3 0 0 1-.95-.384 1.3 1.3 0 0 1-.384-.95q0-.566.384-.95a1.3 1.3 0 0 1 .95-.383q.548 0 .932.383.383.384.383.95 0 .567-.383.95a1.27 1.27 0 0 1-.932.384m1.023 1.334v10.067h-2.083V15.565z"/><defs><clipPath id="a"><path fill="#fff" d="M0 0h25.035v36.162H0z"/></clipPath></defs></svg>
