<svg width="178" height="172" viewBox="0 0 178 172" fill="none" xmlns="http://www.w3.org/2000/svg">
<path d="M25.167 134.949V42.2734H36.2327V134.949H25.167Z" fill="black"/>
<path d="M136.789 40.5771C141.218 40.5772 145.483 41.5837 149.584 43.5964C153.464 45.4818 156.732 47.9557 159.389 51.0184L152.409 58.1814C151.679 57.4701 150.922 56.8015 150.138 56.1761C148.087 54.4988 145.934 53.1987 143.679 52.2762C141.464 51.3537 139.25 50.8925 137.035 50.8925C133.221 50.8925 130.146 52.1926 127.808 54.7924C125.512 57.3922 124.363 60.5791 124.363 64.3531C124.363 68.7978 125.819 72.383 128.731 75.1086C131.683 77.7923 135.641 80.1196 140.603 82.0904C144.54 83.6419 148.19 85.5499 151.553 87.8142C154.956 90.0785 157.684 92.9301 159.734 96.3686C161.826 99.7651 162.871 103.979 162.871 109.011C162.871 114.253 161.723 118.844 159.427 122.786C157.171 126.728 154.136 129.81 150.322 132.032C146.549 134.213 142.366 135.303 137.773 135.303C134.287 135.303 130.904 134.695 127.623 133.479C124.343 132.263 121.328 130.648 118.581 128.636C115.925 126.69 113.69 124.587 111.877 122.328L119.309 114.7C120.174 115.722 121.1 116.719 122.087 117.691C124.343 119.83 126.762 121.591 129.346 122.975C131.929 124.317 134.575 124.988 137.281 124.988C139.947 124.988 142.387 124.296 144.602 122.912C146.857 121.528 148.661 119.62 150.015 117.188C151.368 114.756 152.045 111.989 152.045 108.886C152.045 105.908 151.368 103.35 150.015 101.212C148.702 99.0313 146.796 97.1444 144.294 95.5509C141.792 93.9156 138.798 92.4058 135.313 91.022C130.843 89.2189 126.967 87.0385 123.686 84.4806C120.447 81.9228 117.945 78.9666 116.182 75.612C114.418 72.2155 113.537 68.3786 113.537 64.1015C113.537 59.4889 114.521 55.4214 116.489 51.899C118.499 48.3348 121.246 45.5673 124.732 43.5964C128.259 41.5837 132.278 40.5771 136.789 40.5771Z" fill="black"/>
<path d="M22.6702 139.239C19.1071 144.454 15.5262 149.659 11.9262 154.852C7.97313 160.555 3.99757 166.245 0 171.921C3.10768 165.713 6.23781 159.518 9.38998 153.336C13.7737 144.739 18.2004 136.168 22.6702 127.623V139.239Z" fill="black"/>
<path d="M82.1306 31.7084C88.0989 31.5477 93.6722 36.4833 94.212 42.4919C95.9339 56.9731 97.5411 71.4665 99.0342 85.9712C100.207 97.367 101.31 108.77 102.342 120.18C108.983 109.008 115.705 97.8796 122.505 86.7964C122.548 86.8307 122.591 86.8655 122.635 86.8997L122.646 86.9091C125.519 89.1484 128.795 91.0945 132.461 92.7595C128.87 99.7428 125.25 106.709 121.601 113.66L119.882 111.629L109.099 122.695L110.437 124.363C111.488 125.672 112.663 126.923 113.957 128.118C112.42 131.005 110.879 133.89 109.331 136.771C107.466 140.206 103.649 142.479 99.7124 142.472C94.1969 142.614 89.0566 138.053 88.5612 132.506C86.7733 117.538 85.1077 102.557 83.5643 87.5637C82.3337 75.6096 81.1807 63.6472 80.1055 51.6771C66.5012 73.2945 52.594 94.7311 38.3845 115.987V98.0178C49.3066 77.7354 60.474 57.5996 71.8877 37.6113C73.9462 34.0426 77.9773 31.7067 82.1306 31.7084Z" fill="black"/>
<path d="M142.472 54.7468C142.712 54.8346 142.953 54.9288 143.195 55.0296L143.202 55.0325L143.21 55.0355C145.225 55.8595 147.173 57.0307 149.053 58.5692L149.077 58.5881C149.234 58.7132 149.389 58.8409 149.544 58.9699C146.174 65.7485 142.778 72.5121 139.355 79.2603C135.821 77.6368 132.993 75.8272 130.822 73.8585C130.752 73.7931 130.683 73.7268 130.616 73.6602C134.542 67.341 138.494 61.0367 142.472 54.7468Z" fill="black"/>
<path d="M178 0C175.056 6.28762 172.09 12.5626 169.101 18.8248C164.907 27.6131 160.667 36.3761 156.384 45.1143C154.749 43.9218 152.982 42.8648 151.087 41.9436C150.967 41.8851 150.848 41.8281 150.728 41.7712C155.95 33.6146 161.216 25.4828 166.526 17.3758C170.328 11.5712 174.153 5.77916 178 0Z" fill="black"/>
</svg>
