<svg width="179" height="173" viewBox="0 0 179 173" fill="none" xmlns="http://www.w3.org/2000/svg">
<path d="M178.155 0C175.209 6.29312 172.241 12.5736 169.249 18.8412C150.223 58.7057 130.282 98.0555 109.427 136.891C107.56 140.329 103.74 142.604 99.7998 142.596C94.2793 142.739 89.1344 138.173 88.6385 132.622C86.8491 117.641 85.182 102.647 83.6372 87.64C82.4056 75.6754 81.2517 63.7028 80.1756 51.7222C58.2169 86.6148 35.4708 121.037 11.9365 154.987C7.97994 160.695 4.00108 166.39 0 172.071C3.11043 165.857 6.24327 159.657 9.39823 153.47C29.3578 114.329 50.2084 75.72 71.9503 37.6443C74.0105 34.0724 78.0452 31.7342 82.2023 31.7359C88.1758 31.575 93.7541 36.5151 94.2943 42.529C96.0177 57.0229 97.6266 71.5287 99.121 86.0461C100.295 97.452 101.398 108.865 102.431 120.286C123.077 85.5552 144.49 51.2567 166.672 17.3908C170.477 11.5811 174.305 5.78421 178.155 0ZM96.9669 129.518C96.9093 129.605 96.8559 129.696 96.8072 129.789C96.8604 129.698 96.9137 129.608 96.9669 129.518ZM84.1947 45.3169C84.2535 45.2349 84.3075 45.1497 84.3552 45.0609C84.3018 45.1463 84.2481 45.2315 84.1947 45.3169Z" fill="#F6C014"/>
<path d="M25.1875 135.066V42.3096H36.2629V135.066H25.1875Z" fill="white"/>
<path d="M136.91 40.6113C141.342 40.6113 145.611 41.6187 149.716 43.6332C153.599 45.5203 156.87 47.9963 159.529 51.0617L152.543 58.231C151.812 57.5191 151.055 56.8499 150.27 56.2239C148.218 54.5451 146.063 53.244 143.805 52.3206C141.589 51.3973 139.372 50.9357 137.156 50.9357C133.339 50.9357 130.26 52.2369 127.921 54.839C125.622 57.4411 124.473 60.6308 124.473 64.408C124.473 68.8567 125.93 72.445 128.844 75.1729C131.799 77.859 135.76 80.1883 140.727 82.1609C144.667 83.7137 148.32 85.6234 151.686 87.8896C155.093 90.156 157.822 93.0101 159.875 96.4516C161.968 99.8511 163.015 104.069 163.015 109.105C163.015 114.351 161.865 118.947 159.567 122.892C157.309 126.837 154.272 129.922 150.455 132.146C146.678 134.329 142.492 135.42 137.895 135.42C134.406 135.42 131.019 134.811 127.736 133.594C124.452 132.377 121.435 130.761 118.685 128.747C116.027 126.799 113.79 124.695 111.976 122.434L119.415 114.799C120.28 115.822 121.207 116.82 122.195 117.793C124.452 119.933 126.874 121.696 129.46 123.081C132.046 124.424 134.693 125.096 137.402 125.096C140.07 125.096 142.512 124.403 144.729 123.018C146.986 121.633 148.792 119.723 150.147 117.289C151.501 114.855 152.179 112.085 152.179 108.979C152.179 106 151.501 103.439 150.147 101.299C148.833 99.1166 146.925 97.228 144.421 95.6332C141.917 93.9964 138.921 92.4853 135.432 91.1003C130.958 89.2957 127.079 87.1133 123.795 84.5532C120.553 81.9931 118.049 79.0343 116.284 75.6768C114.519 72.2773 113.637 68.4371 113.637 64.1562C113.637 59.5396 114.622 55.4685 116.592 51.9431C118.603 48.3757 121.353 45.6058 124.842 43.6332C128.372 41.6187 132.395 40.6113 136.91 40.6113Z" fill="white"/>
</svg>
