<svg width="198" height="197" viewBox="0 0 198 197" fill="none" xmlns="http://www.w3.org/2000/svg">
<path d="M38.834 196.826C42.6969 175.726 49.52 151.899 59.7913 132.992C71.0084 112.344 91.0902 92.094 110.27 78.8391C111.399 78.0602 112.541 77.2996 113.696 76.5586C127.935 84.9234 148.702 98.8681 158.034 112.697C160.849 116.897 162.923 121.548 164.165 126.449C171.63 155.119 151.797 178.045 129.695 193.378C128.536 194.182 126.476 195.33 126.937 196.826H38.834Z" fill="#0772AF"/>
<path d="M0 50.2839C31.8391 50.0172 69.5621 55.3569 98.5057 69.215C92.7888 71.7794 82.4354 77.8977 77.0826 81.2764C44.8052 101.652 21.6639 127.241 7.98929 163.155C6.53309 166.963 5.23734 170.831 4.10551 174.747C3.49649 176.884 3.0943 180.934 1.36927 182.141C0.520137 181.548 0.484511 181.059 0 180.043V50.2839Z" fill="#0772AF"/>
<path d="M125.783 69.5062C145.094 58.2037 175.16 49.1698 197.549 48.9268L197.564 143.538C197.568 160.736 197.974 179.79 197.338 196.826H178.837C181.228 189.863 184.112 183.472 186.357 176.264C192.135 157.72 193.192 137.875 184.733 120.03C175.269 100.069 146.033 78.2403 125.783 69.5062Z" fill="#0772AF"/>
<path d="M0 36.627C65.5124 36.8903 131.424 36.0505 196.837 36.54C196.837 36.5544 196.837 36.5687 196.837 36.583L197.557 36.9326L197.6 45.5371C191.926 45.5375 185.047 45.4003 179.478 45.7588C156.175 47.4203 133.358 53.2476 112.113 62.9639C101.743 59.2996 90.5185 55.1483 79.7939 52.7061C55.1982 47.1049 25.1609 44.8695 0 46.5303V36.627ZM197.47 0C197.491 9.35183 197.79 20.0177 197.538 29.2441L196.94 29.8848C196.94 29.9117 196.939 29.9389 196.938 29.9658L0 30.0039V0H197.47Z" fill="#0772AF"/>
</svg>
