<svg width="414" height="222" viewBox="0 0 414 222" fill="none" xmlns="http://www.w3.org/2000/svg">
<g clip-path="url(#clip0_12_514)">
<path d="M107.471 0.00285567C106.334 -0.0252233 105.174 0.153243 104.044 0.561469C100.265 1.94297 97.9168 5.48291 97.8518 9.2739L97.8421 9.2642C97.7933 5.48336 95.4372 1.94418 91.6583 0.562678C88.0357 -0.743647 84.1142 0.302253 81.6173 2.94133C81.5401 3.02246 81.4907 3.1301 81.4682 3.25396C81.4417 3.55058 81.6512 3.82331 81.9457 3.85377C82.1183 3.87816 82.2892 3.81087 82.3989 3.69503C82.8703 3.2745 83.4896 3.02252 84.1621 3.02252C85.6249 3.02252 86.8135 4.20909 86.8135 5.66169C86.8135 6.89284 85.9647 8.09193 84.8249 8.38448H84.8299C71.522 12.1735 60.5349 21.4786 54.5129 33.6723V33.6675C54.2976 34.1104 53.8353 34.3888 53.3193 34.334C53.2665 34.3319 53.21 34.3154 53.1593 34.3037C52.0277 33.9949 50.823 33.8953 49.5918 34.0334C46.0749 34.4357 43.2248 36.7344 41.9671 39.8062C41.9406 39.8571 41.9214 39.9061 41.9174 39.9649C41.883 40.2636 42.0961 40.5343 42.3949 40.5647C42.5635 40.5891 42.7166 40.5335 42.8263 40.4339C43.5272 39.7939 44.4368 39.3517 45.4547 39.2318C48.039 38.9352 50.3659 40.7902 50.6666 43.3723C50.7236 43.864 50.6966 44.3458 50.6012 44.8192H50.6085C49.94 47.9153 49.5566 51.1125 49.4997 54.3956L49.4924 101.574L31.5093 79.5247C30.9952 78.7791 30.7034 77.8938 30.7034 76.9206C30.7034 74.4075 32.747 72.3536 35.2562 72.3536C36.7393 72.3536 38.0662 73.0667 38.9013 74.1821C39.0192 74.3244 39.1937 74.4112 39.3969 74.393C39.6915 74.3542 39.9089 74.0878 39.8743 73.781C39.8743 73.7545 39.8669 73.7491 39.8622 73.7289C39.0231 69.5519 35.3433 66.4051 30.9264 66.4051C28.3542 66.4051 26.047 67.463 24.3911 69.1594C20.5695 64.2856 14.6325 61.151 7.95427 61.151C3.5617 61.151 0 64.7065 0 69.0988C0 73.475 3.5617 77.0406 7.95427 77.0406C9.63451 77.0406 10.991 75.6894 10.991 74.0052C10.991 72.3251 9.63451 70.9613 7.95427 70.9613V70.971C6.08511 70.971 4.55759 69.4593 4.55759 67.5842C4.55759 65.713 6.08511 64.1913 7.95427 64.1913V64.1755C14.0779 64.1755 19.0313 72.1699 19.0313 82.0293L19.1343 121.286L19.1295 121.267C19.1295 121.702 18.9045 122.115 18.4982 122.32C18.3235 122.403 18.1402 122.449 17.9553 122.449C15.8301 122.459 13.7014 123.197 11.946 124.672C9.24174 126.961 8.14629 130.46 8.80254 133.71C8.79782 133.686 8.80309 133.774 8.85586 133.874C8.99187 134.142 9.31878 134.251 9.589 134.103C9.7372 134.022 9.82832 133.904 9.86286 133.748C10.1026 132.836 10.6116 131.964 11.3958 131.298C13.3788 129.624 16.3409 129.873 18.0231 131.85C18.7729 132.734 19.1336 133.819 19.1295 134.901L19.1344 134.894L19.0313 151.108C19.0313 160.968 14.0779 168.965 7.95427 168.965V168.934C6.08511 168.934 4.55759 167.428 4.55759 165.561C4.55759 163.684 6.08511 162.169 7.95427 162.169V162.178C9.63452 162.178 10.991 160.815 10.991 159.139C10.991 157.452 9.63452 156.102 7.95427 156.102C3.5617 156.102 0 159.653 0 164.039C0 168.425 3.5617 171.993 7.95427 171.993C15.3152 171.993 21.7823 168.177 25.4963 162.421C27.1603 164.179 29.5105 165.28 32.1212 165.28C36.5524 165.28 40.2398 162.125 41.0667 157.934C41.0688 157.92 41.074 157.909 41.074 157.905C41.1045 157.602 40.8936 157.327 40.5929 157.294C40.414 157.271 40.2446 157.345 40.1288 157.471C38.9606 158.904 37.1778 159.856 35.1847 159.856C31.6617 159.856 28.8166 157 28.8166 153.483V151.785C28.8187 151.557 28.8288 151.332 28.8288 151.108V89.6124L49.4912 114.927V166.79C49.4912 170.355 49.8811 173.828 50.6024 177.184H50.5976C50.693 177.649 50.72 178.137 50.663 178.634C50.3623 181.212 48.0354 183.061 45.4511 182.775C44.4332 182.647 43.5236 182.216 42.8227 181.578C42.7129 181.466 42.5599 181.411 42.3913 181.433C42.0926 181.466 41.8793 181.747 41.9138 182.042C41.9185 182.105 41.937 182.147 41.9623 182.198C43.2199 185.266 46.0712 187.573 49.5881 187.97C50.8194 188.1 52.024 188.002 53.1557 187.699C53.2066 187.69 53.2629 187.672 53.3156 187.664C53.8317 187.616 54.2927 187.892 54.5081 188.331C60.5341 200.527 71.5184 209.826 84.8261 213.613H84.8212C85.9609 213.917 86.8097 215.112 86.8097 216.335C86.8097 217.802 85.6211 218.974 84.1583 218.974C83.4858 218.974 82.8665 218.724 82.3951 218.312C82.2854 218.19 82.1146 218.123 81.9419 218.146C81.6473 218.18 81.438 218.452 81.4645 218.744C81.4879 218.874 81.5361 218.974 81.6135 219.062C84.1105 221.697 88.0307 222.75 91.6533 221.432C95.4323 220.063 97.7896 216.53 97.8383 212.739L97.848 212.736C97.913 216.517 100.261 220.063 104.04 221.432C107.657 222.75 111.577 221.697 114.07 219.062C114.15 218.974 114.207 218.874 114.219 218.744C114.256 218.452 114.04 218.18 113.74 218.146C113.577 218.122 113.413 218.19 113.295 218.312C112.828 218.724 112.216 218.974 111.523 218.974C110.071 218.974 108.886 217.802 108.886 216.335C108.886 215.112 109.733 214.09 110.863 213.798L110.858 213.791C121.299 210.975 130.361 204.776 136.765 196.442C138.807 193.831 140.68 191.065 142.348 188.166C142.579 187.749 143.245 187.135 143.747 187.227C143.831 187.236 143.914 187.264 143.997 187.292C145.175 187.766 146.463 187.997 147.817 187.934C151.36 187.79 154.374 185.691 155.845 182.719C155.871 182.666 155.887 182.619 155.896 182.566C155.948 182.27 155.758 181.981 155.469 181.93C155.298 181.896 155.139 181.945 155.023 182.043C154.277 182.636 153.34 182.997 152.314 183.032C149.725 183.158 147.471 181.12 147.354 178.528C147.337 177.916 147.424 177.315 147.617 176.768C150.244 169.491 151.497 162.027 151.497 153.864C151.497 139.892 147.388 126.889 140.261 116.018C138.235 113.047 135.808 110.381 133.108 108.01H134.158C146.158 108.01 156.753 114.564 162.033 124.438C165.063 130.098 166.765 141.251 167.922 146.883C168.925 151.944 170.699 156.729 173.104 161.133C176.64 167.604 183.496 171.994 191.399 171.994C195.783 171.994 199.337 168.426 199.337 164.04C199.337 159.654 195.783 156.103 191.399 156.103L191.405 156.106C189.717 156.106 188.359 157.456 188.359 159.142C188.359 160.818 189.717 162.183 191.405 162.183V162.168C193.27 162.168 194.79 163.687 194.79 165.565C194.79 167.432 193.27 168.938 191.405 168.938V168.968C187.212 168.968 183.536 165.908 181.328 161.24C178.416 155.102 176.705 148.294 176.488 141.09C176.479 140.604 176.488 140.105 176.47 139.591C176.417 138.236 176.303 136.889 176.116 135.576L176.123 135.584C175.93 134.296 176.228 132.934 177.136 131.867C178.814 129.886 181.787 129.639 183.776 131.323C184.556 131.985 185.062 132.848 185.294 133.789C185.339 133.919 185.43 134.056 185.568 134.125C185.84 134.261 186.167 134.159 186.297 133.885C186.332 133.842 186.342 133.789 186.358 133.732C187.012 130.479 185.918 126.986 183.207 124.696C180.398 122.307 176.529 121.886 173.352 123.265C173.045 123.393 172.684 123.392 172.361 123.233C172.169 123.124 172.006 122.975 171.911 122.805C168.934 117.301 164.687 112.567 159.544 108.948C167.992 106.642 174.618 99.8872 176.739 91.3707C176.842 91.0558 177.066 90.7898 177.411 90.6558C177.556 90.5988 177.704 90.5625 177.844 90.5625C179.601 90.4893 181.356 89.9186 182.896 88.8297C185.787 86.7777 187.171 83.3924 186.796 80.093C186.791 80.0403 186.778 79.9794 186.76 79.9306C186.647 79.6503 186.324 79.5143 186.045 79.6362C185.897 79.6972 185.784 79.8114 185.735 79.9597C185.43 80.8638 184.845 81.6821 184.01 82.2754C181.893 83.7787 178.957 83.2767 177.454 81.1618C177.137 80.7087 176.91 80.2091 176.765 79.7113C174.169 69.0656 164.577 61.1777 153.14 61.1777H148.537C148.457 55.5908 147.669 50.1511 146.218 44.9949C146.1 44.489 146.058 43.9331 146.123 43.3724C146.413 40.7902 148.742 38.9352 151.326 39.2318C152.342 39.3517 153.241 39.7818 153.948 40.4218C154.066 40.5336 154.219 40.5891 154.377 40.5647C154.682 40.5343 154.902 40.2636 154.861 39.9649C154.854 39.9061 154.854 39.8589 154.818 39.8123C153.565 36.7425 150.715 34.4345 147.188 34.0322C145.849 33.8798 144.542 34.0212 143.325 34.3885C143.249 34.415 143.163 34.4438 143.077 34.46C142.604 34.5048 142.163 34.2607 141.942 33.8747C141.81 33.6147 141.675 33.3527 141.543 33.1028C135.355 20.9965 124.253 11.819 110.862 8.20273H110.867C109.737 7.91424 108.89 6.89285 108.89 5.66171C108.89 4.20911 110.074 3.02253 111.527 3.02253C112.22 3.02253 112.831 3.27452 113.299 3.69505C113.417 3.81088 113.581 3.87696 113.743 3.85257C114.044 3.82209 114.26 3.5506 114.223 3.25397C114.212 3.12993 114.155 3.02252 114.075 2.94134C112.361 1.12697 109.972 0.0646295 107.471 0.00285567ZM90.5119 20.6788C93.9821 20.6788 96.9426 22.9086 98.0214 26.019C99.0983 22.9086 102.052 20.6788 105.529 20.6788C115.137 20.6788 123.674 25.3805 128.845 32.6557C131.395 36.2517 133.324 40.323 134.491 44.7113C135.886 49.9569 136.632 55.4908 136.673 61.1753H126.711C122.7 61.1753 118.919 62.141 115.571 63.8556C107.019 62.7647 100.469 56.6327 100.469 49.2275H100.494C100.494 47.3584 102.006 45.8431 103.877 45.8431C105.75 45.8431 107.274 47.3584 107.274 49.2275H107.26C107.26 50.9036 108.623 52.2593 110.299 52.2593C111.99 52.2593 113.336 50.9036 113.336 49.2275C113.336 44.8372 109.785 41.2857 105.393 41.2857C101.961 41.2857 99.0678 43.4658 97.9584 46.5071C96.841 43.4678 93.9402 41.2857 90.5168 41.2857C86.1303 41.2857 82.5722 44.8473 82.5722 49.2275C82.5722 50.9036 83.934 52.2593 85.6162 52.2593C87.2904 52.2593 88.6433 50.9036 88.6433 49.2275C88.6433 47.3584 90.159 45.8431 92.0364 45.8431C93.8995 45.8431 95.4185 47.3584 95.4185 49.2275H95.4379C95.4379 57.4047 87.4403 64.0081 77.5783 64.0386C74.0167 64.0456 69.2775 63.4242 66.1426 61.1753C67.0873 66.2076 71.7948 69.6529 76.0817 70.0186V73.8755V101.254H60.372V54.3944C60.372 46.2374 62.9722 38.6718 67.381 32.5018C72.5721 25.3363 80.9974 20.6788 90.5119 20.6788ZM97.9584 53.5752C99.3635 60.2027 103.871 65.6823 109.931 68.3427C109.915 79.3033 109.915 90.2729 109.915 101.254H85.9773V68.3427C92.0374 65.6823 96.5393 60.2027 97.9584 53.5752ZM129.825 67.0668H136.437C136.118 70.9532 135.486 74.7441 134.525 78.399C132.249 87.0836 126.939 94.5248 119.821 99.5815L119.828 70.027C122.709 68.1641 126.138 67.0668 129.825 67.0668ZM148.378 67.0692H149.195C159.359 67.0692 167.602 75.3155 167.602 85.4817C167.602 95.4102 159.758 103.495 149.918 103.877V103.876C149.542 103.885 149.195 103.896 149.195 103.896H134.156L128.543 103.888C136.566 98.555 142.689 90.6067 145.663 81.243C147.09 76.7165 148.006 71.9695 148.378 67.0692ZM60.372 111.745H76.0806V134.157L60.372 114.911V111.745ZM85.9761 111.745H109.914V144.48V148.027C109.914 153.693 108.804 159.079 106.807 163.969C106.12 165.661 105.335 167.299 104.431 168.865C103.476 170.545 102.401 172.143 101.233 173.654C100.765 174.253 100.275 174.834 99.7773 175.411L97.9402 177.284L96.1031 175.411C95.6013 174.834 95.1223 174.253 94.6551 173.654C93.4807 172.143 92.4137 170.545 91.4426 168.865C90.5506 167.299 89.7562 165.661 89.0674 163.969C87.0764 159.079 85.9664 153.693 85.9664 148.027V144.48V129.455H85.9761L85.9761 111.745ZM119.818 113.337C125.527 117.384 130.067 122.977 132.813 129.509C136.257 137.615 138.15 146.527 138.15 155.877L138.151 155.878C138.151 165.406 136.179 174.465 132.607 182.671C128.885 191.203 122.097 198.076 113.639 201.924L113.632 201.9C112.632 202.365 111.515 202.617 110.35 202.617C109.223 202.617 108.169 202.381 107.212 201.973C103.266 200.301 100.022 197.324 98.0203 193.571C96.015 197.324 92.7763 200.301 88.8348 201.973C87.8698 202.381 86.8136 202.617 85.7023 202.617C84.6844 202.617 83.7146 202.429 82.8146 202.078C69.5922 196.223 60.3708 182.995 60.3708 167.607V128.26L76.6259 148.177C76.7256 148.884 76.7973 149.604 76.9192 150.297C76.9761 150.595 77.0314 150.898 77.0985 151.215C78.2952 157.076 80.5012 162.541 83.5101 167.397C84.0526 168.25 84.6009 169.095 85.1861 169.907C87.2157 172.764 89.5527 175.353 92.1188 177.663L93.0773 178.494L95.0077 180.002C94.989 180.031 94.9645 180.048 94.9423 180.07C93.6156 181.139 92.2183 182.12 90.7555 183.01L90.4283 183.211C90.2496 183.282 90.0623 183.325 89.8612 183.325C89.1399 183.325 88.534 182.79 88.3755 182.071L88.3693 182.043C87.8106 179.948 85.8333 178.819 84.082 178.819C81.5423 178.819 79.6878 180.909 79.5922 183.107C79.5212 184.698 80.3026 186.077 81.4851 186.944C82.6188 187.771 83.97 187.916 85.2174 187.664C88.4196 186.687 91.6534 185.546 94.2102 184.247C95.4882 183.593 96.7272 182.855 97.9401 182.068C99.151 182.855 100.382 183.593 101.664 184.247C104.736 185.685 107.856 186.901 110.669 187.664C111.914 187.916 113.26 187.771 114.398 186.944C115.572 186.077 116.357 184.698 116.288 183.107C116.209 180.909 114.354 178.819 111.796 178.819C110.049 178.819 108.068 179.948 107.505 182.043L107.501 182.071C107.347 182.79 106.745 183.325 106.024 183.325C105.819 183.325 105.632 183.282 105.453 183.211L105.126 183.01C103.663 182.12 102.269 181.139 100.94 180.07C100.917 180.047 100.895 180.032 100.869 180.007L102.803 178.493L103.76 177.663C106.335 175.353 108.66 172.764 110.694 169.907C111.279 169.095 111.831 168.25 112.363 167.397C115.378 162.541 117.588 157.076 118.783 151.215C118.846 150.898 118.907 150.595 118.958 150.297C119.51 147.314 119.809 144.238 119.809 141.087V121.204H119.818L119.818 113.337Z" fill="black"/>
<path d="M229.155 74.8852C232.847 73.6703 234.72 71.3563 234.72 67.9716C234.72 65.5174 233.773 63.7154 231.923 62.6224C230.137 61.5416 227.353 61.0215 223.637 61.0215H215.974L215.995 61.444C216.157 65.04 216.245 70.9236 216.245 78.9464C216.245 84.0356 216.104 87.9932 215.822 90.7115L215.769 91.2255L216.283 91.1767C216.488 91.1523 217.025 91.1197 218.431 91.1197C219.741 91.1197 221.312 91.1409 222.482 91.1585L223.551 91.1772C231.505 91.1772 235.53 88.0973 235.53 82.037C235.53 78.2135 233.389 75.8116 229.155 74.8852ZM228.199 72.5331C226.682 73.7541 224.101 74.2071 220.505 73.8963V63.2181H223.341C227.872 63.2181 229.989 64.7967 229.989 68.2017C229.989 70.1622 229.41 71.5823 228.199 72.5331ZM220.505 76.4602C221.775 76.3666 222.547 76.3179 222.962 76.3179C228.23 76.3179 230.802 78.3434 230.802 82.496C230.802 84.4403 230.125 85.9843 228.795 87.0997C227.435 88.2272 225.524 88.7981 223.124 88.7981H220.505V76.4602Z" fill="black"/>
<path d="M247.863 66.9232L247.685 66.4844H246.116L245.935 66.911C242.975 73.8226 239.475 81.7154 235.513 90.3762L235.07 91.3514H238.865L239.034 90.8821C240.208 87.5157 241.311 84.645 242.313 82.3432C243.111 82.3221 244.633 82.3148 246.017 82.3148C247.388 82.3148 248.904 82.3218 249.696 82.3432L253.15 91.3514H258.057L257.638 90.3802C254.286 82.6682 251.002 74.7754 247.863 66.9232ZM248.506 79.4745H243.477L246.153 73.2355L248.506 79.4745Z" fill="black"/>
<path d="M277.127 83.2289C271.308 77.3271 266.154 71.7807 261.794 66.7301L261.621 66.5331L259.92 66.4844V70.7589C259.92 77.902 259.776 84.5901 259.492 90.6281L259.449 91.3514H263.003V74.5885L269.969 81.9389C273.809 85.9757 276.704 89.206 278.565 91.5261L278.734 91.7334L280.239 91.8105V83.4463C280.239 78.0686 280.309 72.7519 280.445 67.6403L280.471 66.9354H277.127L277.127 83.2289Z" fill="black"/>
<path d="M296.246 66.4854C292.266 66.4854 289.035 67.6555 286.652 69.9594C284.255 72.2673 283.042 75.3574 283.042 79.1606C283.042 83.1324 284.145 86.257 286.327 88.4654C288.511 90.6758 291.605 91.7992 295.512 91.7992C298.974 91.7992 301.65 91.1146 303.479 89.7677L303.767 89.5625L303.7 85.351L302.552 86.3952C300.677 88.1078 298.253 89.0831 295.919 89.0831C293.47 89.0831 291.51 88.2277 290.096 86.5313C288.637 84.7841 287.908 82.3137 287.908 79.1728C287.908 75.9486 288.637 73.4294 290.104 71.6944C291.536 69.9919 293.566 69.1326 296.15 69.1326C299.214 69.1326 301.62 70.2276 302.92 72.2491L304.204 74.2299V68.3768L303.816 68.1716C301.563 67.0522 299.027 66.4854 296.246 66.4854Z" fill="black"/>
<path d="M328.896 90.3802C325.54 82.6377 322.244 74.7449 319.128 66.9232L318.957 66.4844H317.384L317.197 66.911C314.251 73.8083 310.751 81.7032 306.783 90.3762L306.338 91.3493H310.135L310.3 90.8801C311.47 87.5279 312.583 84.6491 313.583 82.3432C314.377 82.3197 315.901 82.3148 317.285 82.3148C318.656 82.3148 320.166 82.3218 320.964 82.3432L324.41 91.3493H329.319L328.896 90.3802ZM319.77 79.4745H314.745L317.425 73.2415L319.77 79.4745Z" fill="black"/>
<path d="M238.113 122.424C230.626 114.849 223.83 107.579 217.903 100.775L217.824 100.682L216.209 100.601V105.734C216.209 114.834 216.018 123.345 215.654 131.048L215.628 131.629H219.465V109.783L228.907 119.732C233.773 124.862 237.471 128.988 239.872 131.987L239.941 132.064L241.412 132.224V121.888C241.412 114.933 241.501 108.17 241.67 101.754L241.687 101.19H238.113L238.113 122.424Z" fill="black"/>
<path d="M257.048 107.255L256.865 106.818H255.298L255.114 107.237C252.18 114.112 248.675 122.007 244.697 130.69L244.25 131.683H248.049L248.212 131.22C249.396 127.866 250.487 124.979 251.487 122.665C252.281 122.646 253.817 122.632 255.197 122.632C256.568 122.632 258.092 122.646 258.884 122.665L262.33 131.683H267.241L266.816 130.712C263.452 122.935 260.16 115.042 257.048 107.255ZM257.69 119.807H252.657L255.333 113.567L257.69 119.807Z" fill="black"/>
<path d="M265.032 107.259L264.315 107.235V110.228H271.434V115.169C271.434 119.51 271.387 124.843 271.269 130.971L271.255 131.684H275.814L275.796 130.969C275.66 125.871 275.588 121.201 275.588 117.091C275.588 114.328 275.639 112.02 275.726 110.228H282.744V107.235L282.029 107.259C275.814 107.389 270.109 107.389 265.032 107.259Z" fill="black"/>
<path d="M274.879 132.735L275.123 132.55L275.08 132.341H272.644L272.443 132.396L272.366 132.542C272.282 132.69 272.215 132.859 272.132 133.084L271.326 137.007L272.313 137.475L274.761 134.131C275.05 133.712 275.184 133.336 275.184 133.001C275.184 132.883 275.177 132.79 275.149 132.68L274.879 132.735Z" fill="black"/>
<path d="M308.193 106.856C304.247 106.856 301.039 108.012 298.664 110.298C296.263 112.598 295.054 115.702 295.054 119.528C295.054 123.394 296.247 126.494 298.607 128.751C300.952 131.014 304.178 132.16 308.193 132.16C312.1 132.16 315.29 130.982 317.681 128.674C320.079 126.354 321.302 123.272 321.302 119.528C321.302 115.684 320.105 112.571 317.748 110.28C315.4 108.01 312.181 106.856 308.193 106.856ZM314.382 126.931C312.951 128.599 310.877 129.446 308.193 129.446C305.499 129.446 303.408 128.611 301.99 126.963C300.546 125.287 299.82 122.809 299.82 119.609C299.82 116.332 300.552 113.784 302.013 112.057C303.449 110.349 305.521 109.481 308.193 109.481C310.916 109.481 313.004 110.326 314.408 111.972C315.844 113.66 316.574 116.177 316.574 119.467C316.574 122.727 315.836 125.23 314.382 126.931Z" fill="black"/>
<path d="M291.23 125.051V114.557C291.23 111.689 291.272 109.474 291.366 107.995L291.404 107.26H286.827L286.878 107.995C287.004 110.055 287.079 113.913 287.079 119.484V122.284C287.079 125.898 287.004 128.813 286.878 130.946L286.827 131.684H291.413L291.366 130.942C291.272 129.604 291.23 127.623 291.23 125.051Z" fill="black"/>
<path d="M342.388 123.566C336.591 117.685 331.426 112.132 327.05 107.057L326.882 106.864L325.177 106.806V111.084C325.177 118.242 325.029 124.928 324.748 130.966L324.718 131.687H328.253V114.92L335.23 122.262C339.066 126.297 341.951 129.527 343.822 131.87L343.987 132.063L345.5 132.134V123.77C345.5 118.351 345.565 113.057 345.701 107.97L345.72 107.259H342.388L342.388 123.566Z" fill="black"/>
<path d="M361.14 107.255L360.97 106.818H359.403L359.229 107.237C356.313 114.035 352.812 121.919 348.808 130.69L348.355 131.683H352.158L352.319 131.22C353.501 127.866 354.602 124.979 355.6 122.665C356.396 122.646 357.924 122.632 359.308 122.632C360.677 122.632 362.191 122.646 362.987 122.665L366.439 131.683H371.337L370.921 130.712C367.587 123.012 364.306 115.122 361.14 107.255ZM361.799 119.807H356.77L359.442 113.569L361.799 119.807Z" fill="black"/>
<path d="M378.155 107.254H373.704L373.728 107.975C373.891 112.199 373.964 116.069 373.964 119.482C373.964 122.534 373.891 126.4 373.728 130.963L373.704 131.723L374.463 131.686C375.802 131.609 377.261 131.574 378.801 131.574L387.334 131.692V128.706H378.155V107.254Z" fill="black"/>
<path d="M411.906 130.713C408.527 122.908 405.236 115.015 402.131 107.26L401.962 106.819H400.378L400.211 107.238C397.234 114.168 393.734 122.056 389.784 130.691L389.339 131.682H393.143L393.301 131.221C394.48 127.867 395.581 124.978 396.584 122.666C397.371 122.647 398.907 122.633 400.286 122.633C401.658 122.633 403.171 122.647 403.97 122.666L407.42 131.682H412.328L411.906 130.713ZM402.783 119.807H397.745L400.426 113.568L402.783 119.807Z" fill="black"/>
<path d="M401.333 105.469C403.158 105.469 404.279 104.437 404.576 102.458L404.647 102.021H403.607L403.363 102.107L403.32 102.328C403.223 102.804 402.9 103.435 401.333 103.435C399.74 103.435 399.421 102.804 399.304 102.249L399.257 102.021H397.995L398.072 102.46C398.377 104.437 399.505 105.469 401.333 105.469Z" fill="black"/>
<path d="M228.514 147.659L228.331 147.223H226.776L226.594 147.639C223.66 154.478 220.173 162.344 216.214 171.005L215.769 171.988H219.548L219.722 171.531C220.897 168.146 221.996 165.284 222.983 163.004C223.778 162.995 225.293 162.99 226.681 162.99C228.04 162.99 229.548 162.995 230.346 163.004L233.774 171.988H238.672L238.239 171.013C234.905 163.321 231.626 155.453 228.514 147.659ZM229.147 160.154H224.145L226.807 153.945L229.147 160.154Z" fill="black"/>
<path d="M265.333 157.266C267.876 156.699 269.89 155.759 271.3 154.43C272.862 152.973 273.657 151.151 273.657 149.02C273.657 144.122 270.249 141.633 263.526 141.633H254.181L254.211 142.074C254.408 145.615 254.512 150.582 254.512 156.827C254.512 163.276 254.408 168.227 254.211 171.526L254.181 171.967H258.886V157.457H259.292C259.798 157.457 260.274 157.715 260.68 158.225L270.798 171.853L270.885 171.967H277.05L276.501 171.284C271.221 164.767 267.462 160.049 265.333 157.266ZM258.886 144.05H262.08C266.838 144.05 269.067 145.779 269.067 149.477C269.067 153.418 265.979 155.417 259.886 155.417H258.886V144.05Z" fill="black"/>
<path d="M289.327 147.171C285.386 147.171 282.173 148.331 279.794 150.61C277.397 152.904 276.192 156.008 276.192 159.816C276.192 163.684 277.389 166.79 279.745 169.049C282.094 171.304 285.314 172.442 289.327 172.442C293.224 172.442 296.412 171.276 298.809 168.966C301.204 166.65 302.417 163.572 302.417 159.816C302.417 155.974 301.225 152.882 298.864 150.602C296.525 148.321 293.311 147.171 289.327 147.171ZM295.499 167.221C294.075 168.897 291.991 169.746 289.327 169.746C286.629 169.746 284.544 168.907 283.128 167.255C281.688 165.581 280.95 163.111 280.95 159.907C280.95 156.632 281.702 154.097 283.155 152.366C284.573 150.667 286.655 149.808 289.327 149.808C292.037 149.808 294.128 150.637 295.534 152.282C296.966 153.971 297.69 156.482 297.69 159.773C297.69 163.011 296.962 165.527 295.499 167.221Z" fill="black"/>
<path d="M328.959 147.761L328.896 147.137H327.411L327.216 147.507C323.758 154.016 320.623 159.794 317.884 164.68C315.438 160.186 312.47 154.414 309.038 147.507L308.849 147.108L307.202 147.151L307.137 147.722C305.621 159.786 304.451 167.654 303.675 171.126L303.478 171.967H307.59L307.629 171.315C307.692 170.486 308.153 163.359 308.982 156.787L316.438 171.585L316.627 171.967H317.954L325.723 156.866L327.277 171.967H331.737L331.645 171.193C330.463 161.454 329.559 153.561 328.959 147.761Z" fill="black"/>
<path d="M346.649 147.573L346.474 147.143H344.903L344.719 147.561C341.777 154.454 338.276 162.339 334.326 170.994L333.863 171.969H337.671L337.823 171.506C339.024 168.095 340.127 165.222 341.1 162.955C341.897 162.945 343.429 162.936 344.806 162.936C346.181 162.936 347.691 162.943 348.485 162.955L351.931 171.969H356.832L356.409 171.004C353.057 163.261 349.769 155.375 346.649 147.573ZM347.295 160.104H342.27L344.946 153.877L347.295 160.104Z" fill="black"/>
<path d="M345.806 144.751L348.338 146.978H349.827L346.684 142.25H344.919L341.777 146.996L343.356 146.949L345.806 144.751Z" fill="black"/>
<path d="M376.474 163.864C370.674 157.981 365.521 152.437 361.141 147.372L360.979 147.187L359.28 147.126V151.394C359.28 158.592 359.142 165.266 358.843 171.251L358.809 171.969H362.358V155.226L369.317 162.56C373.149 166.587 376.032 169.807 377.907 172.147L378.059 172.342L379.583 172.432V164.072C379.583 158.635 379.648 153.331 379.778 148.276L379.797 147.573H376.475L376.474 163.864Z" fill="black"/>
<path d="M388.369 165.348V154.871C388.369 151.998 388.416 149.786 388.504 148.307L388.544 147.571H383.969L384.013 148.307C384.154 150.316 384.223 154.174 384.223 159.789V162.587C384.223 166.274 384.153 169.184 384.013 171.242L383.969 171.967H388.544L388.504 171.242C388.416 169.911 388.369 167.932 388.369 165.348Z" fill="black"/>
<path d="M397.383 160.467H405.292V157.649H397.383L397.44 150.577H406.209V147.564L405.498 147.571C401.883 147.634 399.295 147.669 397.798 147.669C396.345 147.669 394.978 147.638 393.73 147.579L392.956 147.528L392.993 148.306C393.153 151.224 393.228 155.003 393.228 159.517C393.228 164.519 393.141 168.464 392.966 171.227L392.909 171.967H406.341V168.931H397.383V160.467Z" fill="black"/>
<path d="M409.459 171.242L409.404 171.969H414L413.947 171.242C413.854 169.911 413.817 167.934 413.817 165.348V154.873C413.817 151.998 413.854 149.786 413.951 148.309L413.988 147.573H409.404L409.459 148.309C409.591 150.318 409.666 154.174 409.666 159.789V162.583C409.666 166.262 409.591 169.161 409.459 171.242Z" fill="black"/>
</g>
<defs>
<clipPath id="clip0_12_514">
<rect width="414" height="222" fill="white"/>
</clipPath>
</defs>
</svg>
