<svg width="377" height="96" viewBox="0 0 377 96" fill="none" xmlns="http://www.w3.org/2000/svg">
<path fill-rule="evenodd" clip-rule="evenodd" d="M94.7377 0.147307C103.204 -0.165239 113.513 0.116789 122.125 0.116369C123.744 4.32514 126.089 9.38758 127.897 13.5852L146.175 56.0705C147.224 58.5088 149.036 63.0398 150.287 65.182C150.017 57.7711 150.201 49.4503 150.2 41.9677L150.196 0.139941C158.622 -0.0143315 167.465 0.122618 175.924 0.124717L207.002 42.0811L207.005 0.126191L228.544 0.111949L228.527 65.5646C230.677 60.1449 233.479 54.1003 235.833 48.6857L250.228 15.578C252.351 10.6932 254.964 5.03479 256.866 0.133557C265.889 0.0061457 275.182 0.114789 284.23 0.101146C291.473 17.5444 299.341 34.8128 306.651 52.2357C308.475 56.5834 310.392 61.2243 312.436 65.4566C312.044 59.0357 312.325 49.4968 312.325 42.8855L312.338 0.118824L376.096 0.112932V15.0771C362.32 15.2444 348.409 14.9925 334.604 15.1159L334.638 26.565L373.161 26.5713L373.155 41.0297L334.617 41.0189L334.604 66.8841L288.995 66.8876C287.78 63.334 286.331 59.6042 285.017 56.0651L255.865 56.0357L251.874 66.8772L203.866 66.888C201.403 63.1348 196.218 56.7563 193.355 52.9861L171.796 24.5849C171.651 38.5823 171.786 52.874 171.805 66.8856L126.914 66.891C125.56 63.2874 124.232 59.6738 122.931 56.0509L93.7418 56.0371C92.5139 59.6049 91.046 63.2669 89.7763 66.8812L65.7993 66.8714L91.2098 8.45687C92.327 5.89799 93.8098 2.7341 94.7377 0.147307ZM117.862 44.9245C112.111 44.655 104.705 44.8363 98.8446 44.8754C101.458 51.688 109.748 52.3448 115.271 48.6037C116.704 47.2429 117.051 46.7315 117.862 44.9245ZM280.027 44.8926C273.823 44.8267 267.222 44.7811 261.021 44.8823C263.175 51.4648 272.309 52.434 277.323 48.6749C278.849 47.3037 279.155 46.7635 280.027 44.8926ZM99.0125 42.118L108.534 42.1435L117.635 42.1185C116.789 39.8155 108.836 17.6387 108.212 17.009L99.0125 42.118ZM261.143 42.1327L271.182 42.1435L279.756 42.1253C278.741 39.3574 270.993 17.7358 270.332 17.036L261.143 42.1327Z" fill="black"/>
<path fill-rule="evenodd" clip-rule="evenodd" d="M28.6126 0.118164C38.3265 5.8205 45.385 6.10033 56.3017 5.72041C59.8479 30.0964 54.5436 57.6125 28.7069 66.7479C21.9957 65.1615 14.3762 59.3149 10.2683 53.8472C-0.0860522 40.0644 -1.25999 22.193 0.915188 5.73268C11.5717 6.0045 19.172 5.91292 28.6126 0.118164ZM28.6529 33.0598C21.623 33.0254 14.5931 33.0337 7.56343 33.0854C9.22781 40.1448 11.6617 46.14 16.4088 51.7179C20.351 56.0176 23.2823 58.0326 28.6372 60.275L28.6529 33.0598ZM28.6529 33.0598C35.5844 32.9507 42.7659 33.0424 49.7178 33.05C51.1287 25.746 51.5446 19.4883 50.918 12.0175L46.4604 11.8486C39.3445 11.1861 35.1688 10.3278 28.6661 7.30905L28.6529 33.0598Z" fill="black"/>
<path d="M366.724 85.5348H365.633C365.754 83.4387 367.192 82.5378 369.253 82.5378C370.83 82.5378 372.545 83.0056 372.545 85.4136V90.1603C372.545 90.5934 372.753 90.8186 373.186 90.8186C373.307 90.8186 373.411 90.8012 373.532 90.7493V91.6674C373.272 91.7194 373.116 91.7367 372.822 91.7367C371.713 91.7367 371.54 91.0957 371.54 90.1776H371.505C370.726 91.3383 369.981 91.9966 368.248 91.9966C366.585 91.9966 365.251 91.1824 365.251 89.3807C365.251 86.8861 367.694 86.7821 370.05 86.505C370.951 86.4183 371.453 86.2624 371.453 85.2923C371.453 83.8198 370.414 83.456 369.115 83.456C367.746 83.456 366.776 84.0796 366.724 85.5348ZM371.453 88.272V86.8514H371.419C371.28 87.1113 370.795 87.1979 370.501 87.2499C368.647 87.579 366.343 87.579 366.343 89.3114C366.343 90.4028 367.296 91.0784 368.335 91.0784C370.015 91.0784 371.453 90.0217 371.453 88.272ZM366.741 79.1943H367.417C367.469 80.1298 368.335 80.6149 369.201 80.6149C370.085 80.6149 370.899 80.0952 371.038 79.1943H371.713C371.523 80.5629 370.587 81.3945 369.201 81.3945C367.798 81.3945 366.863 80.5976 366.741 79.1943Z" fill="black"/>
<path d="M362.556 91.7363V79.3672H363.648V91.7363H362.556Z" fill="black"/>
<path d="M354.543 85.5351H353.452C353.573 83.4389 355.011 82.5381 357.073 82.5381C358.649 82.5381 360.364 83.0058 360.364 85.4138V90.1605C360.364 90.5936 360.572 90.8188 361.005 90.8188C361.126 90.8188 361.23 90.8015 361.352 90.7495V91.6677C361.092 91.7197 360.936 91.737 360.641 91.737C359.533 91.737 359.359 91.096 359.359 90.1779H359.325C358.545 91.3385 357.8 91.9968 356.068 91.9968C354.405 91.9968 353.071 91.1826 353.071 89.381C353.071 86.8863 355.513 86.7824 357.869 86.5052C358.77 86.4186 359.273 86.2627 359.273 85.2926C359.273 83.82 358.233 83.4562 356.934 83.4562C355.565 83.4562 354.595 84.0799 354.543 85.5351ZM359.273 88.2722V86.8517H359.238C359.099 87.1116 358.614 87.1982 358.32 87.2501C356.466 87.5793 354.162 87.5793 354.162 89.3117C354.162 90.4031 355.115 91.0787 356.154 91.0787C357.835 91.0787 359.273 90.0219 359.273 88.2722Z" fill="black"/>
<path d="M351.97 85.6044H350.878C350.584 84.2705 349.787 83.4562 348.349 83.4562C346.27 83.4562 345.213 85.3792 345.213 87.2675C345.213 89.1558 346.27 91.0787 348.349 91.0787C349.683 91.0787 350.809 90.0046 350.948 88.5321H352.039C351.745 90.6976 350.359 91.9968 348.349 91.9968C345.629 91.9968 344.122 89.8314 344.122 87.2675C344.122 84.7036 345.629 82.5381 348.349 82.5381C350.272 82.5381 351.71 83.5429 351.97 85.6044Z" fill="black"/>
<path d="M342.677 85.4138H341.585C341.533 84.0626 340.494 83.4562 339.246 83.4562C338.276 83.4562 337.133 83.8374 337.133 84.9981C337.133 85.9509 338.224 86.3147 338.987 86.5052L340.442 86.8344C341.689 87.0249 342.988 87.7525 342.988 89.3117C342.988 91.2519 341.065 91.9968 339.402 91.9968C337.306 91.9968 335.92 91.044 335.73 88.8439H336.821C336.908 90.3164 337.999 91.0787 339.454 91.0787C340.494 91.0787 341.897 90.6283 341.897 89.381C341.897 88.3415 340.927 87.9951 339.939 87.7525L338.536 87.4407C337.116 87.0769 336.042 86.5572 336.042 85.05C336.042 83.231 337.826 82.5381 339.402 82.5381C341.204 82.5381 342.59 83.4736 342.677 85.4138Z" fill="black"/>
<path d="M333.052 81.1169V79.3672H334.143V81.1169H333.052ZM333.052 91.7363V82.7973H334.143V91.7363H333.052Z" fill="black"/>
<path d="M323.938 91.7363V79.3672H331.785V80.372H325.116V84.8415H331.04V85.8463H325.116V91.7363H323.938Z" fill="black"/>
<path d="M310.566 86.6438H316.352C316.3 84.9981 315.261 83.4562 313.511 83.4562C311.709 83.4562 310.757 85.0154 310.566 86.6438ZM317.444 87.562H310.566C310.566 89.1558 311.432 91.0787 313.511 91.0787C315.105 91.0787 315.971 90.1605 316.317 88.792H317.409C316.941 90.8188 315.78 91.9968 313.511 91.9968C310.67 91.9968 309.475 89.8141 309.475 87.2675C309.475 84.9114 310.67 82.5381 313.511 82.5381C316.369 82.5381 317.53 85.05 317.444 87.562Z" fill="black"/>
<path d="M304.765 91.7372V82.7981H305.77V84.8943H305.805C306.359 83.4391 307.572 82.6076 309.183 82.6769V83.7683C307.208 83.6816 305.857 85.1022 305.857 86.9732V91.7372H304.765Z" fill="black"/>
<path d="M296.769 85.5351H295.678C295.799 83.4389 297.237 82.5381 299.299 82.5381C300.875 82.5381 302.59 83.0058 302.59 85.4138V90.1605C302.59 90.5936 302.798 90.8188 303.231 90.8188C303.352 90.8188 303.456 90.8015 303.578 90.7495V91.6677C303.318 91.7197 303.162 91.737 302.867 91.737C301.759 91.737 301.585 91.096 301.585 90.1779H301.551C300.771 91.3385 300.026 91.9968 298.294 91.9968C296.631 91.9968 295.297 91.1826 295.297 89.381C295.297 86.8863 297.74 86.7824 300.096 86.5052C300.996 86.4186 301.499 86.2627 301.499 85.2926C301.499 83.82 300.459 83.4562 299.16 83.4562C297.792 83.4562 296.821 84.0799 296.769 85.5351ZM301.499 88.2722V86.8517H301.464C301.326 87.1116 300.84 87.1982 300.546 87.2501C298.692 87.5793 296.388 87.5793 296.388 89.3117C296.388 90.4031 297.341 91.0787 298.381 91.0787C300.061 91.0787 301.499 90.0219 301.499 88.2722Z" fill="black"/>
<path d="M290.317 91.7372V82.7981H291.322V84.8943H291.357C291.911 83.4391 293.124 82.6076 294.735 82.6769V83.7683C292.76 83.6816 291.409 85.1022 291.409 86.9732V91.7372H290.317Z" fill="black"/>
<path d="M286.923 80.1123V82.7975H288.742V83.7156H286.923V89.7443C286.923 90.4546 287.027 90.8703 287.807 90.9223C288.119 90.9223 288.431 90.905 288.742 90.8703V91.8058C288.413 91.8058 288.101 91.8405 287.772 91.8405C286.317 91.8405 285.815 91.3554 285.832 89.8309V83.7156H284.273V82.7975H285.832V80.1123H286.923Z" fill="black"/>
<path d="M283.295 85.4138H282.204C282.152 84.0626 281.112 83.4562 279.865 83.4562C278.895 83.4562 277.752 83.8374 277.752 84.9981C277.752 85.9509 278.843 86.3147 279.605 86.5052L281.06 86.8344C282.308 87.0249 283.607 87.7525 283.607 89.3117C283.607 91.2519 281.684 91.9968 280.021 91.9968C277.925 91.9968 276.539 91.044 276.348 88.8439H277.44C277.526 90.3164 278.618 91.0787 280.073 91.0787C281.112 91.0787 282.516 90.6283 282.516 89.381C282.516 88.3415 281.546 87.9951 280.558 87.7525L279.155 87.4407C277.734 87.0769 276.66 86.5572 276.66 85.05C276.66 83.231 278.445 82.5381 280.021 82.5381C281.823 82.5381 283.209 83.4736 283.295 85.4138Z" fill="black"/>
<path d="M273.671 81.1169V79.3672H274.762V81.1169H273.671ZM273.671 91.7363V82.7973H274.762V91.7363H273.671Z" fill="black"/>
<path d="M264.331 91.737V82.7979H265.423V84.3398H265.457C265.873 83.2657 267.051 82.5381 268.316 82.5381C270.828 82.5381 271.59 83.8547 271.59 85.9855V91.737H270.499V86.1587C270.499 84.6343 269.996 83.4562 268.229 83.4562C266.479 83.4562 265.475 84.7728 265.423 86.5225V91.737H264.331Z" fill="black"/>
<path d="M261.168 81.1169V79.3672H262.26V81.1169H261.168ZM261.168 91.7363V82.7973H262.26V91.7363H261.168Z" fill="black"/>
<path d="M246.72 91.737V82.7979H247.725V84.3051H247.777C248.349 83.2137 249.267 82.5381 250.705 82.5381C251.883 82.5381 252.94 83.1098 253.269 84.2878C253.806 83.1098 254.932 82.5381 256.11 82.5381C258.085 82.5381 259.072 83.5775 259.072 85.6737V91.737H257.981V85.7257C257.981 84.2531 257.444 83.4562 255.867 83.4562C253.979 83.4562 253.442 85.0154 253.442 86.6785V91.737H252.351V85.6737C252.351 84.461 251.883 83.4562 250.48 83.4562C248.609 83.4562 247.812 84.8768 247.812 86.7478V91.737H246.72Z" fill="black"/>
<path d="M244.638 79.3672V91.7363H243.633V90.0386H243.599C243.131 91.2166 241.71 91.9962 240.411 91.9962C237.691 91.9962 236.392 89.8134 236.392 87.2668C236.392 84.7202 237.691 82.5374 240.411 82.5374C241.728 82.5374 243.061 83.2131 243.512 84.495H243.547V79.3672H244.638ZM237.483 87.2668C237.483 89.1205 238.332 91.078 240.411 91.078C242.715 91.078 243.547 89.1205 243.547 87.2668C243.547 85.4132 242.715 83.4556 240.411 83.4556C238.332 83.4556 237.483 85.4132 237.483 87.2668Z" fill="black"/>
<path d="M230.296 80.5452L227.818 86.8857H232.686L230.296 80.5452ZM224.7 91.7363L229.689 79.3672H231.006L235.857 91.7363H234.592L233.085 87.8905H227.455L225.965 91.7363H224.7Z" fill="black"/>
<path d="M212.697 86.6438H218.483C218.431 84.9981 217.392 83.4562 215.642 83.4562C213.84 83.4562 212.888 85.0154 212.697 86.6438ZM219.575 87.562H212.697C212.697 89.1558 213.563 91.0787 215.642 91.0787C217.236 91.0787 218.102 90.1605 218.449 88.792H219.54C219.072 90.8188 217.912 91.9968 215.642 91.9968C212.801 91.9968 211.606 89.8141 211.606 87.2675C211.606 84.9114 212.801 82.5381 215.642 82.5381C218.501 82.5381 219.661 85.05 219.575 87.562Z" fill="black"/>
<path d="M209.973 79.3672V91.7363H208.969V90.0386H208.934C208.466 91.2166 207.046 91.9962 205.746 91.9962C203.027 91.9962 201.727 89.8134 201.727 87.2668C201.727 84.7202 203.027 82.5374 205.746 82.5374C207.063 82.5374 208.397 83.2131 208.847 84.495H208.882V79.3672H209.973ZM202.819 87.2668C202.819 89.1205 203.668 91.078 205.746 91.078C208.05 91.078 208.882 89.1205 208.882 87.2668C208.882 85.4132 208.05 83.4556 205.746 83.4556C203.668 83.4556 202.819 85.4132 202.819 87.2668Z" fill="black"/>
<path d="M189.291 85.5348H188.2C188.321 83.4387 189.759 82.5378 191.82 82.5378C193.397 82.5378 195.112 83.0056 195.112 85.4136V90.1603C195.112 90.5934 195.32 90.8186 195.753 90.8186C195.874 90.8186 195.978 90.8012 196.099 90.7493V91.6674C195.839 91.7194 195.684 91.7367 195.389 91.7367C194.28 91.7367 194.107 91.0957 194.107 90.1776H194.072C193.293 91.3383 192.548 91.9966 190.816 91.9966C189.153 91.9966 187.819 91.1824 187.819 89.3807C187.819 86.8861 190.261 86.7821 192.617 86.505C193.518 86.4183 194.021 86.2624 194.021 85.2923C194.021 83.8198 192.981 83.456 191.682 83.456C190.313 83.456 189.343 84.0796 189.291 85.5348ZM194.021 88.272V86.8514H193.986C193.847 87.1113 193.362 87.1979 193.068 87.2499C191.214 87.579 188.91 87.579 188.91 89.3114C188.91 90.4028 189.863 91.0784 190.902 91.0784C192.583 91.0784 194.021 90.0217 194.021 88.272ZM189.308 79.1943H189.984C190.036 80.1298 190.902 80.6149 191.768 80.6149C192.652 80.6149 193.466 80.0952 193.605 79.1943H194.28C194.09 80.5629 193.154 81.3945 191.768 81.3945C190.365 81.3945 189.43 80.5976 189.308 79.1943Z" fill="black"/>
<path d="M185.124 91.7363V79.3672H186.215V91.7363H185.124Z" fill="black"/>
<path d="M177.11 85.5351H176.019C176.14 83.4389 177.578 82.5381 179.639 82.5381C181.216 82.5381 182.931 83.0058 182.931 85.4138V90.1605C182.931 90.5936 183.139 90.8188 183.572 90.8188C183.693 90.8188 183.797 90.8015 183.918 90.7495V91.6677C183.659 91.7197 183.503 91.737 183.208 91.737C182.099 91.737 181.926 91.096 181.926 90.1779H181.892C181.112 91.3385 180.367 91.9968 178.635 91.9968C176.972 91.9968 175.638 91.1826 175.638 89.381C175.638 86.8863 178.08 86.7824 180.436 86.5052C181.337 86.4186 181.84 86.2627 181.84 85.2926C181.84 83.82 180.8 83.4562 179.501 83.4562C178.132 83.4562 177.162 84.0799 177.11 85.5351ZM181.84 88.2722V86.8517H181.805C181.666 87.1116 181.181 87.1982 180.887 87.2501C179.033 87.5793 176.729 87.5793 176.729 89.3117C176.729 90.4031 177.682 91.0787 178.721 91.0787C180.402 91.0787 181.84 90.0219 181.84 88.2722Z" fill="black"/>
<path d="M166.801 91.737V82.7979H167.892V84.3398H167.927C168.343 83.2657 169.521 82.5381 170.785 82.5381C173.297 82.5381 174.059 83.8547 174.059 85.9855V91.737H172.968V86.1587C172.968 84.6343 172.466 83.4562 170.699 83.4562C168.949 83.4562 167.944 84.7728 167.892 86.5225V91.737H166.801Z" fill="black"/>
<path d="M160.968 83.4562C158.89 83.4562 157.833 85.3792 157.833 87.2675C157.833 89.1558 158.89 91.0787 160.968 91.0787C163.047 91.0787 164.104 89.1558 164.104 87.2675C164.104 85.3792 163.047 83.4562 160.968 83.4562ZM160.968 82.5381C163.688 82.5381 165.195 84.7036 165.195 87.2675C165.195 89.8314 163.688 91.9968 160.968 91.9968C158.249 91.9968 156.741 89.8314 156.741 87.2675C156.741 84.7036 158.249 82.5381 160.968 82.5381Z" fill="black"/>
<path d="M154.012 81.1169V79.3672H155.103V81.1169H154.012ZM154.012 91.7363V82.7973H155.103V91.7363H154.012Z" fill="black"/>
<path d="M150.601 80.1123V82.7975H152.42V83.7156H150.601V89.7443C150.601 90.4546 150.705 90.8703 151.484 90.9223C151.796 90.9223 152.108 90.905 152.42 90.8703V91.8058C152.091 91.8058 151.779 91.8405 151.45 91.8405C149.994 91.8405 149.492 91.3554 149.509 89.8309V83.7156H147.95V82.7975H149.509V80.1123H150.601ZM150.185 92.6027H151.675V93.9886C151.675 94.9241 150.999 95.2186 150.185 95.2533V94.7682C150.653 94.6816 150.826 94.4737 150.861 94.1792H150.185V92.6027Z" fill="black"/>
<path d="M140.872 85.5351H139.781C139.902 83.4389 141.34 82.5381 143.402 82.5381C144.978 82.5381 146.693 83.0058 146.693 85.4138V90.1605C146.693 90.5936 146.901 90.8188 147.334 90.8188C147.455 90.8188 147.559 90.8015 147.681 90.7495V91.6677C147.421 91.7197 147.265 91.737 146.97 91.737C145.862 91.737 145.688 91.096 145.688 90.1779H145.654C144.874 91.3385 144.129 91.9968 142.397 91.9968C140.734 91.9968 139.4 91.1826 139.4 89.381C139.4 86.8863 141.843 86.7824 144.199 86.5052C145.099 86.4186 145.602 86.2627 145.602 85.2926C145.602 83.82 144.562 83.4562 143.263 83.4562C141.895 83.4562 140.924 84.0799 140.872 85.5351ZM145.602 88.2722V86.8517H145.567C145.429 87.1116 144.944 87.1982 144.649 87.2501C142.795 87.5793 140.491 87.5793 140.491 89.3117C140.491 90.4031 141.444 91.0787 142.484 91.0787C144.164 91.0787 145.602 90.0219 145.602 88.2722Z" fill="black"/>
<path d="M127.878 91.7363V79.3672H129.195L136.401 89.8307H136.436V79.3672H137.614V91.7363H136.297L129.091 81.2728H129.056V91.7363H127.878Z" fill="black"/>
<path d="M114.87 85.5351H113.779C113.9 83.4389 115.338 82.5381 117.399 82.5381C118.976 82.5381 120.691 83.0058 120.691 85.4138V90.1605C120.691 90.5936 120.899 90.8188 121.332 90.8188C121.453 90.8188 121.557 90.8015 121.678 90.7495V91.6677C121.418 91.7197 121.262 91.737 120.968 91.737C119.859 91.737 119.686 91.096 119.686 90.1779H119.651C118.872 91.3385 118.127 91.9968 116.394 91.9968C114.731 91.9968 113.397 91.1826 113.397 89.381C113.397 86.8863 115.84 86.7824 118.196 86.5052C119.097 86.4186 119.599 86.2627 119.599 85.2926C119.599 83.82 118.56 83.4562 117.261 83.4562C115.892 83.4562 114.922 84.0799 114.87 85.5351ZM119.599 88.2722V86.8517H119.565C119.426 87.1116 118.941 87.1982 118.647 87.2501C116.793 87.5793 114.489 87.5793 114.489 89.3117C114.489 90.4031 115.442 91.0787 116.481 91.0787C118.161 91.0787 119.599 90.0219 119.599 88.2722Z" fill="black"/>
<path d="M110.702 81.1169V79.3672H111.794V81.1169H110.702ZM110.702 91.7363V82.7973H111.794V91.7363H110.702Z" fill="black"/>
<path d="M107.291 80.1123V82.7975H109.11V83.7156H107.291V89.7443C107.291 90.4546 107.395 90.8703 108.175 90.9223C108.487 90.9223 108.799 90.905 109.11 90.8703V91.8058C108.781 91.8058 108.469 91.8405 108.14 91.8405C106.685 91.8405 106.183 91.3554 106.2 89.8309V83.7156H104.641V82.7975H106.2V80.1123H107.291ZM106.876 92.6027H108.365V93.9886C108.365 94.9241 107.69 95.2186 106.876 95.2533V94.7682C107.343 94.6816 107.517 94.4737 107.551 94.1792H106.876V92.6027Z" fill="black"/>
<path d="M96.2371 91.737V82.7979H97.3285V84.3398H97.3631C97.7789 83.2657 98.9569 82.5381 100.222 82.5381C102.733 82.5381 103.496 83.8547 103.496 85.9855V91.737H102.404V86.1587C102.404 84.6343 101.902 83.4562 100.135 83.4562C98.3852 83.4562 97.3804 84.7728 97.3285 86.5225V91.737H96.2371Z" fill="black"/>
<path d="M87.912 86.6438H93.6981C93.6461 84.9981 92.6067 83.4562 90.857 83.4562C89.0553 83.4562 88.1025 85.0154 87.912 86.6438ZM94.7895 87.562H87.912C87.912 89.1558 88.7781 91.0787 90.857 91.0787C92.4508 91.0787 93.317 90.1605 93.6634 88.792H94.7548C94.2871 90.8188 93.1264 91.9968 90.857 91.9968C88.0159 91.9968 86.8206 89.8141 86.8206 87.2675C86.8206 84.9114 88.0159 82.5381 90.857 82.5381C93.7154 82.5381 94.8761 85.05 94.7895 87.562Z" fill="black"/>
<path d="M85.1979 82.7979V91.0094C85.1979 93.6946 84.1238 95.3057 81.2308 95.3057C79.4464 95.3057 77.6621 94.4915 77.5235 92.6032H78.6149C78.8401 93.9198 80.0354 94.3875 81.2308 94.3875C83.2576 94.3875 84.1065 93.2095 84.1065 91.0094V89.7967H84.0719C83.5695 90.9055 82.53 91.633 81.2308 91.633C78.3723 91.633 77.1943 89.6062 77.1943 87.0423C77.1943 84.5823 78.6495 82.5381 81.2308 82.5381C82.5474 82.5381 83.6388 83.3523 84.0719 84.3398H84.1065V82.7979H85.1979ZM81.2308 90.7149C83.1191 90.7149 84.1065 88.9652 84.1065 87.1635C84.1065 85.4138 83.3096 83.4562 81.2308 83.4562C79.1519 83.4562 78.2857 85.3099 78.2857 87.1635C78.2857 88.9652 79.2039 90.7149 81.2308 90.7149Z" fill="black"/>
<path d="M71.1678 80.5452L68.6905 86.8857H73.5585L71.1678 80.5452ZM65.5723 91.7363L70.5615 79.3672H71.8781L76.7288 91.7363H75.4641L73.957 87.8905H68.3267L66.8369 91.7363H65.5723Z" fill="black"/>
</svg>
