<svg width="198" height="262" viewBox="0 0 198 262" fill="none" xmlns="http://www.w3.org/2000/svg">
<path d="M38.8345 196.826C42.6974 175.726 49.5204 151.899 59.7918 132.992C71.0089 112.344 91.0907 92.094 110.27 78.8391C111.4 78.0602 112.542 77.2996 113.696 76.5586C127.935 84.9234 148.702 98.8681 158.035 112.697C160.85 116.897 162.923 121.548 164.165 126.449C171.631 155.119 151.797 178.045 129.695 193.378C128.537 194.182 126.476 195.33 126.937 196.826H38.8345Z" fill="#0772AF"/>
<path d="M0 50.2839C31.8391 50.0172 69.5621 55.3569 98.5057 69.215C92.7888 71.7794 82.4354 77.8977 77.0826 81.2764C44.8052 101.652 21.6639 127.241 7.98929 163.155C6.53309 166.963 5.23734 170.831 4.10551 174.747C3.49649 176.884 3.0943 180.934 1.36927 182.141C0.520137 181.548 0.484511 181.059 0 180.043V50.2839Z" fill="#0772AF"/>
<path d="M125.783 69.5062C145.094 58.2037 175.16 49.1698 197.549 48.9268L197.564 143.538C197.568 160.736 197.974 179.79 197.338 196.826H178.837C181.228 189.863 184.112 183.472 186.357 176.264C192.135 157.72 193.192 137.875 184.733 120.03C175.269 100.069 146.033 78.2403 125.783 69.5062Z" fill="#0772AF"/>
<path d="M0 36.627C65.5124 36.8903 131.424 36.0505 196.837 36.54C196.837 36.5544 196.837 36.5687 196.837 36.583L197.557 36.9326L197.6 45.5371C191.926 45.5375 185.047 45.4003 179.478 45.7588C156.175 47.4203 133.358 53.2476 112.113 62.9639C101.743 59.2996 90.5185 55.1483 79.7939 52.7061C55.1982 47.1049 25.1609 44.8695 0 46.5303V36.627ZM197.47 0C197.491 9.35184 197.79 20.0177 197.538 29.2441L196.94 29.8848C196.94 29.9117 196.939 29.9389 196.938 29.9658L0 30.0039V0H197.47Z" fill="#0772AF"/>
<path fill-rule="evenodd" clip-rule="evenodd" d="M173.505 212.352C178.465 212.122 182.971 212.326 187.841 213.952C197.46 217.163 198.938 229.854 191.297 235.925C190.049 236.917 188.992 237.384 187.502 238.041C187.828 238.202 188.152 238.368 188.472 238.538C194.03 241.512 196.029 254.536 197.859 260.579C194.144 260.556 190.426 260.583 186.71 260.661C185.735 257.805 184.865 254.915 184.102 251.995C181.835 243.237 181.903 241.713 172.325 241.767C172.421 247.962 172.336 254.373 172.335 260.585C168.723 260.556 165.112 260.568 161.501 260.624L161.509 213.206C165.831 212.678 169.186 212.477 173.505 212.352ZM180.986 233.199C188.946 229.456 185.474 219.462 176.397 220.273C174.948 220.381 173.778 220.484 172.346 220.706V233.983C174.992 233.95 178.532 234.111 180.986 233.199Z" fill="#0772AF"/>
<path d="M74.7172 212.582L84.7723 212.588C84.8425 216.062 85.0513 259.488 84.7098 260.447L84.4141 260.549C81.1905 260.569 76.371 260.44 73.2875 260.704C67.9742 250.789 62.0832 241.211 57.2972 231.025C56.34 228.99 55.4209 226.818 54.3174 224.876C54.8554 227.902 54.8127 235.782 54.8234 239.039L54.8508 260.556C51.5281 260.547 48.2053 260.569 44.8841 260.621C44.5259 244.867 44.8521 228.42 44.7729 212.588L57.6203 212.652C57.9876 213.24 58.3336 213.883 58.6674 214.493C63.2172 222.818 68.3339 230.832 72.373 239.43C73.5619 241.96 74.5907 244.595 75.6211 247.189C75.6317 245.745 75.3711 243.664 75.2415 242.176C75.0632 240.004 74.9367 237.829 74.862 235.651C74.6029 228.106 74.7309 220.152 74.7172 212.582Z" fill="#0772AF"/>
<path fill-rule="evenodd" clip-rule="evenodd" d="M129.698 244.479C131.264 249.486 133.352 255.565 134.643 260.557C130.843 260.656 126.752 260.592 122.92 260.628C121.879 256.758 120.514 252.547 119.322 248.7C119.292 248.564 119.208 248.455 119.132 248.333C117.593 247.922 107.72 248.251 105.362 248.278C104.756 251.613 102.994 257.025 102.086 260.566L90.6768 260.61C91.9647 255.971 93.5589 251.072 94.9932 246.458L101.521 225.279C102.732 221.323 104.421 216.542 105.361 212.636C109.992 212.727 115.099 212.608 119.77 212.61L129.698 244.479ZM112.058 220.934C111.517 222.914 111.094 225.118 110.599 227.143C109.859 230.106 109.06 233.053 108.2 235.983C107.851 237.207 107.401 239.02 106.988 240.16L112.675 240.136C114.313 240.117 115.981 240.074 117.613 240.176C117.077 238.358 112.208 221.097 112.058 220.934Z" fill="#0772AF"/>
<path d="M24.919 211.893C29.2239 211.505 34.2707 212.5 38.3203 213.965C37.5212 216.802 36.8029 219.784 36.0728 222.648C28.3303 219.557 17.5716 219.896 13.2665 228.379C9.64534 235.514 11.2572 246.961 19.145 250.641C24.5896 253.181 30.3698 252.599 35.9633 250.712C36.3392 252.561 36.7385 254.405 37.161 256.243L37.7972 259.365C34.6397 260.407 31.3616 261.039 28.043 261.245C20.9287 261.685 12.8992 260.291 7.37368 255.389C-2.15894 246.93 -2.2382 229.672 5.91777 220.276C10.7508 214.707 17.7029 212.315 24.919 211.893Z" fill="#0772AF"/>
<path d="M141.051 212.605L152.115 212.599L152.091 260.576C148.433 260.572 144.776 260.587 141.118 260.622C140.886 244.676 141.302 228.539 141.051 212.605Z" fill="#0772AF"/>
</svg>
