<svg width="326" height="341" viewBox="0 0 326 341" fill="none" xmlns="http://www.w3.org/2000/svg">
<path d="M26.5468 293.973C42.6804 292.195 49.3855 312.849 40.9633 324.306C38.5967 327.525 35.7367 328.718 31.9247 329.241C28.2355 329.324 26.2379 329.134 22.8803 327.495C9.44306 320.936 10.0349 295.967 26.5468 293.973Z" fill="black"/>
<path d="M195.506 239.687C211.544 238.498 213.823 263.703 206.978 273.622C205.163 276.251 203.102 277.491 199.964 277.976C181.574 278.778 179.87 242.707 195.506 239.687Z" fill="black"/>
<path d="M227.532 239.652C234.409 239.494 238.749 240.602 239.352 248.751C239.616 252.317 239.147 255.819 236.709 258.611C233.858 261.1 231.001 260.802 227.502 260.701C227.384 257.524 227.463 253.94 227.461 250.738C227.457 247.145 227.388 243.222 227.532 239.652Z" fill="black"/>
<path d="M134.051 241.924C134.225 242.472 134.422 243.4 134.398 243.957C134.208 248.401 134.939 272.647 134.055 275.433C133.913 274.206 134.021 272.032 134.022 270.709L134.014 260.975L134.027 248.378C134.026 246.486 133.888 243.698 134.051 241.924Z" fill="black"/>
<path d="M241.486 63.3832C273.635 61.2602 289.445 110.256 293.326 135.016C297.23 159.923 294.413 218.4 261.502 223.188C258.948 223.467 255.745 223.174 253.247 222.608C242.086 220.081 233.637 210.796 227.599 201.606C216.577 184.833 211.202 165.032 209.121 145.238C207.078 125.825 207.949 105.388 215.877 87.2821C220.757 76.1401 228.287 64.6742 241.486 63.3832Z" fill="black"/>
<path fill-rule="evenodd" clip-rule="evenodd" d="M155.59 0.0393411C210.68 -0.879063 271.053 14.4983 325.468 23.5647L325.146 339.922C309.685 340.229 234.985 339.922 234.985 339.922H0.0136719L0.0078125 232.341L50.4785 232.332C49.3648 231.176 48.2251 230.032 47.1045 228.842C43.4681 224.978 37.3695 219.748 37.8457 213.853C38.1089 210.594 39.1602 206.531 39.8457 203.254L58.4111 114.596L82.1055 215.311C83.3111 220.431 84.8172 226.238 85.8232 231.355C91.8663 231.542 97.9087 231.767 103.949 232.028C107.829 224.044 111.608 215.68 115.388 207.616L143.349 147.925C148.171 137.623 152.991 126.996 157.941 116.788C158.029 123.096 157.933 129.618 157.931 135.947L157.939 198.406C157.944 202.605 157.987 206.81 157.905 211.004C157.821 215.304 154.535 217.99 151.03 219.794C146.464 222.145 141.4 223.263 136.542 224.835C127.658 227.709 118.432 230.012 109.609 233.014C117.77 232.652 126.216 232.483 134.394 232.23L181.109 230.816C191.004 230.528 201.529 230.346 211.388 229.811C209.948 229.32 208.347 228.627 206.923 228.047C202.117 226.029 188.941 221.365 185.695 218.331C184.796 217.491 184.054 216.413 183.857 215.173C183.544 213.18 183.697 210.989 183.697 208.971V198.229C183.685 184.613 183.921 170.089 183.557 156.541C186.305 167.209 189.088 175.801 194.679 185.478C204.98 203.308 221.378 219.88 241.735 225.358C256.795 229.409 273.487 228.178 287.098 220.38C302.832 211.365 314.301 193.064 318.94 175.956C325.421 152.06 321.34 123.998 308.91 102.681C297.795 84.0755 281.562 66.7785 260.125 60.9964C227.507 52.1985 201.039 71.5475 188.322 100.622C186.163 105.557 184.916 109.807 183.521 115.001C183.121 104.276 183.76 93.1389 183.455 82.3792C183.403 80.5644 184.434 79.0897 185.74 77.9095C188.949 75.0086 194.497 75.7571 198.531 75.9641C198.094 71.511 197.273 66.3554 196.668 61.8675L163.323 61.8821C162.254 64.4867 159.692 69.2146 158.366 71.8587L108.349 171.746C106.484 175.477 104.35 179.546 102.656 183.327C101.477 179.221 100.333 173.655 99.3223 169.379L73.6914 61.0247L37.0449 60.4837C36.6961 65.2225 36.1945 69.9461 35.874 74.6917C38.753 75.2326 41.9486 75.3289 44.835 75.9905C45.2753 76.379 45.6919 76.8045 46.1113 77.2171C42.3931 96.0582 38.0332 115.38 34.0459 134.216L27.4893 165.181C26.2964 170.844 25.1803 177.304 23.6836 182.844C21.2474 191.859 17.9072 200.833 15.375 209.828C14.2054 213.983 13.0983 218.139 9.86426 221.177C6.86551 224.027 3.30033 226.661 0.00976562 229.153L0 23.8645C12.9759 20.9544 25.9714 18.1294 38.9844 15.3899C78.3793 7.13279 115.274 0.734361 155.59 0.0393411ZM45.7461 323.021C56.597 308.401 45.2069 291.263 27.8701 292.549C0.414832 294.885 1.27775 331.61 30.4951 330.746C36.6133 330.048 41.9791 328.096 45.7461 323.021ZM182.232 294.429C178.266 293.304 174.355 292.18 170.175 292.549C158.356 293.546 149.595 301.475 150.651 313.844C151.037 318.58 153.282 322.971 156.895 326.06C161.375 329.825 167.327 331.077 173.085 330.679C176.353 330.453 181.312 328.935 184.333 329.023C185.205 327.445 187.788 322.546 187.778 320.871L187.646 320.668C186.559 320.687 184.852 323.578 184.101 324.467C182.281 326.62 179.756 327.878 177.122 328.704C172.388 329.65 168.342 329.508 164.179 326.739C160.159 324.021 157.378 319.826 156.442 315.068C154.668 306.218 158.554 296.139 168.292 294.377C172.469 293.621 176.646 294.091 180.239 296.474C182.792 298.166 183.835 299.886 185.157 302.541C185.323 302.875 185.59 302.942 185.93 302.937C186.644 302.047 185.996 295.983 185.836 294.52L185.823 294.408C184.276 294.813 183.763 294.863 182.232 294.429ZM311.518 294.057C310.677 293.006 306.82 293.507 305.395 293.511C301.65 293.486 297.905 293.48 294.16 293.492C294.199 293.884 294.152 294.439 294.539 294.52C298.134 295.273 299.674 294.641 299.66 299.324C299.637 307.805 299.785 316.759 299.63 325.28C299.548 330.145 295.292 327.922 294.088 328.862L294.098 329.531C294.763 330.031 317.491 329.76 320.267 329.758L324.523 321.696L324.451 321.302C324.181 321.24 324 321.143 323.798 321.342C322.674 322.494 321.701 323.906 320.661 325.155C318.085 328.244 314.661 327.782 311.002 327.77C309.377 327.685 306.532 328.155 305.228 327.149C304.839 326.613 304.605 325.176 304.596 324.627C304.458 315.894 304.588 307.151 304.564 298.415C304.561 297.373 304.804 295.744 305.85 295.226C307.496 294.409 309.643 294.946 311.396 294.492C311.443 294.325 311.485 294.18 311.518 294.057ZM129.802 293.594C126.207 293.358 119.312 293.484 115.877 293.491C115.899 293.792 115.869 294.245 116.053 294.404L116.098 294.444C117.007 295.228 120.301 294.892 120.277 297.925C120.203 307.253 120.464 316.608 120.132 325.928C120.042 328.444 116.266 328.38 115.952 329.155L116.028 329.555C116.933 330.093 127.757 329.658 129.571 329.73C129.888 329.742 130.198 329.552 130.408 329.304C129.443 327.936 127.625 328.953 126.323 327.805C125.377 326.97 125.332 325.504 125.194 324.319C125.086 315.787 125.162 307.221 125.18 298.689C125.186 296.026 126.524 294.948 129.037 294.695C129.504 294.644 129.804 294.594 130.182 294.302L130.175 293.895C130.071 293.811 129.947 293.711 129.802 293.594ZM207.368 293.488C207.404 293.821 207.39 294.356 207.618 294.456C209.536 295.3 211.676 295.072 211.779 298.1C211.939 302.807 211.849 307.993 211.85 312.774C211.85 316.799 211.892 321.173 211.732 325.216C211.704 325.93 211.417 326.961 210.941 327.547C210.059 328.635 207.779 328.067 207.442 329.359L207.611 329.661C208.365 329.747 210.947 329.858 211.602 329.774C213.24 329.564 220.831 330.25 221.841 329.304C220.669 327.609 216.815 329.723 216.715 324.983C216.522 315.781 216.359 306.391 216.832 297.203C216.977 294.396 220.877 295.343 221.588 294.264L221.534 293.739C221.427 293.667 221.297 293.581 221.146 293.481C217.253 293.484 210.974 293.493 207.368 293.488ZM255.624 292.48C255.75 292.891 256.014 293.697 255.893 294.081C255.407 295.614 254.805 297.221 254.253 298.725L250.869 307.926L246.703 319.369C245.806 321.811 245.022 324.076 243.87 326.415C242.626 328.942 239.844 328.131 239.021 329.038L239.049 329.401C239.862 330.07 245.115 329.712 246.41 329.779C247.27 329.823 252.103 329.902 252.582 329.512C252.639 328.991 252.669 329.171 252.362 328.699C249.778 328.292 246.004 329.202 247.428 324.923C248.683 321.153 250.13 317.457 251.422 313.7L261.979 313.695L263.639 313.754C264.511 316.065 268.741 325.741 267.955 327.503C267.786 327.882 267.394 328.166 267.011 328.307C265.841 328.734 262.761 328.215 262.099 329.161L262.164 329.544C263.537 329.904 277.358 329.934 278.178 329.429C277.743 328.459 274.177 328.575 273.09 325.751C268.863 314.77 265.032 303.364 260.601 292.478L255.624 292.48ZM70.4395 294.482C71.7526 295.105 73.6167 294.674 74.248 296.379C75.0924 298.661 75.0938 325.147 74.2402 326.948C73.8911 327.683 73.3238 328.072 72.5771 328.334C71.9014 328.572 70.8949 328.506 70.3916 328.976C70.4222 329.22 70.4074 329.649 70.7373 329.661C72.316 329.72 83.9313 330.047 84.709 329.478L84.6729 328.877C83.109 328.321 80.7221 328.629 80.25 327.044C79.1168 323.241 79.5855 315.507 79.6104 311.354C82.5954 311.331 91.6147 310.56 93.5508 312.448C94.0592 312.944 94.2451 313.609 94.4131 314.279C94.539 315.154 94.4056 315.125 94.9121 315.752L95.2246 315.723C95.8913 314.877 95.842 306.629 95.2109 305.693L94.8232 305.568C94.1031 306.493 94.4911 308.957 91.5771 309.111C87.6716 309.316 83.5054 309.17 79.5967 309.165C79.5975 304.702 79.5355 300.031 79.6074 295.583C82.3779 295.572 92.5919 294.952 94.1543 296.496C94.8959 297.23 95.6539 300.321 96.0869 300.465C96.9777 299.463 96.5863 295.115 96.584 293.495L70.3496 293.485L70.4395 294.482ZM26.8584 294.099C27.6548 294.014 28.3151 294.074 29.1162 294.106C45.5202 294.758 49.7918 319.454 37.0488 327.632C35.4094 328.684 33.1966 329.016 31.2549 329.245C9.67519 329.966 7.10891 296.289 26.8584 294.099ZM257.33 297.838C257.954 298.295 262.046 309.691 262.568 311.102L257.958 311.116L252.478 311.102L257.33 297.838ZM82.6689 243.688C78.9778 239.506 74.1821 237.227 69.3477 237.593L69.3193 237.596C64.0894 238.027 59.2969 239.921 55.7109 245.227C52.7925 249.613 51.3153 255.323 51.5996 261.12C52.2302 274.029 61.0133 280.412 70.1348 280.456C75.5297 280.092 79.7342 278.001 83.3496 272.785C89.034 264.584 89.2538 251.149 82.6689 243.688ZM210.901 243.64C207.209 239.49 202.457 237.233 197.635 237.592C197.607 237.594 197.58 237.596 197.552 237.599C194.942 237.815 193.463 238.122 190.989 239.177C179.645 244.012 175.779 264.148 185.001 274.614C188.855 278.988 193.404 280.402 198.468 280.455C203.839 280.078 208.052 277.961 211.64 272.764C217.305 264.553 217.507 251.065 210.901 243.64ZM310.613 239.012C309.155 238.599 298.031 238.789 295.73 238.798C295.672 239.032 295.634 239.148 295.615 239.235C294.433 238.521 290.259 238.796 289.041 238.816C287.705 238.805 285.27 238.704 284.037 238.946C283.807 239.345 283.865 239.209 283.903 239.773C285.269 241.192 288.493 238.898 288.781 245.533C288.936 248.126 288.86 250.966 288.863 253.541C288.877 263.98 290.125 275.619 279.346 276.776C265.774 278.232 265.219 266.536 265.777 252.897C265.901 249.848 265.554 246.412 265.871 243.31C266.12 239.722 269.763 240.545 270.186 239.614L270.092 239.029C268.917 238.619 259.178 238.817 257.391 238.825C257.193 239.477 257.189 239.253 257.323 239.866C258.501 240.672 260.787 239.865 261.294 242.388C261.722 244.527 261.597 246.938 261.582 249.134C261.55 252.486 261.54 255.84 261.552 259.193C261.545 263.109 261.421 266.458 262.448 270.242C266.031 283.443 285.144 283.547 289.67 271.692C292.675 263.821 290.293 252.032 291.461 243.525C291.974 239.843 294.592 240.819 295.696 239.781C296.626 240.365 300.083 240.281 300.185 242.367C300.681 252.69 300.253 263.192 300.41 273.559C300.499 279.432 296.61 276.869 295.389 278.284C295.421 278.416 295.491 278.802 295.553 278.806C301.559 279.155 313.06 279.092 318.53 278.995C319.658 276.298 321.282 272.693 322.271 270.007L322.25 269.586C321.952 269.541 321.784 269.492 321.534 269.804C320.439 271.138 319.638 272.929 318.628 274.335C316.435 277.39 312.943 276.776 309.996 276.776C308.555 276.776 306.079 277.234 305.021 275.828C304.407 273.415 304.438 243.009 305.158 241.272C305.312 240.901 305.734 240.738 306.044 240.621C307.222 240.18 310.061 240.482 310.771 239.375L310.613 239.012ZM243.74 246.277C241.68 238.668 233.98 237.674 228.737 238.036C227.012 238.128 219.512 238.409 218.344 238.839C218.116 239.358 218.142 239.152 218.248 239.748C219.373 241.182 222.98 237.446 222.889 246.126C222.794 255.248 223.06 264.661 222.811 273.81C222.667 280.302 218.776 276.514 218.181 278.708L218.273 279.237C219.856 279.488 231.164 279.521 232.191 278.921L232.33 278.617C230.897 276.9 227.332 280.086 227.144 273.283C227.049 269.863 227.148 265.729 227.165 262.256C229.165 262.309 231.164 262.307 233.162 262.249C235.262 264.188 237.284 266.712 239.077 269.142C242.639 274.004 246.516 279.718 252.002 280.004C253.351 280.075 255.712 280.502 256.988 279.914L257.1 279.652C256.372 278.651 252.455 277.916 250.79 276.179C246.052 271.237 242.237 265.473 237.56 260.324C240.083 259.162 242.239 257.365 243.441 254.091C244.32 251.639 244.427 248.832 243.74 246.277ZM128.451 239.462C127.508 238.233 121.094 239.003 119.522 238.815C119.202 238.777 117.147 238.875 116.901 239L116.777 239.279C116.909 239.622 117.004 239.93 117.319 240.047C118.573 240.514 120.404 240.037 121.19 241.792C122.204 244.055 121.725 266.362 121.72 270.53C115.93 262.884 110.348 254.83 104.596 247.125C102.62 244.479 100.534 241.408 98.5322 238.853C96.0613 238.82 93.59 238.814 91.1191 238.835L90.8477 239.176C90.8652 239.682 90.8735 239.925 91.3262 240.065C92.6804 240.484 93.6818 240.781 94.9209 241.623L94.9316 264.022C94.9321 267.183 95.4688 274.076 94.0938 276.616C93.5497 277.621 90.9922 277.34 90.7275 278.695C91.1295 279.225 101.223 279.241 102.005 278.834L102.148 278.56C102.022 278.211 102.009 278.158 101.726 278.025C100.16 277.288 98.4287 278.006 97.5303 275.551C96.7192 273.333 97.1733 248.884 97.1475 244.496C105.595 255.773 113.925 268.065 122.355 279.118C122.783 279.507 123.027 279.483 123.533 279.505L123.88 279.274C124.132 277.984 124.019 273.258 124.012 271.734L123.979 251.531C123.976 248.611 123.875 245.553 124.075 242.664C124.29 239.57 127.329 240.579 128.395 239.848L128.451 239.462ZM143.753 239.074C142.319 238.581 132.327 238.789 130.25 238.797C130.181 239.633 130.092 239.427 130.439 239.961C131.649 240.334 133.263 240.653 133.945 242.015C134.205 242.534 134.274 243.17 134.306 243.758C134.502 247.376 134.519 273.47 134.049 275.424C133.889 276.087 133.625 276.483 133.102 276.823C132.391 277.283 130.614 277.579 130.219 278.356L130.311 278.821C131.629 279.145 143.396 279.28 144.062 278.437C142.61 276.471 139.149 279.197 139.093 273.049C139.003 263.171 139.034 253.277 139.089 243.397C139.108 240.435 142.708 240.523 143.75 239.481L143.753 239.074ZM45.9941 239.023C44.9852 238.605 40.0256 238.781 38.7324 238.796C36.2127 245.865 33.6572 252.912 31.0654 259.936C29.8295 263.312 28.1677 268.225 26.8408 271.364C22.8171 260.546 18.8429 249.697 14.9189 238.818C12.4957 238.784 10.0718 238.778 7.64844 238.798L7.38184 239.12L7.41797 239.552C8.57722 240.57 9.90492 239.911 10.251 242.188C10.6893 245.073 9.12501 274.786 8.65723 275.711C7.73286 277.526 5.41738 277.32 4.875 278.47L4.94141 278.783C6.17481 279.077 14.6228 279.364 15.1826 278.464C14.325 277.089 12.3813 277.63 11.5977 275.841C10.7145 273.822 12.4299 248.906 12.5264 244.505C16.9116 255.288 20.5698 266.813 24.793 277.724C25.0734 278.449 25.1178 278.538 25.6338 278.919C26.0051 278.951 26.2309 279.018 26.5215 278.718C27.5415 276.379 28.7675 272.656 29.6611 270.145L35.8711 252.679C36.7325 250.262 37.9672 246.485 38.9014 244.212C39.0313 246.429 39.1115 250.561 39.3555 252.556C39.5195 259.85 40.1637 267.171 40.376 274.463C40.4579 277.287 36.4812 277.498 35.9482 278.446L36.0186 278.752C37.225 279.151 48.1237 279.166 48.6689 278.701L48.6602 277.957C47.8944 277.248 44.6597 278.72 44.585 274.374C44.5151 270.307 42.3245 242.609 42.9551 241.069C43.8426 240.005 45.54 240.08 46.0273 239.378L45.9941 239.023ZM176.318 237.012C176.027 237.323 174.971 238.496 174.667 238.509C166.164 238.876 157.583 238.678 149.069 238.585C148.039 238.574 147.756 237.606 146.875 237.549C146.7 239.436 145.895 246.851 146.386 248.116L146.601 248.257C147.525 247.461 147.063 242.993 148.95 241.863C151.656 240.242 156.543 241.004 159.521 240.988L159.535 263.234C159.536 266.421 160.003 273.644 158.779 276.466C158.036 278.18 154.111 277.076 153.603 278.344C153.647 278.488 153.692 278.748 153.8 278.809C154.486 279.195 168.681 279.146 169.487 278.724C169.584 278.673 169.667 278.617 169.746 278.531L169.824 278.275C168.847 276.577 166.143 278.851 164.289 276.256C163.436 273.513 163.741 265.871 163.743 262.663L163.76 240.979C166.721 240.97 169.725 240.805 172.673 241.018C173.649 241.089 174.01 241.741 174.674 242.275C175.958 243.31 175.925 247.815 176.773 248.14C177.432 246.949 176.557 238.893 176.318 237.012ZM68.1777 239.331C82.1243 239.189 86.8352 260.693 79.3672 273.822C77.3056 277.445 74.1063 278.448 70.832 278.821C67.3506 278.636 64.5275 277.446 61.7217 274.461C53.3975 265.606 54.4241 243.265 65.9766 239.688C66.6245 239.487 67.4893 239.409 68.1777 239.331ZM196.398 239.336C210.405 239.176 215.086 260.592 207.648 273.824C205.686 277.313 202.473 278.444 199.308 278.793C181.695 279.531 178.776 241.317 196.398 239.336ZM230.038 239.318C232.725 239.426 235.626 239.998 237.556 242.696C239.065 244.804 239.487 247.684 239.416 250.49C239.333 253.788 238.732 256.326 236.849 258.633C234.093 261.409 230.436 261.04 227.167 260.949C227.172 254.649 227.137 248.347 227.142 242.047C227.143 240.568 226.837 239.601 227.95 239.354C228.646 239.319 229.344 239.29 230.038 239.318ZM116.686 239.487L116.777 239.279C116.772 239.264 116.765 239.249 116.76 239.235L116.686 239.487ZM116.72 239.132C116.734 239.166 116.747 239.201 116.76 239.235L116.815 239.047L116.72 239.132ZM289.802 28.7991C219.826 8.02429 145.171 5.11886 73.9795 21.7972C63.4242 24.2177 52.9598 27.0227 42.6084 30.2044C39.3012 31.2322 35.5504 32.2723 32.334 33.5013C41.0782 33.3795 49.0007 33.1314 57.8232 33.4485C94.9492 34.7832 129.615 42.2872 162.225 60.5042C169.553 57.2963 176.249 54.3319 183.788 51.5061C210.447 41.4283 238.456 35.3721 266.896 33.5364C273.97 33.0838 281.06 32.887 288.149 32.9466C293.322 32.9637 299.649 32.4998 304.739 33.5179C299.881 31.7332 294.739 30.2611 289.802 28.7991Z" fill="black"/>
</svg>
