<svg width="326" height="341" viewBox="0 0 326 341" fill="none" xmlns="http://www.w3.org/2000/svg">
<path d="M26.5468 293.973C42.6804 292.195 49.3855 312.849 40.9633 324.306C38.5967 327.525 35.7367 328.718 31.9247 329.241C28.2355 329.324 26.2379 329.134 22.8803 327.495C9.44306 320.936 10.0349 295.967 26.5468 293.973Z" fill="#003A81"/>
<path d="M195.506 239.687C211.544 238.498 213.823 263.703 206.978 273.622C205.163 276.251 203.102 277.491 199.964 277.976C181.574 278.778 179.87 242.707 195.506 239.687Z" fill="#003A81"/>
<path d="M227.532 239.652C234.409 239.494 238.749 240.602 239.352 248.751C239.616 252.317 239.147 255.819 236.709 258.611C233.858 261.1 231.001 260.802 227.502 260.701C227.384 257.524 227.463 253.94 227.461 250.738C227.457 247.145 227.388 243.222 227.532 239.652Z" fill="#003A81"/>
<path d="M134.051 241.925C134.225 242.473 134.422 243.401 134.398 243.958C134.208 248.402 134.939 272.648 134.055 275.434C133.913 274.206 134.021 272.033 134.022 270.71L134.014 260.976L134.027 248.379C134.026 246.487 133.888 243.699 134.051 241.925Z" fill="#003A81"/>
<path d="M241.486 63.3842C273.635 61.2612 289.445 110.257 293.326 135.017C297.23 159.924 294.413 218.401 261.502 223.189C258.948 223.468 255.745 223.175 253.247 222.609C242.086 220.082 233.637 210.797 227.599 201.607C216.577 184.834 211.202 165.033 209.121 145.239C207.078 125.826 207.949 105.389 215.877 87.283C220.757 76.1411 228.287 64.6751 241.486 63.3842Z" fill="#003A81"/>
<path fill-rule="evenodd" clip-rule="evenodd" d="M155.59 0.0393388C210.68 -0.879065 271.053 14.4993 325.468 23.5657L325.146 339.923C309.685 340.23 234.985 339.923 234.985 339.923H0.0136719L0.0078125 232.342L50.4785 232.333C49.3648 231.177 48.2252 230.032 47.1045 228.842C43.4681 224.978 37.3695 219.748 37.8457 213.853C38.109 210.594 39.1602 206.532 39.8457 203.255L58.4111 114.597L82.1055 215.312C83.3111 220.432 84.8172 226.238 85.8232 231.355C91.8663 231.542 97.9087 231.767 103.949 232.028C107.829 224.044 111.608 215.681 115.388 207.617L143.349 147.925C148.171 137.624 152.992 126.997 157.941 116.789C158.029 123.096 157.933 129.619 157.931 135.947L157.939 198.406C157.944 202.605 157.987 206.811 157.905 211.005C157.821 215.304 154.535 217.991 151.03 219.795C146.464 222.146 141.4 223.263 136.542 224.835C127.658 227.709 118.432 230.013 109.609 233.015C117.77 232.653 126.216 232.483 134.394 232.23L181.109 230.816C191.004 230.528 201.529 230.346 211.388 229.811C209.948 229.32 208.347 228.628 206.923 228.048C202.117 226.029 188.941 221.365 185.695 218.331C184.796 217.491 184.054 216.414 183.857 215.174C183.543 213.181 183.697 210.99 183.697 208.972V198.229C183.685 184.613 183.921 170.09 183.557 156.542C186.305 167.21 189.088 175.802 194.679 185.479C204.98 203.309 221.378 219.88 241.735 225.358C256.795 229.409 273.487 228.178 287.098 220.38C302.832 211.365 314.301 193.064 318.94 175.956C325.421 152.06 321.34 123.999 308.91 102.682C297.795 84.0763 281.562 66.7795 260.125 60.9973C227.507 52.1993 201.039 71.5475 188.322 100.622C186.163 105.557 184.916 109.807 183.521 115.001C183.121 104.276 183.76 93.1397 183.455 82.3802C183.403 80.5652 184.434 79.0897 185.74 77.9095C188.949 75.0087 194.497 75.7581 198.531 75.9651C198.094 71.512 197.273 66.3563 196.668 61.8684L163.323 61.8821C162.254 64.4866 159.692 69.2145 158.366 71.8587L108.349 171.746C106.484 175.476 104.35 179.546 102.656 183.327C101.477 179.221 100.333 173.656 99.3223 169.38L73.6914 61.0257L37.0449 60.4837C36.6961 65.2226 36.1945 69.9469 35.874 74.6927C38.753 75.2336 41.9486 75.3289 44.835 75.9905C45.2753 76.379 45.6919 76.8045 46.1113 77.2171C42.3931 96.0581 38.0332 115.38 34.0459 134.216L27.4893 165.182C26.2964 170.845 25.1803 177.304 23.6836 182.844C21.2474 191.859 17.9072 200.833 15.375 209.828C14.2054 213.983 13.0986 218.14 9.86426 221.178C6.86551 224.028 3.30033 226.661 0.00976562 229.153L0 23.8645C12.9759 20.9544 25.9714 18.1294 38.9844 15.3899C78.3793 7.1328 115.274 0.734358 155.59 0.0393388ZM45.7461 323.022C56.5974 308.402 45.2071 291.264 27.8701 292.55C0.414832 294.886 1.27775 331.611 30.4951 330.747C36.6133 330.049 41.9791 328.097 45.7461 323.022ZM182.232 294.43C178.266 293.305 174.355 292.181 170.175 292.55C158.356 293.547 149.595 301.476 150.651 313.845C151.037 318.581 153.282 322.972 156.895 326.061C161.375 329.826 167.327 331.078 173.085 330.68C176.353 330.454 181.312 328.936 184.333 329.024C185.204 327.447 187.788 322.548 187.778 320.872L187.646 320.669C186.559 320.688 184.852 323.579 184.101 324.468C182.28 326.621 179.756 327.879 177.122 328.705C172.388 329.651 168.342 329.509 164.179 326.74C160.159 324.022 157.378 319.827 156.442 315.069C154.668 306.219 158.554 296.141 168.292 294.378C172.469 293.622 176.646 294.092 180.239 296.475C182.792 298.167 183.835 299.887 185.157 302.542C185.323 302.875 185.59 302.943 185.93 302.938C186.645 302.049 185.996 295.984 185.836 294.521L185.823 294.409C184.276 294.814 183.763 294.864 182.232 294.43ZM311.518 294.058C310.678 293.007 306.82 293.508 305.395 293.512C301.65 293.487 297.905 293.481 294.16 293.493C294.199 293.884 294.152 294.44 294.539 294.521C298.134 295.274 299.674 294.641 299.66 299.325C299.637 307.806 299.785 316.76 299.63 325.281C299.548 330.146 295.291 327.923 294.088 328.863L294.098 329.532C294.766 330.032 317.491 329.761 320.267 329.759L324.523 321.697L324.451 321.303C324.181 321.24 324 321.144 323.798 321.343C322.674 322.495 321.701 323.907 320.661 325.156C318.085 328.245 314.661 327.783 311.002 327.771C309.377 327.686 306.532 328.155 305.228 327.15C304.839 326.614 304.606 325.177 304.596 324.628C304.458 315.895 304.588 307.152 304.564 298.416C304.561 297.374 304.804 295.745 305.85 295.227C307.496 294.41 309.643 294.947 311.396 294.493C311.443 294.326 311.485 294.181 311.518 294.058ZM129.802 293.595C126.207 293.359 119.312 293.485 115.877 293.492C115.899 293.793 115.869 294.246 116.053 294.405L116.098 294.445C117.007 295.229 120.301 294.893 120.277 297.926C120.203 307.254 120.464 316.609 120.132 325.929C120.042 328.445 116.265 328.381 115.952 329.156L116.028 329.556C116.934 330.093 127.757 329.659 129.571 329.731C129.888 329.743 130.198 329.552 130.408 329.305C129.443 327.937 127.626 328.954 126.323 327.806C125.377 326.971 125.332 325.505 125.194 324.32C125.086 315.788 125.162 307.222 125.18 298.69C125.185 296.026 126.524 294.949 129.037 294.696C129.504 294.645 129.804 294.595 130.182 294.303L130.175 293.896C130.071 293.812 129.947 293.712 129.802 293.595ZM207.368 293.489C207.404 293.822 207.39 294.357 207.618 294.457C209.536 295.301 211.676 295.073 211.779 298.101C211.939 302.808 211.849 307.994 211.85 312.775C211.85 316.8 211.892 321.174 211.732 325.217C211.704 325.931 211.417 326.962 210.941 327.548C210.059 328.636 207.779 328.067 207.442 329.36L207.611 329.662C208.365 329.748 210.947 329.859 211.602 329.775C213.24 329.565 220.831 330.251 221.841 329.305C220.669 327.609 216.815 329.724 216.715 324.984C216.522 315.782 216.359 306.392 216.832 297.204C216.977 294.397 220.876 295.344 221.588 294.265L221.534 293.74C221.427 293.668 221.297 293.582 221.146 293.482C217.253 293.485 210.974 293.494 207.368 293.489ZM255.624 292.481C255.75 292.892 256.014 293.698 255.893 294.082C255.407 295.615 254.805 297.222 254.253 298.726L250.869 307.927L246.703 319.37C245.806 321.812 245.022 324.077 243.87 326.416C242.626 328.943 239.844 328.132 239.021 329.039L239.049 329.402C239.862 330.071 245.115 329.713 246.41 329.78C247.27 329.824 252.103 329.903 252.582 329.513C252.639 328.992 252.669 329.172 252.362 328.699C249.779 328.293 246.004 329.203 247.428 324.924C248.683 321.154 250.13 317.458 251.422 313.701L261.979 313.696L263.639 313.755C264.511 316.066 268.742 325.743 267.955 327.504C267.786 327.883 267.394 328.167 267.011 328.308C265.841 328.736 262.761 328.216 262.099 329.162L262.164 329.545C263.538 329.905 277.358 329.935 278.178 329.43C277.743 328.46 274.177 328.576 273.09 325.752C268.863 314.771 265.033 303.365 260.601 292.479L255.624 292.481ZM70.4395 294.483C71.7526 295.105 73.6168 294.674 74.248 296.38C75.0924 298.663 75.094 325.151 74.2402 326.949C73.891 327.684 73.3238 328.073 72.5771 328.335C71.9013 328.573 70.8948 328.506 70.3916 328.977C70.4222 329.221 70.4075 329.65 70.7373 329.662C72.316 329.721 83.9309 330.048 84.709 329.479L84.6729 328.878C83.1091 328.322 80.7222 328.63 80.25 327.045C79.1167 323.242 79.5854 315.508 79.6104 311.355C82.5954 311.332 91.615 310.56 93.5508 312.449C94.0591 312.945 94.2451 313.61 94.4131 314.28C94.539 315.155 94.4055 315.126 94.9121 315.753L95.2246 315.724C95.8915 314.879 95.8419 306.631 95.2109 305.694L94.8232 305.569C94.1032 306.494 94.4911 308.958 91.5771 309.112C87.6716 309.317 83.5054 309.171 79.5967 309.166C79.5975 304.703 79.5355 300.032 79.6074 295.584C82.3779 295.573 92.5923 294.952 94.1543 296.497C94.8958 297.231 95.6539 300.322 96.0869 300.466C96.978 299.464 96.5864 295.116 96.584 293.496L70.3496 293.486L70.4395 294.483ZM26.8584 294.1C27.6548 294.015 28.3151 294.075 29.1162 294.107C45.5203 294.759 49.7921 319.455 37.0488 327.633C35.4094 328.685 33.1966 329.017 31.2549 329.246C9.67519 329.967 7.10891 296.29 26.8584 294.1ZM257.33 297.839C257.954 298.297 262.047 309.693 262.568 311.103L257.958 311.116L252.478 311.103L257.33 297.839ZM82.6689 243.689C78.9778 239.507 74.1821 237.228 69.3477 237.594L69.3193 237.596C64.0892 238.027 59.2969 239.921 55.7109 245.228C52.7924 249.614 51.3152 255.324 51.5996 261.121C52.2303 274.03 61.0133 280.413 70.1348 280.457C75.5297 280.093 79.7342 278.003 83.3496 272.786C89.0342 264.585 89.2538 251.15 82.6689 243.689ZM210.901 243.641C207.209 239.491 202.457 237.234 197.635 237.593C197.607 237.595 197.58 237.597 197.552 237.6C194.942 237.816 193.464 238.123 190.989 239.178C179.645 244.013 175.779 264.149 185.001 274.615C188.855 278.989 193.404 280.403 198.468 280.456C203.839 280.079 208.052 277.962 211.64 272.765C217.305 264.554 217.507 251.066 210.901 243.641ZM310.613 239.013C309.155 238.6 298.031 238.79 295.73 238.799C295.672 239.033 295.634 239.149 295.615 239.236C294.433 238.522 290.259 238.797 289.041 238.817C287.705 238.806 285.27 238.705 284.037 238.947C283.807 239.346 283.865 239.209 283.903 239.774C285.269 241.193 288.493 238.898 288.781 245.534C288.936 248.127 288.86 250.967 288.863 253.542C288.877 263.981 290.125 275.62 279.346 276.777C265.774 278.233 265.219 266.537 265.777 252.898C265.901 249.849 265.554 246.413 265.871 243.311C266.12 239.723 269.762 240.546 270.186 239.615L270.092 239.03C268.917 238.62 259.178 238.818 257.391 238.826C257.193 239.478 257.189 239.254 257.323 239.866C258.501 240.673 260.787 239.866 261.294 242.389C261.722 244.528 261.597 246.939 261.582 249.135C261.55 252.487 261.54 255.841 261.552 259.194C261.545 263.11 261.421 266.459 262.448 270.243C266.031 283.444 285.144 283.548 289.67 271.693C292.675 263.822 290.293 252.033 291.461 243.526C291.974 239.844 294.592 240.82 295.696 239.782C296.626 240.366 300.084 240.282 300.185 242.368C300.681 252.691 300.253 263.193 300.41 273.56C300.499 279.433 296.609 276.87 295.389 278.285C295.421 278.417 295.491 278.803 295.553 278.807C301.559 279.156 313.06 279.093 318.53 278.996C319.658 276.298 321.282 272.694 322.271 270.008L322.25 269.587C321.952 269.542 321.784 269.493 321.534 269.805C320.439 271.139 319.638 272.93 318.628 274.336C316.435 277.391 312.943 276.776 309.996 276.777C308.555 276.777 306.079 277.234 305.021 275.829C304.407 273.419 304.438 243.012 305.158 241.273C305.312 240.901 305.734 240.739 306.044 240.622C307.222 240.181 310.061 240.483 310.771 239.376L310.613 239.013ZM243.74 246.278C241.68 238.669 233.98 237.675 228.737 238.037C227.011 238.129 219.509 238.41 218.343 238.84C218.115 239.358 218.142 239.153 218.248 239.749C219.373 241.182 222.98 237.447 222.889 246.127C222.794 255.249 223.06 264.662 222.811 273.811C222.667 280.304 218.774 276.514 218.18 278.71L218.273 279.238C219.857 279.489 231.165 279.522 232.191 278.922L232.33 278.618C230.897 276.901 227.332 280.087 227.144 273.283C227.049 269.864 227.148 265.73 227.165 262.257C229.165 262.31 231.163 262.308 233.161 262.25C235.261 264.189 237.283 266.713 239.076 269.143C242.638 274.005 246.516 279.718 252.002 280.005C253.351 280.076 255.712 280.504 256.988 279.916L257.1 279.653C256.372 278.652 252.455 277.917 250.79 276.18C246.052 271.238 242.236 265.474 237.56 260.324C240.083 259.163 242.238 257.366 243.441 254.092C244.32 251.64 244.427 248.833 243.74 246.278ZM128.451 239.463C127.508 238.234 121.094 239.004 119.522 238.816C119.202 238.777 117.146 238.876 116.901 239.001L116.777 239.28C116.909 239.623 117.004 239.931 117.319 240.048C118.573 240.515 120.404 240.038 121.19 241.793C122.204 244.057 121.725 266.364 121.72 270.531C115.93 262.885 110.348 254.831 104.596 247.126C102.62 244.48 100.534 241.409 98.5322 238.854C96.0613 238.821 93.59 238.815 91.1191 238.836L90.8477 239.177C90.8651 239.682 90.8736 239.926 91.3262 240.066C92.6804 240.485 93.6818 240.782 94.9209 241.624L94.9316 264.023C94.9322 267.184 95.469 274.077 94.0938 276.617C93.5496 277.622 90.9918 277.34 90.7275 278.696C91.1315 279.226 101.223 279.242 102.005 278.835L102.148 278.561C102.022 278.212 102.009 278.159 101.726 278.026C100.16 277.288 98.4287 278.007 97.5303 275.552C96.7191 273.335 97.1733 248.886 97.1475 244.497C105.595 255.774 113.925 268.066 122.355 279.119C122.783 279.508 123.027 279.484 123.533 279.506L123.88 279.275C124.132 277.986 124.019 273.259 124.012 271.735L123.979 251.532C123.976 248.612 123.875 245.554 124.075 242.665C124.29 239.57 127.329 240.58 128.395 239.849L128.451 239.463ZM45.9941 239.024C44.9853 238.606 40.0256 238.782 38.7324 238.797C36.2127 245.866 33.6572 252.913 31.0654 259.937C29.8294 263.313 28.1677 268.226 26.8408 271.365C22.8171 260.547 18.8429 249.698 14.9189 238.819C12.4957 238.785 10.0718 238.779 7.64844 238.799L7.38184 239.121L7.41797 239.553C8.57724 240.571 9.90501 239.911 10.251 242.189C10.6892 245.076 9.12481 274.794 8.65723 275.712C7.73273 277.527 5.41709 277.32 4.875 278.471L4.94141 278.784C6.17521 279.078 14.6223 279.365 15.1826 278.465C14.3251 277.09 12.3814 277.631 11.5977 275.842C10.7143 273.825 12.4298 248.908 12.5264 244.506C16.9116 255.289 20.5697 266.814 24.793 277.725C25.0734 278.449 25.1177 278.539 25.6338 278.92C26.0051 278.952 26.2309 279.019 26.5215 278.719C27.5415 276.38 28.7674 272.657 29.6611 270.146L35.8711 252.68C36.7324 250.263 37.9672 246.486 38.9014 244.213C39.0313 246.43 39.1115 250.562 39.3555 252.557C39.5195 259.851 40.1638 267.172 40.376 274.464C40.4577 277.288 36.4805 277.499 35.9482 278.447L36.0186 278.753C37.2257 279.152 48.1231 279.167 48.6689 278.702L48.6602 277.958C47.8946 277.248 44.6598 278.721 44.585 274.375C44.5152 270.309 42.3247 242.611 42.9551 241.07C43.8425 240.006 45.5398 240.081 46.0273 239.379L45.9941 239.024ZM143.753 239.074C142.319 238.582 132.327 238.79 130.25 238.798C130.181 239.634 130.091 239.428 130.439 239.962C131.649 240.335 133.263 240.654 133.945 242.016C134.205 242.535 134.274 243.171 134.306 243.759C134.502 247.378 134.519 273.473 134.049 275.425C133.889 276.088 133.626 276.484 133.102 276.824C132.391 277.284 130.614 277.579 130.219 278.357L130.311 278.822C131.629 279.146 143.395 279.281 144.062 278.438C142.61 276.472 139.149 279.197 139.093 273.05C139.003 263.172 139.034 253.278 139.089 243.398C139.107 240.435 142.708 240.524 143.75 239.482L143.753 239.074ZM176.318 237.013C176.027 237.324 174.971 238.497 174.667 238.51C166.164 238.877 157.583 238.679 149.069 238.586C148.039 238.575 147.756 237.607 146.875 237.55C146.7 239.438 145.895 246.852 146.386 248.117L146.601 248.258C147.526 247.463 147.063 242.994 148.95 241.864C151.656 240.243 156.543 241.005 159.521 240.989L159.535 263.235C159.536 266.422 160.003 273.645 158.779 276.467C158.036 278.181 154.11 277.077 153.603 278.345C153.647 278.489 153.692 278.749 153.8 278.81C154.488 279.196 168.681 279.146 169.487 278.725C169.584 278.674 169.667 278.618 169.746 278.532L169.824 278.276C168.847 276.577 166.144 278.851 164.289 276.257C163.436 273.514 163.741 265.872 163.743 262.664L163.76 240.98C166.721 240.971 169.725 240.806 172.673 241.019C173.649 241.09 174.01 241.742 174.674 242.276C175.958 243.311 175.925 247.816 176.773 248.141C177.432 246.951 176.557 238.895 176.318 237.013ZM68.1787 239.332C82.1251 239.191 86.8356 260.694 79.3672 273.823C77.3056 277.446 74.1064 278.449 70.832 278.822C67.3506 278.637 64.5274 277.447 61.7217 274.462C53.3973 265.607 54.4239 243.266 65.9766 239.689C66.6247 239.488 67.4901 239.41 68.1787 239.332ZM196.398 239.337C210.405 239.177 215.087 260.593 207.648 273.824C205.686 277.314 202.473 278.445 199.308 278.794C181.695 279.532 178.776 241.318 196.398 239.337ZM230.038 239.319C232.725 239.427 235.626 239.999 237.556 242.697C239.065 244.805 239.487 247.685 239.416 250.491C239.333 253.789 238.732 256.327 236.849 258.634C234.093 261.41 230.435 261.041 227.166 260.95C227.171 254.65 227.137 248.349 227.142 242.049C227.143 240.57 226.837 239.602 227.95 239.355C228.645 239.32 229.344 239.291 230.038 239.319ZM116.686 239.488L116.777 239.28C116.772 239.265 116.766 239.25 116.76 239.236L116.686 239.488ZM116.72 239.133C116.734 239.167 116.747 239.202 116.76 239.236L116.815 239.048L116.72 239.133ZM289.802 28.8001C219.826 8.02526 145.171 5.11983 73.9795 21.7981C63.4242 24.2186 52.9597 27.0227 42.6084 30.2044C39.3012 31.2322 35.5505 32.2723 32.334 33.5013C41.0782 33.3795 49.0007 33.1314 57.8232 33.4485C94.9492 34.7832 129.615 42.2881 162.225 60.5052C169.553 57.2973 176.249 54.3329 183.788 51.5071C210.447 41.4293 238.456 35.3731 266.896 33.5374C273.97 33.0848 281.06 32.8879 288.149 32.9475C293.322 32.9647 299.649 32.4998 304.739 33.5179C299.881 31.7332 294.739 30.262 289.802 28.8001Z" fill="#003A81"/>
</svg>
