<svg width="301" height="117" viewBox="0 0 301 117" fill="none" xmlns="http://www.w3.org/2000/svg">
<path d="M193.998 63.4961C195.8 64.1256 198.047 64.8159 199.669 65.7507C198.02 67.8601 196.905 71.0828 195.656 73.5067C184.213 95.7342 163.046 112.252 137.999 116.033C125.439 117.957 112.631 114.788 102.414 107.234C93.8421 100.927 87.7301 90.6574 86.1837 80.1391C85.7474 77.2892 85.5247 74.4105 85.5176 71.5273C86.2218 71.1366 90.2223 69.7671 91.2104 69.3967C94.62 68.1185 98.1026 66.7175 101.558 65.5963C101.601 66.3752 101.663 67.153 101.744 67.929C102.838 78.0735 106.199 85.5558 114.266 92.1922C122.55 99.0069 134.441 101.387 144.965 100.219C154.142 98.9395 164.358 94.2685 171.843 88.8686C178.651 83.958 184.544 76.9395 189.323 70.1287C190.824 67.9921 192.207 65.6911 193.835 63.693L193.998 63.4961Z" fill="#C2423A"/>
<path d="M159.543 30.1875C163.649 32.1931 168.303 34.1063 172.532 35.9418C180.959 39.5326 189.346 43.2144 197.694 46.986C198.837 47.8418 200.683 48.4982 202.172 48.9779L202.785 49.1726C205.506 50.18 208.563 51.653 211.29 52.8272L227.41 59.7323L276.622 80.7383C284.591 84.1386 292.752 87.9106 300.786 91.0933C298.624 93.8862 296.973 97.4543 294.696 99.69C290.258 98.3455 286.016 96.716 281.649 95.161C274.592 92.69 267.551 90.1776 260.522 87.6238L199.669 65.7509C198.047 64.8161 195.8 64.1257 193.998 63.4962L180.072 58.3442C177.489 57.3902 174.955 56.3614 172.301 55.6177C169.688 54.8849 169.142 56.1457 167.597 57.7821C164.193 61.3892 168.46 63.6874 170.491 66.3748C166.013 69.5353 161.554 72.7218 157.111 75.9336C155.071 77.4003 151.364 80.2004 149.351 81.2987C146.702 79.9901 141.571 76.2074 138.98 74.3006C135.893 72.029 131.399 69.0254 128.511 66.6323C129.593 65.3695 133.159 62.2288 132.767 60.5909C132.267 58.4945 129.513 55.3448 127.044 56.2603C119.11 59.2032 109.101 62.0132 101.557 65.5964C98.1025 66.7177 94.6199 68.1187 91.2104 69.3969C90.2224 69.7672 86.2226 71.1365 85.5175 71.5274C78.965 73.7848 72.0751 76.4838 65.5329 78.9031L28.9668 92.4335L15.3201 97.5738C12.6468 98.5919 8.165 100.389 5.48536 100.987C4.52519 99.2776 1.20911 94.2398 0 92.7563C2.88303 91.3114 6.329 89.9043 9.29594 88.6061L23.6995 82.2277L63.9302 64.3266C71.493 60.9654 79.5203 57.52 87.0444 54.0053L88.5423 53.3013C91.7974 52.3226 101.782 47.9036 104.6 46.2483C108 45.0338 111.707 43.1089 115.068 41.6748C123.349 38.141 131.744 33.9771 140.083 30.6205C141.988 33.0247 146.665 39.2542 149.467 40.7316C149.904 40.962 150.892 40.3374 151.172 40.0243C153.437 37.4899 157.653 32.848 159.543 30.1875Z" fill="#232048"/>
<path d="M88.542 53.3009C88.899 52.0382 90.1077 49.1601 90.6397 47.9018C94.387 38.8709 99.8423 30.6481 106.706 23.6846C120.173 9.99156 137.748 0.383167 157.272 0.0100475C182.242 -0.467285 200.808 16.104 202.63 40.9738C202.829 43.6907 202.779 46.4425 202.785 49.1722C201.224 48.6812 198.999 47.9636 197.694 46.9855C197.987 40.3242 197.953 34.5716 195.655 28.138C192.841 19.9819 186.05 11.8609 178.121 8.19858C154.257 -2.82528 124.628 12.2204 111.345 32.9981C108.702 37.1322 106.634 41.8962 104.599 46.2479C101.782 47.9032 91.7971 52.3221 88.542 53.3009Z" fill="#C2423A"/>
</svg>
