<svg width="301" height="117" viewBox="0 0 301 117" fill="none" xmlns="http://www.w3.org/2000/svg">
<path d="M159.543 30.1875C163.649 32.1931 168.303 34.1063 172.532 35.9418C180.959 39.5326 189.346 43.2144 197.694 46.986C198.837 47.8418 200.683 48.4982 202.172 48.9779L202.785 49.1726C205.506 50.18 208.563 51.653 211.29 52.8272L227.41 59.7323L276.622 80.7383C284.591 84.1386 292.752 87.9106 300.786 91.0933C298.624 93.8862 296.973 97.4543 294.696 99.69C290.258 98.3455 286.016 96.716 281.649 95.161C274.592 92.69 267.551 90.1776 260.522 87.6238L199.669 65.7509C198.047 64.8161 195.8 64.1257 193.998 63.4962L180.072 58.3442C177.489 57.3902 174.955 56.3614 172.301 55.6177C169.688 54.8849 169.142 56.1457 167.597 57.7821C164.193 61.3892 168.46 63.6874 170.491 66.3748C166.013 69.5353 161.554 72.7218 157.111 75.9336C155.071 77.4003 151.364 80.2004 149.351 81.2987C146.702 79.9901 141.571 76.2074 138.98 74.3006C135.893 72.029 131.399 69.0254 128.511 66.6323C129.593 65.3695 133.159 62.2288 132.767 60.5909C132.267 58.4945 129.513 55.3448 127.044 56.2603C119.11 59.2032 109.101 62.0132 101.557 65.5964C98.1025 66.7177 94.6199 68.1187 91.2104 69.3969C90.2224 69.7672 86.2226 71.1365 85.5175 71.5274C78.965 73.7848 72.0751 76.4838 65.5329 78.9031L28.9668 92.4335L15.3201 97.5738C12.6468 98.5919 8.165 100.389 5.48536 100.987C4.52519 99.2776 1.20911 94.2398 0 92.7563C2.88303 91.3114 6.329 89.9043 9.29594 88.6061L23.6995 82.2277L63.9302 64.3266C71.493 60.9654 79.5203 57.52 87.0444 54.0053L88.5423 53.3013C91.7974 52.3226 101.782 47.9036 104.6 46.2483C108 45.0338 111.707 43.1089 115.068 41.6748C123.349 38.141 131.744 33.9771 140.083 30.6205C141.988 33.0247 146.665 39.2542 149.467 40.7316C149.904 40.962 150.892 40.3374 151.172 40.0243C153.437 37.4899 157.653 32.848 159.543 30.1875Z" fill="white"/>
<path d="M193.433 65.9355L193.458 65.9453L193.484 65.9541C195.352 66.6065 197.074 67.142 198.355 67.8164C197.364 69.6592 196.543 71.7847 195.655 73.5068C184.213 95.7341 163.046 112.252 137.999 116.033C125.439 117.956 112.631 114.788 102.414 107.233C93.8426 100.926 87.7301 90.6569 86.1836 80.1387C85.8959 78.2592 85.7029 76.3672 85.6016 74.4697C86.0595 74.309 86.5153 74.1471 86.9707 73.9902L87.2188 73.9043L87.4482 73.7773C87.4085 73.7994 87.5826 73.7143 88.1221 73.5059C88.5802 73.3289 89.1527 73.1187 89.752 72.9023C90.8949 72.4897 92.2304 72.0228 92.7393 71.832C95.8408 70.6693 98.8223 69.478 101.805 68.4609C102.959 78.3359 106.34 85.6726 114.266 92.1924C122.55 99.007 134.441 101.386 144.965 100.219C154.141 98.9389 164.358 94.268 171.844 88.8682C178.651 83.9576 184.544 76.9394 189.323 70.1289C190.373 68.6339 191.368 67.0594 192.427 65.5635L193.433 65.9355Z" fill="white"/>
<path fill-rule="evenodd" clip-rule="evenodd" d="M157.272 0.0100403C182.242 -0.467118 200.807 16.1042 202.63 40.9739C202.739 42.4701 202.772 43.9768 202.781 45.4846C201.559 45.0632 200.529 44.6317 199.968 44.2112L199.705 44.0139L199.404 43.8782C198.874 43.6387 198.343 43.4021 197.812 43.1634C197.885 38.0442 197.503 33.3113 195.655 28.138C192.841 19.9819 186.05 11.8609 178.121 8.19852C154.257 -2.82534 124.628 12.2206 111.345 32.9983C109.529 35.8389 107.985 38.9772 106.536 42.0745C105.712 42.4255 104.891 42.7544 104.066 43.0491L103.8 43.1448L103.556 43.2874C102.317 44.0147 99.2687 45.47 96.001 46.9095C93.7838 47.8861 91.622 48.7842 90.0156 49.3968C90.2577 48.8102 90.479 48.2818 90.6396 47.9016C94.3869 38.8709 99.8425 30.6483 106.706 23.6848C120.174 9.99181 137.748 0.383159 157.272 0.0100403Z" fill="white"/>
</svg>
