<svg width="346" height="97" viewBox="0 0 346 97" fill="none" xmlns="http://www.w3.org/2000/svg">
<path d="M18.9502 96.0461C20.8352 85.7495 24.1647 74.1224 29.1768 64.8964C34.6505 54.8208 44.4499 44.9393 53.8092 38.4712C54.3602 38.0911 54.9174 37.72 55.481 37.3584C62.4292 41.4402 72.5628 48.2449 77.1168 54.9933C78.4906 57.0426 79.5024 59.3123 80.1084 61.7036C83.7515 75.694 74.0732 86.8813 63.2879 94.3634C62.7227 94.7554 61.7173 95.3158 61.9422 96.0461H18.9502Z" fill="white"/>
<path d="M0 24.5378C15.5367 24.4077 33.9446 27.0133 48.0683 33.7758C45.2786 35.0271 40.2264 38.0127 37.6144 39.6614C21.8638 49.6042 10.5714 62.0911 3.89857 79.6162C3.18798 81.4745 2.55569 83.3616 2.00338 85.2727C1.7062 86.3153 1.50994 88.2919 0.668167 88.8806C0.253814 88.5912 0.236429 88.353 0 87.8571V24.5378Z" fill="white"/>
<path d="M61.3789 33.9173C70.8022 28.4019 85.4733 23.9936 96.3988 23.875L96.4059 70.0429C96.4083 78.4351 96.6064 87.7329 96.2958 96.046H87.2677C88.4346 92.6483 89.8418 89.5296 90.9375 86.0126C93.7569 76.9632 94.2729 67.2793 90.1448 58.5718C85.5268 48.8309 71.2605 38.1793 61.3789 33.9173Z" fill="white"/>
<path d="M0 17.8711C31.9685 17.9996 64.1316 17.5922 96.0518 17.8311C96.0517 17.8379 96.0518 17.8447 96.0518 17.8516L96.4033 18.0225L96.4238 22.2207C93.6553 22.2209 90.298 22.1541 87.5801 22.3291C76.2088 23.1399 65.0749 25.9833 54.708 30.7246C49.6476 28.9366 44.1707 26.9105 38.9375 25.7188C26.9354 22.9855 12.2778 21.8956 0 22.7061V17.8711ZM96.3604 0C96.3707 4.56344 96.5166 9.76826 96.3936 14.2705L96.1025 14.583C96.1023 14.5956 96.1018 14.6085 96.1016 14.6211L0 14.6406V0H96.3604Z" fill="white"/>
<path fill-rule="evenodd" clip-rule="evenodd" d="M318.878 20.1017C324.401 19.8458 329.419 20.0734 334.842 21.884C345.554 25.4599 347.201 39.5931 338.691 46.3537C337.301 47.4588 336.125 47.9793 334.465 48.7111C334.828 48.8898 335.188 49.074 335.545 49.2638C341.735 52.575 343.96 67.079 345.999 73.8097C341.861 73.784 337.721 73.8147 333.583 73.9015C332.497 70.7208 331.529 67.5016 330.679 64.2502C328.155 54.497 328.231 52.7995 317.564 52.8595C317.671 59.7588 317.576 66.8985 317.574 73.8166C313.551 73.7842 309.53 73.7986 305.509 73.8605L305.518 21.0529C310.331 20.4649 314.068 20.2414 318.878 20.1017ZM327.209 43.3195C336.073 39.1511 332.206 28.0216 322.098 28.924C320.484 29.0443 319.181 29.159 317.586 29.4064V44.1926C320.533 44.1551 324.476 44.3346 327.209 43.3195Z" fill="white"/>
<path d="M208.861 20.3584L220.059 20.3648C220.137 24.2344 220.369 72.5951 219.989 73.6631L219.66 73.7765C216.07 73.7995 210.702 73.6555 207.269 73.949C201.351 62.9073 194.791 52.241 189.461 40.8974C188.395 38.631 187.371 36.2123 186.142 34.0496C186.742 37.4195 186.694 46.1954 186.706 49.8222L186.736 73.7848C183.036 73.7751 179.336 73.7994 175.637 73.8576C175.238 56.3125 175.601 37.9963 175.513 20.3654L189.821 20.4368C190.23 21.0913 190.615 21.8074 190.987 22.487C196.054 31.7579 201.752 40.6831 206.25 50.258C207.574 53.0758 208.72 56.0094 209.867 58.8988C209.879 57.2899 209.589 54.9728 209.445 53.316C209.246 50.8974 209.105 48.4744 209.022 46.0489C208.733 37.6471 208.876 28.7893 208.861 20.3584Z" fill="white"/>
<path fill-rule="evenodd" clip-rule="evenodd" d="M270.091 55.8819C271.835 61.4589 274.16 68.228 275.598 73.7872C271.366 73.8975 266.81 73.8267 262.542 73.8663C261.383 69.5568 259.864 64.8671 258.537 60.5831C258.503 60.4315 258.41 60.311 258.325 60.1749C256.612 59.7174 245.617 60.0824 242.991 60.1133C242.315 63.8267 240.352 69.8535 239.34 73.7979L226.635 73.8467C228.07 68.6801 229.846 63.2253 231.443 58.087L238.712 34.501C240.06 30.0949 241.941 24.7699 242.989 20.42C248.145 20.5216 253.834 20.3886 259.035 20.3917L270.091 55.8819ZM250.445 29.6583C249.842 31.8634 249.372 34.3184 248.821 36.5733C247.998 39.8734 247.106 43.1559 246.149 46.419C245.76 47.7821 245.259 49.8009 244.799 51.0704L251.132 51.043C252.957 51.0218 254.814 50.9744 256.632 51.0879C256.035 49.0632 250.608 29.8251 250.445 29.6583Z" fill="white"/>
<path d="M153.404 19.5898C158.198 19.1584 163.818 20.2657 168.328 21.8978C167.438 25.0571 166.638 28.3782 165.825 31.5679C157.203 28.1252 145.221 28.5026 140.427 37.9496C136.394 45.8956 138.189 58.644 146.974 62.7419C153.037 65.5705 159.474 64.922 165.703 62.821C166.122 64.8799 166.567 66.9333 167.037 68.981L167.746 72.457C164.229 73.6174 160.579 74.3211 156.883 74.5514C148.96 75.0411 140.018 73.4891 133.865 68.0291C123.249 58.6092 123.16 39.3898 132.243 28.9253C137.626 22.7244 145.368 20.0597 153.404 19.5898Z" fill="white"/>
<path d="M282.735 20.3826L295.057 20.376L295.03 73.8059C290.956 73.8013 286.884 73.8186 282.81 73.8577C282.552 56.0993 283.015 38.1278 282.735 20.3826Z" fill="white"/>
</svg>
