<svg xmlns="http://www.w3.org/2000/svg" width="64" height="64" fill="none"><rect width="64" height="64" fill="#002b7f" rx="32"/><mask id="a" width="36" height="52" x="16" y="4" maskUnits="userSpaceOnUse" style="mask-type:luminance"><path fill="#fff" d="M51.636 4H16v51.116h35.636z"/></mask><g fill="#fefefe" mask="url(#a)"><path d="M25.412 15.745 16 20.457v34.418l9.412-4.711zM19.807 5.617l-.392.285c-2.075 1.505-3.417 4.764-2.998 7.28.418 2.514 2.44 3.332 4.513 1.826l.393-.285c2.074-1.505 3.416-4.765 2.998-7.28-.419-2.514-2.44-3.332-4.514-1.826M38.062 15.274a9.4 9.4 0 0 1 9.121.392 9.32 9.32 0 0 1 4.448 7.942v12.601c0 4.094-2.32 7.842-5.993 9.68l-14.329 7.17V18.653zm-.266 9.743v16.36l4.93-2.468a4.06 4.06 0 0 0 2.246-3.628v-7.72a3.78 3.78 0 0 0-1.806-3.221 3.81 3.81 0 0 0-3.7-.16z"/><path fill-opacity=".4" d="m31.309 18.698-5.897-2.953V50.17l5.897 2.953z"/></g></svg>
