<svg width="396" height="172" viewBox="0 0 396 172" fill="none" xmlns="http://www.w3.org/2000/svg">
<path d="M25.167 134.949V42.2734H36.2327V134.949H25.167Z" fill="black"/>
<path d="M136.789 40.5771C141.218 40.5772 145.483 41.5837 149.584 43.5964C153.464 45.4818 156.732 47.9557 159.389 51.0184L152.409 58.1814C151.679 57.4701 150.922 56.8015 150.138 56.1761C148.087 54.4988 145.934 53.1987 143.679 52.2762C141.464 51.3537 139.25 50.8925 137.035 50.8925C133.221 50.8925 130.146 52.1926 127.808 54.7924C125.512 57.3922 124.363 60.5791 124.363 64.3531C124.363 68.7978 125.819 72.383 128.731 75.1086C131.683 77.7923 135.641 80.1196 140.603 82.0904C144.54 83.6419 148.19 85.5499 151.553 87.8142C154.956 90.0785 157.684 92.9301 159.734 96.3686C161.826 99.7651 162.871 103.979 162.871 109.011C162.871 114.253 161.723 118.844 159.427 122.786C157.171 126.728 154.136 129.81 150.322 132.032C146.549 134.213 142.366 135.303 137.773 135.303C134.287 135.303 130.904 134.695 127.623 133.479C124.343 132.263 121.328 130.648 118.581 128.636C115.925 126.69 113.69 124.587 111.877 122.328L119.309 114.7C120.174 115.722 121.1 116.719 122.087 117.691C124.343 119.83 126.762 121.591 129.346 122.975C131.929 124.317 134.575 124.988 137.281 124.988C139.947 124.988 142.387 124.296 144.602 122.912C146.857 121.528 148.661 119.62 150.015 117.188C151.368 114.756 152.045 111.989 152.045 108.886C152.045 105.908 151.368 103.35 150.015 101.212C148.702 99.0313 146.796 97.1444 144.294 95.5509C141.792 93.9156 138.798 92.4058 135.313 91.022C130.843 89.2189 126.967 87.0385 123.686 84.4806C120.447 81.9228 117.945 78.9666 116.182 75.612C114.418 72.2155 113.537 68.3786 113.537 64.1015C113.537 59.4889 114.521 55.4214 116.489 51.899C118.499 48.3348 121.246 45.5673 124.732 43.5964C128.259 41.5837 132.278 40.5771 136.789 40.5771Z" fill="black"/>
<path d="M22.6702 139.239C19.1071 144.454 15.5262 149.659 11.9262 154.852C7.97313 160.555 3.99757 166.245 0 171.921C3.10768 165.713 6.23781 159.518 9.38998 153.336C13.7737 144.739 18.2004 136.168 22.6702 127.623V139.239Z" fill="black"/>
<path d="M82.1306 31.7084C88.0989 31.5477 93.6722 36.4833 94.212 42.4919C95.9339 56.9731 97.5411 71.4665 99.0342 85.9712C100.207 97.367 101.31 108.77 102.342 120.18C108.983 109.008 115.705 97.8796 122.505 86.7964C122.548 86.8307 122.591 86.8655 122.635 86.8997L122.646 86.9091C125.519 89.1484 128.795 91.0945 132.461 92.7595C128.87 99.7428 125.25 106.709 121.601 113.66L119.882 111.629L109.099 122.695L110.437 124.363C111.488 125.672 112.663 126.923 113.957 128.118C112.42 131.005 110.879 133.89 109.331 136.771C107.466 140.206 103.649 142.479 99.7124 142.472C94.1969 142.614 89.0566 138.053 88.5612 132.506C86.7733 117.538 85.1077 102.557 83.5643 87.5637C82.3337 75.6096 81.1807 63.6472 80.1055 51.6771C66.5012 73.2945 52.594 94.7311 38.3845 115.987V98.0178C49.3066 77.7354 60.474 57.5996 71.8877 37.6113C73.9462 34.0426 77.9773 31.7067 82.1306 31.7084Z" fill="black"/>
<path d="M142.472 54.7468C142.712 54.8346 142.953 54.9288 143.195 55.0296L143.202 55.0325L143.21 55.0355C145.225 55.8595 147.173 57.0307 149.053 58.5692L149.077 58.5881C149.234 58.7132 149.389 58.8409 149.544 58.9699C146.174 65.7485 142.778 72.5121 139.355 79.2603C135.821 77.6368 132.993 75.8272 130.822 73.8585C130.752 73.7931 130.683 73.7268 130.616 73.6602C134.542 67.341 138.494 61.0367 142.472 54.7468Z" fill="black"/>
<path d="M178 0C175.056 6.28762 172.09 12.5626 169.101 18.8248C164.907 27.6131 160.667 36.3761 156.384 45.1143C154.749 43.9218 152.982 42.8648 151.087 41.9436C150.967 41.8851 150.848 41.8281 150.728 41.7712C155.95 33.6146 161.216 25.4828 166.526 17.3758C170.328 11.5712 174.153 5.77916 178 0Z" fill="black"/>
<path d="M204.473 59.2803V35.3584H209.545V59.2803H204.473Z" fill="black"/>
<path d="M225.564 40.6435C227.516 40.6435 229.087 41.178 230.276 42.247C231.465 43.3051 232.06 45.0068 232.06 47.3521V59.2803H227.069V48.5956C227.069 47.2866 226.829 46.2994 226.349 45.634C225.88 44.9686 225.138 44.6359 224.124 44.6359C222.597 44.6359 221.555 45.1541 220.999 46.1904C220.442 47.2266 220.164 48.7211 220.164 50.6737V59.2803H215.174V40.9871H218.986L219.657 43.3269H219.935C220.328 42.6942 220.813 42.1815 221.391 41.7888C221.98 41.3961 222.63 41.1071 223.339 40.9216C224.059 40.7362 224.8 40.6435 225.564 40.6435Z" fill="black"/>
<path d="M249.96 53.848C249.96 55.0915 249.666 56.1442 249.077 57.006C248.499 57.8568 247.631 58.5059 246.475 58.9531C245.319 59.3894 243.879 59.6076 242.155 59.6076C240.879 59.6076 239.783 59.5258 238.867 59.3622C237.961 59.1985 237.045 58.9258 236.118 58.544V54.4207C237.11 54.8679 238.174 55.2388 239.308 55.5333C240.454 55.8169 241.457 55.9588 242.319 55.9588C243.29 55.9588 243.983 55.8169 244.397 55.5333C244.823 55.2388 245.035 54.857 245.035 54.388C245.035 54.0825 244.948 53.8098 244.773 53.5698C244.61 53.3189 244.25 53.0408 243.694 52.7353C243.137 52.419 242.265 52.0099 241.076 51.5082C239.93 51.0282 238.987 50.5428 238.245 50.0519C237.514 49.561 236.969 48.9829 236.609 48.3175C236.259 47.6412 236.085 46.7849 236.085 45.7486C236.085 44.0578 236.739 42.787 238.048 41.9361C239.368 41.0743 241.13 40.6435 243.334 40.6435C244.468 40.6435 245.548 40.758 246.573 40.9871C247.61 41.2162 248.673 41.5816 249.764 42.0834L248.259 45.6831C247.353 45.2904 246.497 44.9686 245.69 44.7177C244.893 44.4668 244.081 44.3414 243.252 44.3414C242.521 44.3414 241.97 44.4396 241.599 44.6359C241.228 44.8323 241.043 45.1322 241.043 45.5359C241.043 45.8304 241.136 46.0922 241.321 46.3213C241.517 46.5503 241.888 46.8067 242.434 47.0903C242.99 47.363 243.803 47.7175 244.872 48.1539C245.908 48.5793 246.808 49.0265 247.571 49.4956C248.335 49.9537 248.924 50.5264 249.339 51.2136C249.753 51.89 249.96 52.7681 249.96 53.848Z" fill="black"/>
<path d="M261.561 55.6315C262.107 55.6315 262.636 55.577 263.149 55.4679C263.672 55.3588 264.19 55.2224 264.703 55.0588V58.7731C264.168 59.0131 263.503 59.2094 262.707 59.3622C261.921 59.5258 261.06 59.6076 260.121 59.6076C259.031 59.6076 258.049 59.4331 257.176 59.084C256.314 58.724 255.633 58.1077 255.131 57.235C254.64 56.3515 254.395 55.1243 254.395 53.5535V44.7341H252.006V42.6233L254.755 40.9544L256.194 37.0928H259.385V40.9871H264.507V44.7341H259.385V53.5535C259.385 54.2516 259.581 54.7752 259.974 55.1243C260.378 55.4624 260.907 55.6315 261.561 55.6315Z" fill="black"/>
<path d="M273.408 40.9871V59.2803H268.417V40.9871H273.408ZM270.921 33.8203C271.662 33.8203 272.301 33.9948 272.835 34.3439C273.37 34.6821 273.637 35.3202 273.637 36.2583C273.637 37.1855 273.37 37.8291 272.835 38.1891C272.301 38.5382 271.662 38.7127 270.921 38.7127C270.168 38.7127 269.524 38.5382 268.99 38.1891C268.466 37.8291 268.205 37.1855 268.205 36.2583C268.205 35.3202 268.466 34.6821 268.99 34.3439C269.524 33.9948 270.168 33.8203 270.921 33.8203Z" fill="black"/>
<path d="M286.367 55.6315C286.912 55.6315 287.441 55.577 287.954 55.4679C288.478 55.3588 288.996 55.2224 289.508 55.0588V58.7731C288.974 59.0131 288.309 59.2094 287.512 59.3622C286.727 59.5258 285.865 59.6076 284.927 59.6076C283.836 59.6076 282.854 59.4331 281.982 59.084C281.12 58.724 280.438 58.1077 279.936 57.235C279.446 56.3515 279.2 55.1243 279.2 53.5535V44.7341H276.811V42.6233L279.56 40.9544L281 37.0928H284.191V40.9871H289.312V44.7341H284.191V53.5535C284.191 54.2516 284.387 54.7752 284.78 55.1243C285.183 55.4624 285.712 55.6315 286.367 55.6315Z" fill="black"/>
<path d="M310.011 40.9871V59.2803H306.182L305.511 56.9405H305.249C304.856 57.5623 304.366 58.0695 303.777 58.4622C303.188 58.8549 302.538 59.144 301.829 59.3294C301.12 59.5149 300.384 59.6076 299.62 59.6076C298.311 59.6076 297.172 59.3785 296.201 58.9204C295.23 58.4513 294.472 57.7259 293.926 56.7442C293.392 55.7624 293.125 54.4861 293.125 52.9153V40.9871H298.115V51.6718C298.115 52.9808 298.35 53.968 298.819 54.6334C299.288 55.2988 300.035 55.6315 301.06 55.6315C302.075 55.6315 302.871 55.4024 303.449 54.9443C304.027 54.4752 304.431 53.7935 304.66 52.899C304.9 51.9936 305.02 50.8918 305.02 49.5937V40.9871H310.011Z" fill="black"/>
<path d="M322.953 55.6315C323.499 55.6315 324.028 55.577 324.541 55.4679C325.064 55.3588 325.582 55.2224 326.095 55.0588V58.7731C325.56 59.0131 324.895 59.2094 324.099 59.3622C323.313 59.5258 322.452 59.6076 321.514 59.6076C320.423 59.6076 319.441 59.4331 318.568 59.084C317.707 58.724 317.025 58.1077 316.523 57.235C316.032 56.3515 315.787 55.1243 315.787 53.5535V44.7341H313.398V42.6233L316.147 40.9544L317.587 37.0928H320.777V40.9871H325.899V44.7341H320.777V53.5535C320.777 54.2516 320.974 54.7752 321.366 55.1243C321.77 55.4624 322.299 55.6315 322.953 55.6315Z" fill="black"/>
<path d="M346.597 40.9871V59.2803H342.768L342.098 56.9405H341.836C341.443 57.5623 340.952 58.0695 340.363 58.4622C339.774 58.8549 339.125 59.144 338.416 59.3294C337.707 59.5149 336.971 59.6076 336.207 59.6076C334.898 59.6076 333.758 59.3785 332.787 58.9204C331.816 58.4513 331.058 57.7259 330.513 56.7442C329.978 55.7624 329.711 54.4861 329.711 52.9153V40.9871H334.702V51.6718C334.702 52.9808 334.936 53.968 335.405 54.6334C335.874 55.2988 336.622 55.6315 337.647 55.6315C338.661 55.6315 339.458 55.4024 340.036 54.9443C340.614 54.4752 341.018 53.7935 341.247 52.899C341.487 51.9936 341.607 50.8918 341.607 49.5937V40.9871H346.597Z" fill="black"/>
<path d="M356.824 59.2803H351.833V33.8203H356.824V59.2803Z" fill="black"/>
<path d="M225.695 98.5267H219.248L208.841 80.4298H208.694C208.738 81.1825 208.776 81.9406 208.809 82.7042C208.841 83.4678 208.874 84.2314 208.907 84.9949C208.94 85.7476 208.972 86.5058 209.005 87.2693V98.5267H204.473V74.6048H210.87L221.261 92.5217H221.375C221.353 91.7799 221.326 91.0436 221.293 90.3128C221.261 89.5819 221.228 88.851 221.195 88.1202C221.173 87.3893 221.151 86.6585 221.13 85.9276V74.6048H225.695V98.5267Z" fill="black"/>
<path d="M238.834 79.8571C241.288 79.8571 243.17 80.3916 244.479 81.4606C245.788 82.5297 246.442 84.155 246.442 86.3367V98.5267H242.957L241.992 96.0396H241.861C241.337 96.6941 240.803 97.2286 240.257 97.6431C239.712 98.0577 239.085 98.3631 238.376 98.5594C237.667 98.7558 236.805 98.854 235.79 98.854C234.711 98.854 233.74 98.6467 232.878 98.2322C232.027 97.8177 231.356 97.185 230.865 96.3341C230.374 95.4724 230.129 94.3816 230.129 93.0617C230.129 91.12 230.811 89.691 232.174 88.7747C233.538 87.8475 235.583 87.3348 238.31 87.2366L241.485 87.1384V86.3367C241.485 85.3767 241.234 84.6731 240.732 84.2259C240.23 83.7787 239.532 83.555 238.637 83.555C237.754 83.555 236.887 83.6805 236.036 83.9314C235.185 84.1823 234.334 84.4986 233.483 84.8804L231.831 81.5097C232.802 80.997 233.887 80.5934 235.087 80.2989C236.298 80.0044 237.547 79.8571 238.834 79.8571ZM241.485 90.051L239.554 90.1164C237.939 90.16 236.816 90.4491 236.183 90.9836C235.561 91.5181 235.25 92.2217 235.25 93.0944C235.25 93.858 235.474 94.4034 235.921 94.7306C236.369 95.047 236.952 95.2051 237.672 95.2051C238.741 95.2051 239.641 94.8888 240.372 94.2561C241.114 93.6234 241.485 92.7235 241.485 91.5563V90.051Z" fill="black"/>
<path d="M259.303 94.8779C259.849 94.8779 260.378 94.8233 260.89 94.7143C261.414 94.6052 261.932 94.4688 262.445 94.3052V98.0195C261.91 98.2595 261.245 98.4558 260.449 98.6085C259.663 98.7722 258.802 98.854 257.863 98.854C256.773 98.854 255.791 98.6794 254.918 98.3304C254.056 97.9704 253.375 97.3541 252.873 96.4814C252.382 95.5978 252.137 94.3707 252.137 92.7999V83.9805H249.748V81.8697L252.497 80.2007L253.936 76.3392H257.127V80.2335H262.249V83.9805H257.127V92.7999C257.127 93.498 257.323 94.0216 257.716 94.3706C258.12 94.7088 258.649 94.8779 259.303 94.8779ZM259.86 100.572V100.899C259.641 101.39 259.391 101.908 259.107 102.454C258.834 103.01 258.534 103.577 258.207 104.155C257.88 104.744 257.525 105.339 257.143 105.939H254.231V105.497C254.362 105.061 254.493 104.548 254.624 103.959C254.755 103.381 254.875 102.792 254.984 102.192C255.104 101.592 255.191 101.052 255.245 100.572H259.86Z" fill="black"/>
<path d="M271.15 80.2335V98.5267H266.159V80.2335H271.15ZM268.663 73.0667C269.404 73.0667 270.043 73.2412 270.577 73.5903C271.112 73.9284 271.379 74.5666 271.379 75.5047C271.379 76.4319 271.112 77.0755 270.577 77.4355C270.043 77.7845 269.404 77.9591 268.663 77.9591C267.91 77.9591 267.266 77.7845 266.732 77.4355C266.208 77.0755 265.946 76.4319 265.946 75.5047C265.946 74.5666 266.208 73.9284 266.732 73.5903C267.266 73.2412 267.91 73.0667 268.663 73.0667Z" fill="black"/>
<path d="M293.026 89.3474C293.026 90.8745 292.819 92.2272 292.405 93.4053C292.001 94.5834 291.407 95.5815 290.621 96.3996C289.847 97.2068 288.909 97.8177 287.807 98.2322C286.716 98.6467 285.483 98.854 284.109 98.854C282.822 98.854 281.638 98.6467 280.558 98.2322C279.489 97.8177 278.557 97.2068 277.76 96.3996C276.975 95.5815 276.364 94.5834 275.928 93.4053C275.502 92.2272 275.289 90.8745 275.289 89.3474C275.289 87.3184 275.649 85.6004 276.369 84.1932C277.089 82.786 278.115 81.717 279.446 80.9861C280.776 80.2553 282.364 79.8898 284.207 79.8898C285.92 79.8898 287.436 80.2553 288.756 80.9861C290.087 81.717 291.128 82.786 291.881 84.1932C292.645 85.6004 293.026 87.3184 293.026 89.3474ZM280.378 89.3474C280.378 90.5473 280.509 91.5563 280.771 92.3744C281.033 93.1925 281.442 93.8089 281.998 94.2234C282.554 94.6379 283.28 94.8452 284.174 94.8452C285.058 94.8452 285.772 94.6379 286.318 94.2234C286.874 93.8089 287.278 93.1925 287.529 92.3744C287.79 91.5563 287.921 90.5473 287.921 89.3474C287.921 88.1365 287.79 87.133 287.529 86.3367C287.278 85.5295 286.874 84.924 286.318 84.5204C285.761 84.1168 285.036 83.915 284.142 83.915C282.822 83.915 281.862 84.3677 281.262 85.2731C280.673 86.1785 280.378 87.5366 280.378 89.3474Z" fill="black"/>
<path d="M307.54 79.8898C309.493 79.8898 311.063 80.4244 312.252 81.4934C313.441 82.5515 314.036 84.2532 314.036 86.5985V98.5267H309.045V87.842C309.045 86.533 308.805 85.5458 308.325 84.8804C307.856 84.215 307.115 83.8823 306.1 83.8823C304.573 83.8823 303.531 84.4004 302.975 85.4367C302.418 86.473 302.14 87.9675 302.14 89.9201V98.5267H297.15V80.2335H300.962L301.633 82.5733H301.911C302.304 81.9406 302.789 81.4279 303.368 81.0352C303.957 80.6425 304.606 80.3535 305.315 80.168C306.035 79.9826 306.776 79.8898 307.54 79.8898Z" fill="black"/>
<path d="M326.668 79.8571C329.122 79.8571 331.004 80.3916 332.313 81.4606C333.622 82.5297 334.276 84.155 334.276 86.3367V98.5267H330.791L329.826 96.0396H329.695C329.171 96.6941 328.637 97.2286 328.091 97.6431C327.546 98.0577 326.919 98.3631 326.21 98.5594C325.5 98.7558 324.639 98.854 323.624 98.854C322.544 98.854 321.573 98.6467 320.712 98.2322C319.861 97.8177 319.19 97.185 318.699 96.3341C318.208 95.4724 317.963 94.3816 317.963 93.0617C317.963 91.12 318.645 89.691 320.008 88.7747C321.372 87.8475 323.417 87.3348 326.144 87.2366L329.318 87.1384V86.3367C329.318 85.3767 329.068 84.6731 328.566 84.2259C328.064 83.7787 327.366 83.555 326.471 83.555C325.588 83.555 324.721 83.6805 323.87 83.9314C323.019 84.1823 322.168 84.4986 321.317 84.8804L319.665 81.5097C320.635 80.997 321.721 80.5934 322.921 80.2989C324.132 80.0044 325.381 79.8571 326.668 79.8571ZM329.318 90.051L327.388 90.1164C325.773 90.16 324.65 90.4491 324.017 90.9836C323.395 91.5181 323.084 92.2217 323.084 93.0944C323.084 93.858 323.308 94.4034 323.755 94.7306C324.202 95.047 324.786 95.2051 325.506 95.2051C326.575 95.2051 327.475 94.8888 328.206 94.2561C328.948 93.6234 329.318 92.7235 329.318 91.5563V90.051Z" fill="black"/>
<path d="M344.421 98.5267H339.43V73.0667H344.421V98.5267Z" fill="black"/>
<path d="M364.17 98.854C362.131 98.854 360.467 98.0577 359.18 96.465C357.904 94.8615 357.266 92.5108 357.266 89.4128C357.266 86.2821 357.915 83.915 359.213 82.3115C360.511 80.6971 362.207 79.8898 364.301 79.8898C365.174 79.8898 365.943 80.0098 366.609 80.2498C367.274 80.4898 367.847 80.8116 368.327 81.2152C368.817 81.6188 369.232 82.0715 369.57 82.5733H369.734C369.668 82.2242 369.586 81.7115 369.488 81.0352C369.401 80.348 369.357 79.6444 369.357 78.9245V73.0667H374.364V98.5267H370.536L369.57 96.1542H369.357C369.041 96.6559 368.643 97.1141 368.163 97.5286C367.694 97.9322 367.132 98.254 366.478 98.494C365.823 98.734 365.054 98.854 364.17 98.854ZM365.921 94.8779C367.285 94.8779 368.245 94.4743 368.801 93.6671C369.368 92.8489 369.668 91.6218 369.701 89.9855V89.4455C369.701 87.6675 369.428 86.3094 368.883 85.3713C368.337 84.4223 367.323 83.9477 365.839 83.9477C364.738 83.9477 363.876 84.4223 363.254 85.3713C362.632 86.3203 362.322 87.6893 362.322 89.4783C362.322 91.2672 362.632 92.6144 363.254 93.5198C363.887 94.4252 364.776 94.8779 365.921 94.8779Z" fill="black"/>
<path d="M387.127 79.8898C388.818 79.8898 390.274 80.2171 391.496 80.8716C392.718 81.5152 393.661 82.4533 394.327 83.6859C394.992 84.9186 395.325 86.4239 395.325 88.202V90.6236H383.527C383.582 92.0308 384.002 93.138 384.787 93.9452C385.584 94.7415 386.685 95.1397 388.092 95.1397C389.26 95.1397 390.329 95.0197 391.3 94.7797C392.27 94.5397 393.268 94.1798 394.294 93.6998V97.5613C393.388 98.0086 392.439 98.3358 391.447 98.5431C390.465 98.7503 389.271 98.854 387.863 98.854C386.031 98.854 384.405 98.5158 382.987 97.8395C381.58 97.1632 380.473 96.1323 379.666 94.747C378.869 93.3616 378.471 91.6163 378.471 89.511C378.471 87.373 378.831 85.5949 379.551 84.1768C380.282 82.7478 381.297 81.6788 382.595 80.9698C383.893 80.2498 385.404 79.8898 387.127 79.8898ZM387.16 83.4405C386.189 83.4405 385.382 83.7514 384.738 84.3732C384.105 84.9949 383.74 85.9712 383.642 87.3021H390.645C390.634 86.5603 390.498 85.9003 390.236 85.3222C389.985 84.7441 389.603 84.2859 389.091 83.9477C388.589 83.6096 387.945 83.4405 387.16 83.4405Z" fill="black"/>
<path d="M218.593 131.13C218.593 132.548 218.25 133.781 217.563 134.828C216.875 135.875 215.872 136.682 214.552 137.25C213.243 137.817 211.65 138.1 209.774 138.1C208.945 138.1 208.132 138.046 207.336 137.937C206.551 137.828 205.793 137.669 205.062 137.462C204.342 137.244 203.654 136.977 203 136.66V131.948C204.134 132.45 205.313 132.903 206.534 133.306C207.756 133.71 208.967 133.912 210.167 133.912C210.996 133.912 211.661 133.802 212.163 133.584C212.676 133.366 213.047 133.066 213.276 132.684C213.505 132.303 213.619 131.866 213.619 131.375C213.619 130.775 213.417 130.263 213.014 129.837C212.61 129.412 212.054 129.014 211.345 128.643C210.647 128.272 209.856 127.874 208.972 127.448C208.416 127.187 207.811 126.87 207.156 126.499C206.502 126.118 205.88 125.654 205.291 125.109C204.702 124.563 204.216 123.903 203.834 123.129C203.464 122.343 203.278 121.405 203.278 120.314C203.278 118.885 203.605 117.664 204.26 116.649C204.914 115.635 205.847 114.86 207.058 114.326C208.28 113.78 209.72 113.508 211.378 113.508C212.621 113.508 213.805 113.655 214.928 113.949C216.063 114.233 217.246 114.647 218.479 115.193L216.843 119.136C215.741 118.689 214.754 118.345 213.881 118.105C213.008 117.855 212.119 117.729 211.214 117.729C210.581 117.729 210.041 117.833 209.594 118.04C209.147 118.236 208.809 118.52 208.58 118.891C208.351 119.251 208.236 119.671 208.236 120.151C208.236 120.718 208.4 121.198 208.727 121.591C209.065 121.972 209.567 122.343 210.232 122.703C210.909 123.063 211.748 123.483 212.752 123.963C213.974 124.541 215.016 125.147 215.877 125.779C216.75 126.401 217.421 127.137 217.89 127.988C218.359 128.828 218.593 129.875 218.593 131.13Z" fill="black"/>
<path d="M230.244 134.124C230.789 134.124 231.318 134.07 231.831 133.961C232.354 133.852 232.872 133.715 233.385 133.552V137.266C232.851 137.506 232.185 137.702 231.389 137.855C230.604 138.019 229.742 138.1 228.804 138.1C227.713 138.1 226.731 137.926 225.858 137.577C224.997 137.217 224.315 136.6 223.813 135.728C223.322 134.844 223.077 133.617 223.077 132.046V123.227H220.688V121.116L223.437 119.447L224.877 115.586H228.067V119.48H233.189V123.227H228.067V132.046C228.067 132.744 228.264 133.268 228.656 133.617C229.06 133.955 229.589 134.124 230.244 134.124Z" fill="black"/>
<path d="M244.593 119.104C247.048 119.104 248.93 119.638 250.239 120.707C251.548 121.776 252.202 123.401 252.202 125.583V137.773H248.717L247.751 135.286H247.621C247.097 135.941 246.562 136.475 246.017 136.89C245.472 137.304 244.844 137.609 244.135 137.806C243.426 138.002 242.564 138.1 241.55 138.1C240.47 138.1 239.499 137.893 238.637 137.479C237.787 137.064 237.116 136.431 236.625 135.581C236.134 134.719 235.889 133.628 235.889 132.308C235.889 130.366 236.57 128.937 237.934 128.021C239.297 127.094 241.343 126.581 244.07 126.483L247.244 126.385V125.583C247.244 124.623 246.993 123.92 246.491 123.472C245.99 123.025 245.292 122.801 244.397 122.801C243.514 122.801 242.646 122.927 241.795 123.178C240.945 123.429 240.094 123.745 239.243 124.127L237.59 120.756C238.561 120.243 239.647 119.84 240.846 119.545C242.057 119.251 243.306 119.104 244.593 119.104ZM247.244 129.297L245.313 129.363C243.699 129.406 242.575 129.695 241.943 130.23C241.321 130.765 241.01 131.468 241.01 132.341C241.01 133.104 241.234 133.65 241.681 133.977C242.128 134.293 242.712 134.452 243.432 134.452C244.501 134.452 245.401 134.135 246.132 133.502C246.873 132.87 247.244 131.97 247.244 130.803V129.297Z" fill="black"/>
<path d="M265.063 134.124C265.608 134.124 266.137 134.07 266.65 133.961C267.174 133.852 267.692 133.715 268.205 133.552V137.266C267.67 137.506 267.005 137.702 266.208 137.855C265.423 138.019 264.561 138.1 263.623 138.1C262.532 138.1 261.55 137.926 260.678 137.577C259.816 137.217 259.134 136.6 258.632 135.728C258.142 134.844 257.896 133.617 257.896 132.046V123.227H255.507V121.116L258.256 119.447L259.696 115.586H262.887V119.48H268.008V123.227H262.887V132.046C262.887 132.744 263.083 133.268 263.476 133.617C263.879 133.955 264.408 134.124 265.063 134.124Z" fill="black"/>
<path d="M276.909 119.48V137.773H271.919V119.48H276.909ZM274.422 112.313C275.164 112.313 275.802 112.488 276.337 112.837C276.871 113.175 277.138 113.813 277.138 114.751C277.138 115.678 276.871 116.322 276.337 116.682C275.802 117.031 275.164 117.205 274.422 117.205C273.67 117.205 273.026 117.031 272.491 116.682C271.968 116.322 271.706 115.678 271.706 114.751C271.706 113.813 271.968 113.175 272.491 112.837C273.026 112.488 273.67 112.313 274.422 112.313Z" fill="black"/>
<path d="M294.924 132.341C294.924 133.584 294.63 134.637 294.041 135.499C293.463 136.35 292.596 136.999 291.439 137.446C290.283 137.882 288.843 138.1 287.12 138.1C285.843 138.1 284.747 138.019 283.831 137.855C282.925 137.691 282.009 137.419 281.082 137.037V132.913C282.074 133.361 283.138 133.732 284.272 134.026C285.418 134.31 286.421 134.452 287.283 134.452C288.254 134.452 288.947 134.31 289.361 134.026C289.787 133.732 289.999 133.35 289.999 132.881C289.999 132.575 289.912 132.303 289.738 132.063C289.574 131.812 289.214 131.534 288.658 131.228C288.101 130.912 287.229 130.503 286.04 130.001C284.894 129.521 283.951 129.036 283.209 128.545C282.478 128.054 281.933 127.476 281.573 126.81C281.224 126.134 281.049 125.278 281.049 124.241C281.049 122.551 281.704 121.28 283.013 120.429C284.332 119.567 286.094 119.136 288.298 119.136C289.432 119.136 290.512 119.251 291.537 119.48C292.574 119.709 293.637 120.074 294.728 120.576L293.223 124.176C292.317 123.783 291.461 123.461 290.654 123.21C289.858 122.96 289.045 122.834 288.216 122.834C287.485 122.834 286.934 122.932 286.563 123.129C286.192 123.325 286.007 123.625 286.007 124.029C286.007 124.323 286.1 124.585 286.285 124.814C286.481 125.043 286.852 125.299 287.398 125.583C287.954 125.856 288.767 126.21 289.836 126.647C290.872 127.072 291.772 127.519 292.536 127.988C293.299 128.446 293.888 129.019 294.303 129.706C294.717 130.383 294.924 131.261 294.924 132.341Z" fill="black"/>
<path d="M306.525 134.124C307.071 134.124 307.6 134.07 308.113 133.961C308.636 133.852 309.154 133.715 309.667 133.552V137.266C309.133 137.506 308.467 137.702 307.671 137.855C306.885 138.019 306.024 138.1 305.086 138.1C303.995 138.1 303.013 137.926 302.14 137.577C301.279 137.217 300.597 136.6 300.095 135.728C299.604 134.844 299.359 133.617 299.359 132.046V123.227H296.97V121.116L299.719 119.447L301.159 115.586H304.349V119.48H309.471V123.227H304.349V132.046C304.349 132.744 304.546 133.268 304.938 133.617C305.342 133.955 305.871 134.124 306.525 134.124Z" fill="black"/>
<path d="M318.372 119.48V137.773H313.381V119.48H318.372ZM315.885 112.313C316.627 112.313 317.265 112.488 317.799 112.837C318.334 113.175 318.601 113.813 318.601 114.751C318.601 115.678 318.334 116.322 317.799 116.682C317.265 117.031 316.627 117.205 315.885 117.205C315.132 117.205 314.489 117.031 313.954 116.682C313.43 116.322 313.169 115.678 313.169 114.751C313.169 113.813 313.43 113.175 313.954 112.837C314.489 112.488 315.132 112.313 315.885 112.313Z" fill="black"/>
<path d="M331.053 138.1C329.242 138.1 327.699 137.773 326.422 137.119C325.146 136.453 324.175 135.428 323.51 134.042C322.844 132.657 322.512 130.884 322.512 128.725C322.512 126.488 322.888 124.667 323.641 123.26C324.404 121.841 325.457 120.8 326.799 120.134C328.151 119.469 329.717 119.136 331.495 119.136C332.76 119.136 333.851 119.262 334.767 119.513C335.694 119.753 336.502 120.042 337.189 120.38L335.716 124.241C334.931 123.925 334.2 123.669 333.524 123.472C332.847 123.265 332.171 123.161 331.495 123.161C330.622 123.161 329.897 123.369 329.318 123.783C328.74 124.187 328.309 124.798 328.026 125.616C327.742 126.434 327.6 127.459 327.6 128.692C327.6 129.903 327.753 130.906 328.058 131.703C328.364 132.499 328.806 133.093 329.384 133.486C329.962 133.868 330.666 134.059 331.495 134.059C332.531 134.059 333.453 133.922 334.26 133.65C335.067 133.366 335.852 132.973 336.616 132.472V136.742C335.852 137.222 335.051 137.566 334.211 137.773C333.382 137.991 332.329 138.1 331.053 138.1Z" fill="black"/>
<path d="M348.364 119.104C350.819 119.104 352.7 119.638 354.009 120.707C355.318 121.776 355.973 123.401 355.973 125.583V137.773H352.488L351.522 135.286H351.391C350.868 135.941 350.333 136.475 349.788 136.89C349.242 137.304 348.615 137.609 347.906 137.806C347.197 138.002 346.335 138.1 345.321 138.1C344.241 138.1 343.27 137.893 342.408 137.479C341.558 137.064 340.887 136.431 340.396 135.581C339.905 134.719 339.659 133.628 339.659 132.308C339.659 130.366 340.341 128.937 341.705 128.021C343.068 127.094 345.114 126.581 347.841 126.483L351.015 126.385V125.583C351.015 124.623 350.764 123.92 350.262 123.472C349.761 123.025 349.062 122.801 348.168 122.801C347.284 122.801 346.417 122.927 345.566 123.178C344.716 123.429 343.865 123.745 343.014 124.127L341.361 120.756C342.332 120.243 343.417 119.84 344.617 119.545C345.828 119.251 347.077 119.104 348.364 119.104ZM351.015 129.297L349.084 129.363C347.47 129.406 346.346 129.695 345.714 130.23C345.092 130.765 344.781 131.468 344.781 132.341C344.781 133.104 345.005 133.65 345.452 133.977C345.899 134.293 346.483 134.452 347.203 134.452C348.272 134.452 349.172 134.135 349.902 133.502C350.644 132.87 351.015 131.97 351.015 130.803V129.297ZM354.909 111.937C354.833 113.017 354.511 113.977 353.944 114.817C353.388 115.646 352.635 116.295 351.686 116.764C350.748 117.233 349.657 117.467 348.413 117.467C346.494 117.467 344.972 116.965 343.848 115.962C342.736 114.958 342.136 113.617 342.048 111.937H344.83C344.885 112.559 345.075 113.017 345.403 113.311C345.741 113.595 346.172 113.78 346.695 113.868C347.23 113.944 347.813 113.982 348.446 113.982C348.97 113.982 349.499 113.933 350.033 113.835C350.568 113.737 351.021 113.54 351.391 113.246C351.773 112.951 351.997 112.515 352.062 111.937H354.909Z" fill="black"/>
</svg>
