<svg width="396" height="173" viewBox="0 0 396 173" fill="none" xmlns="http://www.w3.org/2000/svg">
<path d="M178.155 0C175.209 6.29312 172.241 12.5736 169.249 18.8412C150.223 58.7057 130.282 98.0555 109.427 136.891C107.56 140.329 103.74 142.604 99.7998 142.596C94.2793 142.739 89.1344 138.173 88.6385 132.622C86.8491 117.641 85.182 102.647 83.6372 87.64C82.4056 75.6754 81.2517 63.7028 80.1756 51.7222C58.2169 86.6148 35.4708 121.037 11.9365 154.987C7.97994 160.695 4.00108 166.39 0 172.071C3.11043 165.857 6.24327 159.657 9.39823 153.47C29.3578 114.329 50.2084 75.72 71.9503 37.6443C74.0105 34.0724 78.0452 31.7342 82.2023 31.7359C88.1758 31.575 93.7541 36.5151 94.2943 42.529C96.0177 57.0229 97.6266 71.5287 99.121 86.0461C100.295 97.452 101.398 108.865 102.431 120.286C123.077 85.5552 144.49 51.2567 166.672 17.3908C170.477 11.5811 174.305 5.78421 178.155 0ZM96.9669 129.518C96.9093 129.605 96.8559 129.696 96.8072 129.789C96.8604 129.698 96.9137 129.608 96.9669 129.518ZM84.1947 45.3169C84.2535 45.2349 84.3075 45.1497 84.3552 45.0609C84.3018 45.1463 84.2481 45.2315 84.1947 45.3169Z" fill="#F6C014"/>
<path d="M25.1875 135.066V42.3096H36.2629V135.066H25.1875Z" fill="#34495E"/>
<path d="M136.91 40.6113C141.342 40.6113 145.611 41.6187 149.716 43.6332C153.599 45.5203 156.87 47.9963 159.529 51.0617L152.543 58.231C151.812 57.5191 151.055 56.8499 150.27 56.2239C148.218 54.5451 146.063 53.244 143.805 52.3206C141.589 51.3973 139.372 50.9357 137.156 50.9357C133.339 50.9357 130.26 52.2369 127.921 54.839C125.622 57.4411 124.473 60.6308 124.473 64.408C124.473 68.8567 125.93 72.445 128.844 75.1729C131.799 77.859 135.76 80.1883 140.727 82.1609C144.667 83.7137 148.32 85.6234 151.686 87.8896C155.093 90.156 157.822 93.0101 159.875 96.4516C161.968 99.8511 163.015 104.069 163.015 109.105C163.015 114.351 161.865 118.947 159.567 122.892C157.309 126.837 154.272 129.922 150.455 132.146C146.678 134.329 142.492 135.42 137.895 135.42C134.406 135.42 131.019 134.811 127.736 133.594C124.452 132.377 121.435 130.761 118.685 128.747C116.027 126.799 113.79 124.695 111.976 122.434L119.415 114.799C120.28 115.822 121.207 116.82 122.195 117.793C124.452 119.933 126.874 121.696 129.46 123.081C132.046 124.424 134.693 125.096 137.402 125.096C140.07 125.096 142.512 124.403 144.729 123.018C146.986 121.633 148.792 119.723 150.147 117.289C151.501 114.855 152.179 112.085 152.179 108.979C152.179 106 151.501 103.439 150.147 101.299C148.833 99.1166 146.925 97.228 144.421 95.6332C141.917 93.9964 138.921 92.4853 135.432 91.1003C130.958 89.2957 127.079 87.1133 123.795 84.5532C120.553 81.9931 118.049 79.0343 116.284 75.6768C114.519 72.2773 113.637 68.4371 113.637 64.1562C113.637 59.5396 114.622 55.4685 116.592 51.9431C118.603 48.3757 121.353 45.6058 124.842 43.6332C128.372 41.6187 132.395 40.6113 136.91 40.6113Z" fill="#34495E"/>
<path d="M204.628 59.3555V35.4336H209.7V59.3555H204.628Z" fill="#34495E"/>
<path d="M225.719 40.7187C227.672 40.7187 229.243 41.2532 230.432 42.3222C231.621 43.3803 232.215 45.082 232.215 47.4273V59.3555H227.224V48.6708C227.224 47.3618 226.985 46.3746 226.505 45.7092C226.035 45.0438 225.294 44.7111 224.279 44.7111C222.752 44.7111 221.71 45.2293 221.154 46.2655C220.598 47.3018 220.32 48.7963 220.32 50.7489V59.3555H215.329V41.0623H219.141L219.812 43.4021H220.09C220.483 42.7694 220.969 42.2567 221.547 41.864C222.136 41.4713 222.785 41.1823 223.494 40.9968C224.214 40.8114 224.956 40.7187 225.719 40.7187Z" fill="#34495E"/>
<path d="M250.116 53.9232C250.116 55.1667 249.821 56.2194 249.232 57.0812C248.654 57.932 247.787 58.581 246.63 59.0283C245.474 59.4646 244.034 59.6828 242.311 59.6828C241.034 59.6828 239.938 59.601 239.022 59.4374C238.116 59.2737 237.2 59.001 236.273 58.6192V54.4959C237.266 54.9431 238.329 55.314 239.464 55.6085C240.609 55.8921 241.613 56.034 242.474 56.034C243.445 56.034 244.138 55.8921 244.552 55.6085C244.978 55.314 245.191 54.9322 245.191 54.4632C245.191 54.1577 245.103 53.885 244.929 53.645C244.765 53.3941 244.405 53.116 243.849 52.8105C243.292 52.4942 242.42 52.0851 241.231 51.5834C240.085 51.1034 239.142 50.618 238.4 50.1271C237.669 49.6362 237.124 49.0581 236.764 48.3927C236.415 47.7164 236.24 46.8601 236.24 45.8238C236.24 44.133 236.895 42.8622 238.204 42.0113C239.524 41.1495 241.285 40.7187 243.489 40.7187C244.623 40.7187 245.703 40.8332 246.729 41.0623C247.765 41.2914 248.828 41.6568 249.919 42.1586L248.414 45.7583C247.509 45.3656 246.652 45.0438 245.845 44.7929C245.049 44.542 244.236 44.4166 243.407 44.4166C242.676 44.4166 242.125 44.5148 241.754 44.7111C241.383 44.9075 241.198 45.2074 241.198 45.611C241.198 45.9056 241.291 46.1674 241.476 46.3964C241.673 46.6255 242.043 46.8819 242.589 47.1655C243.145 47.4382 243.958 47.7927 245.027 48.229C246.063 48.6545 246.963 49.1017 247.727 49.5708C248.49 50.0289 249.079 50.6016 249.494 51.2888C249.908 51.9651 250.116 52.8433 250.116 53.9232Z" fill="#34495E"/>
<path d="M261.717 55.7067C262.262 55.7067 262.791 55.6522 263.304 55.5431C263.827 55.434 264.346 55.2976 264.858 55.134V58.8483C264.324 59.0883 263.658 59.2846 262.862 59.4374C262.077 59.601 261.215 59.6828 260.277 59.6828C259.186 59.6828 258.204 59.5083 257.331 59.1592C256.47 58.7992 255.788 58.1829 255.286 57.3102C254.795 56.4267 254.55 55.1995 254.55 53.6287V44.8093H252.161V42.6985L254.91 41.0296L256.35 37.168H259.54V41.0623H264.662V44.8093H259.54V53.6287C259.54 54.3268 259.737 54.8504 260.129 55.1995C260.533 55.5376 261.062 55.7067 261.717 55.7067Z" fill="#34495E"/>
<path d="M273.563 41.0623V59.3555H268.573V41.0623H273.563ZM271.076 33.8955C271.818 33.8955 272.456 34.07 272.99 34.4191C273.525 34.7573 273.792 35.3954 273.792 36.3335C273.792 37.2607 273.525 37.9043 272.99 38.2643C272.456 38.6134 271.818 38.7879 271.076 38.7879C270.323 38.7879 269.68 38.6134 269.145 38.2643C268.622 37.9043 268.36 37.2607 268.36 36.3335C268.36 35.3954 268.622 34.7573 269.145 34.4191C269.68 34.07 270.323 33.8955 271.076 33.8955Z" fill="#34495E"/>
<path d="M286.522 55.7067C287.068 55.7067 287.597 55.6522 288.109 55.5431C288.633 55.434 289.151 55.2976 289.664 55.134V58.8483C289.129 59.0883 288.464 59.2846 287.668 59.4374C286.882 59.601 286.02 59.6828 285.082 59.6828C283.991 59.6828 283.01 59.5083 282.137 59.1592C281.275 58.7992 280.593 58.1829 280.092 57.3102C279.601 56.4267 279.355 55.1995 279.355 53.6287V44.8093H276.966V42.6985L279.715 41.0296L281.155 37.168H284.346V41.0623H289.467V44.8093H284.346V53.6287C284.346 54.3268 284.542 54.8504 284.935 55.1995C285.339 55.5376 285.868 55.7067 286.522 55.7067Z" fill="#34495E"/>
<path d="M310.166 41.0623V59.3555H306.337L305.666 57.0157H305.404C305.012 57.6375 304.521 58.1447 303.932 58.5374C303.343 58.9301 302.694 59.2192 301.985 59.4046C301.276 59.5901 300.539 59.6828 299.776 59.6828C298.467 59.6828 297.327 59.4537 296.356 58.9956C295.385 58.5265 294.627 57.8011 294.082 56.8194C293.547 55.8376 293.28 54.5613 293.28 52.9905V41.0623H298.27V51.747C298.27 53.056 298.505 54.0432 298.974 54.7086C299.443 55.374 300.19 55.7067 301.216 55.7067C302.23 55.7067 303.026 55.4776 303.605 55.0195C304.183 54.5504 304.586 53.8687 304.815 52.9742C305.055 52.0688 305.175 50.967 305.175 49.6689V41.0623H310.166Z" fill="#34495E"/>
<path d="M323.109 55.7067C323.654 55.7067 324.183 55.6522 324.696 55.5431C325.219 55.434 325.738 55.2976 326.25 55.134V58.8483C325.716 59.0883 325.05 59.2846 324.254 59.4374C323.469 59.601 322.607 59.6828 321.669 59.6828C320.578 59.6828 319.596 59.5083 318.724 59.1592C317.862 58.7992 317.18 58.1829 316.678 57.3102C316.187 56.4267 315.942 55.1995 315.942 53.6287V44.8093H313.553V42.6985L316.302 41.0296L317.742 37.168H320.932V41.0623H326.054V44.8093H320.932V53.6287C320.932 54.3268 321.129 54.8504 321.522 55.1995C321.925 55.5376 322.454 55.7067 323.109 55.7067Z" fill="#34495E"/>
<path d="M346.752 41.0623V59.3555H342.924L342.253 57.0157H341.991C341.598 57.6375 341.107 58.1447 340.518 58.5374C339.929 58.9301 339.28 59.2192 338.571 59.4046C337.862 59.5901 337.126 59.6828 336.362 59.6828C335.053 59.6828 333.913 59.4537 332.943 58.9956C331.972 58.5265 331.214 57.8011 330.668 56.8194C330.134 55.8376 329.866 54.5613 329.866 52.9905V41.0623H334.857V51.747C334.857 53.056 335.091 54.0432 335.561 54.7086C336.03 55.374 336.777 55.7067 337.802 55.7067C338.817 55.7067 339.613 55.4776 340.191 55.0195C340.769 54.5504 341.173 53.8687 341.402 52.9742C341.642 52.0688 341.762 50.967 341.762 49.6689V41.0623H346.752Z" fill="#34495E"/>
<path d="M356.979 59.3555H351.988V33.8955H356.979V59.3555Z" fill="#34495E"/>
<path d="M225.85 98.6019H219.403L208.997 80.505H208.849C208.893 81.2577 208.931 82.0158 208.964 82.7794C208.997 83.543 209.029 84.3066 209.062 85.0701C209.095 85.8228 209.128 86.5809 209.16 87.3445V98.6019H204.628V74.68H211.026L221.416 92.5969H221.53C221.509 91.8551 221.481 91.1188 221.449 90.3879C221.416 89.6571 221.383 88.9262 221.35 88.1954C221.329 87.4645 221.307 86.7337 221.285 86.0028V74.68H225.85V98.6019Z" fill="#34495E"/>
<path d="M238.989 79.9323C241.443 79.9323 243.325 80.4668 244.634 81.5358C245.943 82.6049 246.598 84.2302 246.598 86.4119V98.6019H243.112L242.147 96.1148H242.016C241.493 96.7693 240.958 97.3038 240.413 97.7183C239.867 98.1329 239.24 98.4383 238.531 98.6346C237.822 98.831 236.96 98.9292 235.946 98.9292C234.866 98.9292 233.895 98.7219 233.033 98.3074C232.182 97.8929 231.511 97.2602 231.021 96.4093C230.53 95.5476 230.284 94.4568 230.284 93.1368C230.284 91.1952 230.966 89.7662 232.33 88.8499C233.693 87.9227 235.738 87.41 238.466 87.3118L241.64 87.2136V86.4119C241.64 85.4519 241.389 84.7483 240.887 84.3011C240.385 83.8539 239.687 83.6302 238.793 83.6302C237.909 83.6302 237.042 83.7557 236.191 84.0066C235.34 84.2575 234.489 84.5738 233.639 84.9556L231.986 81.5849C232.957 81.0722 234.042 80.6686 235.242 80.3741C236.453 80.0796 237.702 79.9323 238.989 79.9323ZM241.64 90.1261L239.709 90.1916C238.095 90.2352 236.971 90.5243 236.338 91.0588C235.717 91.5933 235.406 92.2969 235.406 93.1696C235.406 93.9332 235.629 94.4786 236.077 94.8058C236.524 95.1222 237.107 95.2803 237.827 95.2803C238.896 95.2803 239.796 94.964 240.527 94.3313C241.269 93.6986 241.64 92.7987 241.64 91.6315V90.1261Z" fill="#34495E"/>
<path d="M259.459 94.9531C260.004 94.9531 260.533 94.8985 261.046 94.7895C261.569 94.6804 262.087 94.544 262.6 94.3804V98.0947C262.066 98.3347 261.4 98.531 260.604 98.6837C259.819 98.8474 258.957 98.9292 258.019 98.9292C256.928 98.9292 255.946 98.7546 255.073 98.4056C254.212 98.0456 253.53 97.4293 253.028 96.5566C252.537 95.673 252.292 94.4458 252.292 92.875V84.0557H249.903V81.9449L252.652 80.2759L254.092 76.4144H257.282V80.3087H262.404V84.0557H257.282V92.875C257.282 93.5732 257.479 94.0968 257.871 94.4458C258.275 94.784 258.804 94.9531 259.459 94.9531ZM260.015 100.647V100.974C259.797 101.465 259.546 101.983 259.262 102.529C258.99 103.085 258.69 103.652 258.362 104.231C258.035 104.82 257.681 105.414 257.299 106.014H254.386V105.572C254.517 105.136 254.648 104.623 254.779 104.034C254.91 103.456 255.03 102.867 255.139 102.267C255.259 101.667 255.346 101.127 255.401 100.647H260.015Z" fill="#34495E"/>
<path d="M271.305 80.3087V98.6019H266.314V80.3087H271.305ZM268.818 73.1419C269.56 73.1419 270.198 73.3164 270.732 73.6655C271.267 74.0036 271.534 74.6418 271.534 75.5799C271.534 76.5071 271.267 77.1507 270.732 77.5107C270.198 77.8597 269.56 78.0343 268.818 78.0343C268.065 78.0343 267.422 77.8597 266.887 77.5107C266.364 77.1507 266.102 76.5071 266.102 75.5799C266.102 74.6418 266.364 74.0036 266.887 73.6655C267.422 73.3164 268.065 73.1419 268.818 73.1419Z" fill="#34495E"/>
<path d="M293.182 89.4226C293.182 90.9497 292.974 92.3024 292.56 93.4805C292.156 94.6586 291.562 95.6567 290.776 96.4748C290.002 97.282 289.064 97.8929 287.962 98.3074C286.871 98.7219 285.639 98.9292 284.264 98.9292C282.977 98.9292 281.793 98.7219 280.713 98.3074C279.644 97.8929 278.712 97.282 277.915 96.4748C277.13 95.6567 276.519 94.6586 276.083 93.4805C275.657 92.3024 275.445 90.9497 275.445 89.4226C275.445 87.3936 275.805 85.6756 276.525 84.2684C277.245 82.8612 278.27 81.7922 279.601 81.0613C280.932 80.3305 282.519 79.965 284.362 79.965C286.075 79.965 287.591 80.3305 288.911 81.0613C290.242 81.7922 291.284 82.8612 292.036 84.2684C292.8 85.6756 293.182 87.3936 293.182 89.4226ZM280.533 89.4226C280.533 90.6225 280.664 91.6315 280.926 92.4496C281.188 93.2677 281.597 93.8841 282.153 94.2986C282.71 94.7131 283.435 94.9204 284.33 94.9204C285.213 94.9204 285.928 94.7131 286.473 94.2986C287.029 93.8841 287.433 93.2677 287.684 92.4496C287.946 91.6315 288.077 90.6225 288.077 89.4226C288.077 88.2117 287.946 87.2082 287.684 86.4119C287.433 85.6047 287.029 84.9992 286.473 84.5956C285.917 84.192 285.191 83.9902 284.297 83.9902C282.977 83.9902 282.017 84.4429 281.417 85.3483C280.828 86.2537 280.533 87.6118 280.533 89.4226Z" fill="#34495E"/>
<path d="M307.695 79.965C309.648 79.965 311.219 80.4996 312.408 81.5686C313.597 82.6267 314.191 84.3284 314.191 86.6737V98.6019H309.201V87.9172C309.201 86.6082 308.961 85.621 308.481 84.9556C308.012 84.2902 307.27 83.9575 306.255 83.9575C304.728 83.9575 303.686 84.4756 303.13 85.5119C302.574 86.5482 302.296 88.0427 302.296 89.9952V98.6019H297.305V80.3087H301.117L301.788 82.6485H302.067C302.459 82.0158 302.945 81.5031 303.523 81.1104C304.112 80.7177 304.761 80.4286 305.47 80.2432C306.19 80.0578 306.932 79.965 307.695 79.965Z" fill="#34495E"/>
<path d="M326.823 79.9323C329.277 79.9323 331.159 80.4668 332.468 81.5358C333.777 82.6049 334.432 84.2302 334.432 86.4119V98.6019H330.946L329.981 96.1148H329.85C329.326 96.7693 328.792 97.3038 328.246 97.7183C327.701 98.1329 327.074 98.4383 326.365 98.6346C325.656 98.831 324.794 98.9292 323.78 98.9292C322.7 98.9292 321.729 98.7219 320.867 98.3074C320.016 97.8929 319.345 97.2602 318.854 96.4093C318.364 95.5476 318.118 94.4568 318.118 93.1368C318.118 91.1952 318.8 89.7662 320.163 88.8499C321.527 87.9227 323.572 87.41 326.299 87.3118L329.474 87.2136V86.4119C329.474 85.4519 329.223 84.7483 328.721 84.3011C328.219 83.8539 327.521 83.6302 326.627 83.6302C325.743 83.6302 324.876 83.7557 324.025 84.0066C323.174 84.2575 322.323 84.5738 321.472 84.9556L319.82 81.5849C320.791 81.0722 321.876 80.6686 323.076 80.3741C324.287 80.0796 325.536 79.9323 326.823 79.9323ZM329.474 90.1261L327.543 90.1916C325.928 90.2352 324.805 90.5243 324.172 91.0588C323.55 91.5933 323.24 92.2969 323.24 93.1696C323.24 93.9332 323.463 94.4786 323.91 94.8058C324.358 95.1222 324.941 95.2803 325.661 95.2803C326.73 95.2803 327.63 94.964 328.361 94.3313C329.103 93.6986 329.474 92.7987 329.474 91.6315V90.1261Z" fill="#34495E"/>
<path d="M344.576 98.6019H339.586V73.1419H344.576V98.6019Z" fill="#34495E"/>
<path d="M364.326 98.9292C362.286 98.9292 360.622 98.1329 359.335 96.5402C358.059 94.9367 357.421 92.586 357.421 89.488C357.421 86.3573 358.07 83.9902 359.368 82.3867C360.666 80.7723 362.362 79.965 364.457 79.965C365.329 79.965 366.098 80.085 366.764 80.325C367.429 80.565 368.002 80.8868 368.482 81.2904C368.973 81.694 369.387 82.1467 369.725 82.6485H369.889C369.824 82.2994 369.742 81.7867 369.644 81.1104C369.556 80.4232 369.513 79.7196 369.513 78.9997V73.1419H374.52V98.6019H370.691L369.725 96.2294H369.513C369.196 96.7311 368.798 97.1893 368.318 97.6038C367.849 98.0074 367.287 98.3292 366.633 98.5692C365.978 98.8092 365.209 98.9292 364.326 98.9292ZM366.077 94.9531C367.44 94.9531 368.4 94.5495 368.956 93.7423C369.524 92.9241 369.824 91.6969 369.856 90.0607V89.5207C369.856 87.7427 369.584 86.3846 369.038 85.4465C368.493 84.4975 367.478 84.0229 365.995 84.0229C364.893 84.0229 364.031 84.4975 363.409 85.4465C362.788 86.3955 362.477 87.7645 362.477 89.5535C362.477 91.3424 362.788 92.6896 363.409 93.595C364.042 94.5004 364.931 94.9531 366.077 94.9531Z" fill="#34495E"/>
<path d="M387.282 79.965C388.973 79.965 390.429 80.2923 391.651 80.9468C392.873 81.5904 393.816 82.5285 394.482 83.7611C395.147 84.9938 395.48 86.4991 395.48 88.2772V90.6988H383.683C383.737 92.106 384.157 93.2132 384.943 94.0204C385.739 94.8167 386.841 95.2149 388.248 95.2149C389.415 95.2149 390.484 95.0949 391.455 94.8549C392.426 94.6149 393.424 94.255 394.449 93.775V97.6365C393.544 98.0838 392.595 98.411 391.602 98.6183C390.62 98.8255 389.426 98.9292 388.019 98.9292C386.186 98.9292 384.561 98.591 383.143 97.9147C381.735 97.2384 380.628 96.2075 379.821 94.8222C379.025 93.4368 378.627 91.6915 378.627 89.5862C378.627 87.4482 378.987 85.6701 379.707 84.252C380.437 82.823 381.452 81.754 382.75 81.045C384.048 80.325 385.559 79.965 387.282 79.965ZM387.315 83.5157C386.344 83.5157 385.537 83.8266 384.893 84.4484C384.261 85.0701 383.895 86.0464 383.797 87.3773H390.8C390.789 86.6355 390.653 85.9755 390.391 85.3974C390.14 84.8192 389.759 84.3611 389.246 84.0229C388.744 83.6848 388.1 83.5157 387.315 83.5157Z" fill="#34495E"/>
<path d="M218.749 131.205C218.749 132.623 218.405 133.856 217.718 134.903C217.031 135.95 216.027 136.757 214.707 137.325C213.398 137.892 211.806 138.176 209.929 138.176C209.1 138.176 208.288 138.121 207.491 138.012C206.706 137.903 205.948 137.745 205.217 137.537C204.497 137.319 203.81 137.052 203.155 136.736V132.023C204.29 132.525 205.468 132.978 206.69 133.381C207.911 133.785 209.122 133.987 210.322 133.987C211.151 133.987 211.816 133.878 212.318 133.659C212.831 133.441 213.202 133.141 213.431 132.76C213.66 132.378 213.775 131.941 213.775 131.451C213.775 130.851 213.573 130.338 213.169 129.912C212.766 129.487 212.209 129.089 211.5 128.718C210.802 128.347 210.011 127.949 209.128 127.524C208.571 127.262 207.966 126.945 207.311 126.575C206.657 126.193 206.035 125.729 205.446 125.184C204.857 124.638 204.372 123.978 203.99 123.204C203.619 122.418 203.433 121.48 203.433 120.39C203.433 118.961 203.761 117.739 204.415 116.724C205.07 115.71 206.002 114.935 207.213 114.401C208.435 113.855 209.875 113.583 211.533 113.583C212.776 113.583 213.96 113.73 215.084 114.025C216.218 114.308 217.402 114.723 218.634 115.268L216.998 119.211C215.896 118.764 214.909 118.421 214.036 118.181C213.164 117.93 212.275 117.804 211.369 117.804C210.737 117.804 210.197 117.908 209.749 118.115C209.302 118.311 208.964 118.595 208.735 118.966C208.506 119.326 208.391 119.746 208.391 120.226C208.391 120.793 208.555 121.273 208.882 121.666C209.22 122.048 209.722 122.418 210.387 122.778C211.064 123.138 211.904 123.558 212.907 124.038C214.129 124.616 215.171 125.222 216.033 125.855C216.905 126.476 217.576 127.213 218.045 128.064C218.514 128.903 218.749 129.951 218.749 131.205Z" fill="#34495E"/>
<path d="M230.399 134.199C230.944 134.199 231.473 134.145 231.986 134.036C232.51 133.927 233.028 133.79 233.54 133.627V137.341C233.006 137.581 232.34 137.777 231.544 137.93C230.759 138.094 229.897 138.176 228.959 138.176C227.868 138.176 226.886 138.001 226.014 137.652C225.152 137.292 224.47 136.676 223.968 135.803C223.477 134.919 223.232 133.692 223.232 132.121V123.302H220.843V121.191L223.592 119.522L225.032 115.661H228.223V119.555H233.344V123.302H228.223V132.121C228.223 132.82 228.419 133.343 228.812 133.692C229.215 134.03 229.744 134.199 230.399 134.199Z" fill="#34495E"/>
<path d="M244.749 119.179C247.203 119.179 249.085 119.713 250.394 120.782C251.703 121.851 252.357 123.477 252.357 125.658V137.848H248.872L247.907 135.361H247.776C247.252 136.016 246.718 136.55 246.172 136.965C245.627 137.379 245 137.685 244.291 137.881C243.582 138.077 242.72 138.176 241.705 138.176C240.625 138.176 239.655 137.968 238.793 137.554C237.942 137.139 237.271 136.507 236.78 135.656C236.289 134.794 236.044 133.703 236.044 132.383C236.044 130.442 236.726 129.013 238.089 128.096C239.453 127.169 241.498 126.656 244.225 126.558L247.399 126.46V125.658C247.399 124.698 247.149 123.995 246.647 123.547C246.145 123.1 245.447 122.877 244.552 122.877C243.669 122.877 242.802 123.002 241.951 123.253C241.1 123.504 240.249 123.82 239.398 124.202L237.746 120.831C238.716 120.319 239.802 119.915 241.002 119.62C242.213 119.326 243.462 119.179 244.749 119.179ZM247.399 129.373L245.469 129.438C243.854 129.482 242.731 129.771 242.098 130.305C241.476 130.84 241.165 131.543 241.165 132.416C241.165 133.18 241.389 133.725 241.836 134.052C242.283 134.369 242.867 134.527 243.587 134.527C244.656 134.527 245.556 134.21 246.287 133.578C247.029 132.945 247.399 132.045 247.399 130.878V129.373Z" fill="#34495E"/>
<path d="M265.218 134.199C265.764 134.199 266.293 134.145 266.805 134.036C267.329 133.927 267.847 133.79 268.36 133.627V137.341C267.825 137.581 267.16 137.777 266.364 137.93C265.578 138.094 264.716 138.176 263.778 138.176C262.687 138.176 261.706 138.001 260.833 137.652C259.971 137.292 259.29 136.676 258.788 135.803C258.297 134.919 258.051 133.692 258.051 132.121V123.302H255.662V121.191L258.411 119.522L259.851 115.661H263.042V119.555H268.163V123.302H263.042V132.121C263.042 132.82 263.238 133.343 263.631 133.692C264.035 134.03 264.564 134.199 265.218 134.199Z" fill="#34495E"/>
<path d="M277.065 119.555V137.848H272.074V119.555H277.065ZM274.578 112.388C275.319 112.388 275.957 112.563 276.492 112.912C277.026 113.25 277.294 113.888 277.294 114.826C277.294 115.753 277.026 116.397 276.492 116.757C275.957 117.106 275.319 117.281 274.578 117.281C273.825 117.281 273.181 117.106 272.647 116.757C272.123 116.397 271.861 115.753 271.861 114.826C271.861 113.888 272.123 113.25 272.647 112.912C273.181 112.563 273.825 112.388 274.578 112.388Z" fill="#34495E"/>
<path d="M295.08 132.416C295.08 133.659 294.785 134.712 294.196 135.574C293.618 136.425 292.751 137.074 291.595 137.521C290.438 137.957 288.998 138.176 287.275 138.176C285.999 138.176 284.902 138.094 283.986 137.93C283.081 137.766 282.164 137.494 281.237 137.112V132.989C282.23 133.436 283.293 133.807 284.428 134.101C285.573 134.385 286.577 134.527 287.438 134.527C288.409 134.527 289.102 134.385 289.516 134.101C289.942 133.807 290.155 133.425 290.155 132.956C290.155 132.65 290.067 132.378 289.893 132.138C289.729 131.887 289.369 131.609 288.813 131.303C288.257 130.987 287.384 130.578 286.195 130.076C285.05 129.596 284.106 129.111 283.364 128.62C282.633 128.129 282.088 127.551 281.728 126.885C281.379 126.209 281.204 125.353 281.204 124.317C281.204 122.626 281.859 121.355 283.168 120.504C284.488 119.642 286.249 119.211 288.453 119.211C289.587 119.211 290.667 119.326 291.693 119.555C292.729 119.784 293.793 120.15 294.883 120.651L293.378 124.251C292.473 123.858 291.616 123.537 290.809 123.286C290.013 123.035 289.2 122.909 288.371 122.909C287.64 122.909 287.089 123.008 286.718 123.204C286.348 123.4 286.162 123.7 286.162 124.104C286.162 124.398 286.255 124.66 286.44 124.889C286.637 125.118 287.008 125.375 287.553 125.658C288.109 125.931 288.922 126.285 289.991 126.722C291.027 127.147 291.927 127.594 292.691 128.064C293.454 128.522 294.043 129.094 294.458 129.782C294.872 130.458 295.08 131.336 295.08 132.416Z" fill="#34495E"/>
<path d="M306.681 134.199C307.226 134.199 307.755 134.145 308.268 134.036C308.791 133.927 309.31 133.79 309.822 133.627V137.341C309.288 137.581 308.622 137.777 307.826 137.93C307.041 138.094 306.179 138.176 305.241 138.176C304.15 138.176 303.168 138.001 302.296 137.652C301.434 137.292 300.752 136.676 300.25 135.803C299.759 134.919 299.514 133.692 299.514 132.121V123.302H297.125V121.191L299.874 119.522L301.314 115.661H304.505V119.555H309.626V123.302H304.505V132.121C304.505 132.82 304.701 133.343 305.094 133.692C305.497 134.03 306.026 134.199 306.681 134.199Z" fill="#34495E"/>
<path d="M318.527 119.555V137.848H313.537V119.555H318.527ZM316.04 112.388C316.782 112.388 317.42 112.563 317.954 112.912C318.489 113.25 318.756 113.888 318.756 114.826C318.756 115.753 318.489 116.397 317.954 116.757C317.42 117.106 316.782 117.281 316.04 117.281C315.287 117.281 314.644 117.106 314.109 116.757C313.586 116.397 313.324 115.753 313.324 114.826C313.324 113.888 313.586 113.25 314.109 112.912C314.644 112.563 315.287 112.388 316.04 112.388Z" fill="#34495E"/>
<path d="M331.208 138.176C329.397 138.176 327.854 137.848 326.578 137.194C325.301 136.528 324.33 135.503 323.665 134.118C323 132.732 322.667 130.96 322.667 128.8C322.667 126.564 323.043 124.742 323.796 123.335C324.559 121.917 325.612 120.875 326.954 120.21C328.306 119.544 329.872 119.211 331.65 119.211C332.915 119.211 334.006 119.337 334.922 119.588C335.85 119.828 336.657 120.117 337.344 120.455L335.871 124.317C335.086 124 334.355 123.744 333.679 123.547C333.003 123.34 332.326 123.237 331.65 123.237C330.777 123.237 330.052 123.444 329.474 123.858C328.896 124.262 328.465 124.873 328.181 125.691C327.897 126.509 327.756 127.534 327.756 128.767C327.756 129.978 327.908 130.982 328.214 131.778C328.519 132.574 328.961 133.169 329.539 133.561C330.117 133.943 330.821 134.134 331.65 134.134C332.686 134.134 333.608 133.998 334.415 133.725C335.222 133.441 336.008 133.049 336.771 132.547V136.817C336.008 137.297 335.206 137.641 334.366 137.848C333.537 138.066 332.484 138.176 331.208 138.176Z" fill="#34495E"/>
<path d="M348.52 119.179C350.974 119.179 352.856 119.713 354.165 120.782C355.474 121.851 356.128 123.477 356.128 125.658V137.848H352.643L351.678 135.361H351.547C351.023 136.016 350.489 136.55 349.943 136.965C349.398 137.379 348.771 137.685 348.061 137.881C347.352 138.077 346.491 138.176 345.476 138.176C344.396 138.176 343.425 137.968 342.564 137.554C341.713 137.139 341.042 136.507 340.551 135.656C340.06 134.794 339.815 133.703 339.815 132.383C339.815 130.442 340.497 129.013 341.86 128.096C343.224 127.169 345.269 126.656 347.996 126.558L351.17 126.46V125.658C351.17 124.698 350.919 123.995 350.418 123.547C349.916 123.1 349.218 122.877 348.323 122.877C347.44 122.877 346.572 123.002 345.722 123.253C344.871 123.504 344.02 123.82 343.169 124.202L341.516 120.831C342.487 120.319 343.573 119.915 344.773 119.62C345.983 119.326 347.232 119.179 348.52 119.179ZM351.17 129.373L349.24 129.438C347.625 129.482 346.502 129.771 345.869 130.305C345.247 130.84 344.936 131.543 344.936 132.416C344.936 133.18 345.16 133.725 345.607 134.052C346.054 134.369 346.638 134.527 347.358 134.527C348.427 134.527 349.327 134.21 350.058 133.578C350.799 132.945 351.17 132.045 351.17 130.878V129.373ZM355.065 112.012C354.988 113.092 354.666 114.052 354.099 114.892C353.543 115.721 352.79 116.37 351.841 116.839C350.903 117.308 349.812 117.542 348.569 117.542C346.649 117.542 345.127 117.041 344.004 116.037C342.891 115.034 342.291 113.692 342.204 112.012H344.985C345.04 112.634 345.231 113.092 345.558 113.386C345.896 113.67 346.327 113.855 346.851 113.943C347.385 114.019 347.969 114.057 348.601 114.057C349.125 114.057 349.654 114.008 350.189 113.91C350.723 113.812 351.176 113.615 351.547 113.321C351.928 113.026 352.152 112.59 352.218 112.012H355.065Z" fill="#34495E"/>
</svg>
