<svg width="313" height="272" viewBox="0 0 313 272" fill="none" xmlns="http://www.w3.org/2000/svg">
<path d="M125.11 196.425H117.88L115.005 188.957H101.846L99.1292 196.425H92.0781L104.9 163.548H111.929L125.11 196.425ZM112.872 183.418L108.336 171.218L103.89 183.418H112.872Z" fill="black"/>
<path d="M128.726 196.425V163.548H135.193L148.666 185.503V163.548H154.842V196.425H148.172L134.901 174.985V196.425H128.726Z" fill="black"/>
<path d="M161.915 196.425V163.548H175.905C179.423 163.548 181.975 163.847 183.562 164.445C185.164 165.028 186.444 166.075 187.402 167.585C188.36 169.095 188.839 170.822 188.839 172.765C188.839 175.232 188.113 177.273 186.661 178.888C185.209 180.487 183.038 181.497 180.149 181.915C181.586 182.752 182.769 183.672 183.697 184.674C184.64 185.675 185.905 187.455 187.492 190.011L191.512 196.425H183.562L178.757 189.271C177.05 186.714 175.882 185.107 175.254 184.449C174.625 183.777 173.959 183.321 173.255 183.081C172.552 182.827 171.436 182.7 169.909 182.7H168.562V196.425H161.915ZM168.562 177.452H173.48C176.668 177.452 178.659 177.318 179.453 177.049C180.246 176.78 180.868 176.316 181.317 175.658C181.766 175 181.99 174.178 181.99 173.191C181.99 172.085 181.691 171.195 181.092 170.523C180.508 169.835 179.677 169.401 178.6 169.222C178.061 169.147 176.444 169.11 173.749 169.11H168.562V177.452Z" fill="black"/>
<path d="M195.127 196.425V163.548H219.536V169.11H201.774V176.398H218.301V181.938H201.774V190.886H220.165V196.425H195.127Z" fill="black"/>
<path d="M80.6724 136.453C73.1432 149.443 68.8321 164.535 68.8321 180.635C68.8321 229.063 108.215 268.371 156.488 268.789H4.19141L80.5954 136.453H80.6724Z" fill="#F3EC44"/>
<path d="M66.4117 180.636C66.4117 174.541 67.0139 168.586 68.161 162.827L8.3807 266.37H127.965C92.2645 254.194 66.4117 220.415 66.4117 180.636ZM71.2504 180.636C71.2504 227.723 109.55 265.964 156.508 266.37L156.487 271.208H0L79.1975 134.034H84.87L82.7644 137.667C75.4432 150.298 71.2504 164.973 71.2504 180.636Z" fill="black"/>
<path d="M232.293 136.453C239.823 149.443 244.134 164.535 244.134 180.635C244.134 229.063 204.76 268.371 156.486 268.789H308.774L232.37 136.453H232.293Z" fill="#E03544"/>
<path d="M246.554 180.636C246.554 174.541 245.952 168.586 244.805 162.827L304.585 266.37H185.008C220.707 254.194 246.554 220.415 246.554 180.636ZM241.715 180.636C241.715 227.724 203.423 265.964 156.466 266.37L156.487 271.208H312.966L233.768 134.034H228.096L230.201 137.667C237.523 150.298 241.715 164.973 241.715 180.636Z" fill="black"/>
<path d="M80.1484 137.242C87.6337 124.227 98.5481 112.947 112.491 104.897C154.431 80.683 207.974 94.8069 232.473 136.404L156.514 4.83984L80.1099 137.175L80.1484 137.242Z" fill="#374990"/>
<path d="M77.3151 137.174L80.1509 142.087L82.2442 138.447C89.5227 125.791 100.135 114.822 113.699 106.991C154.49 83.4403 206.563 97.179 230.386 137.631L234.566 135.193L156.512 0L77.3151 137.174ZM216.134 112.945C187.784 88.1955 145.722 82.9154 111.28 102.8C106.002 105.848 101.146 109.347 96.7325 113.219L156.513 9.67731L216.134 112.945Z" fill="black"/>
</svg>
