<svg width="305" height="264" viewBox="0 0 305 264" fill="none" xmlns="http://www.w3.org/2000/svg">
<path d="M120.919 191.585H113.688L110.814 184.117H97.6549L94.9378 191.585H87.8867L100.709 158.708H107.737L120.919 191.585ZM108.681 178.578L104.145 166.378L99.6984 178.578H108.681Z" fill="black"/>
<path d="M124.534 191.585V158.708H131.001L144.475 180.664V158.708H150.65V191.585H143.981L130.71 170.146V191.585H124.534Z" fill="black"/>
<path d="M157.724 191.585V158.708H171.714C175.232 158.708 177.784 159.007 179.371 159.605C180.973 160.188 182.253 161.235 183.211 162.745C184.169 164.255 184.648 165.982 184.648 167.925C184.648 170.392 183.922 172.433 182.47 174.048C181.018 175.648 178.847 176.657 175.958 177.075C177.395 177.913 178.577 178.832 179.506 179.834C180.449 180.836 181.714 182.615 183.301 185.171L187.32 191.585H179.371L174.565 184.431C172.859 181.875 171.691 180.267 171.062 179.61C170.434 178.937 169.767 178.481 169.064 178.242C168.36 177.987 167.245 177.86 165.718 177.86H164.371V191.585H157.724ZM164.371 172.612H169.288C172.477 172.612 174.468 172.478 175.261 172.209C176.055 171.94 176.676 171.476 177.125 170.818C177.574 170.161 177.799 169.338 177.799 168.351C177.799 167.245 177.5 166.355 176.901 165.683C176.317 164.995 175.486 164.561 174.408 164.382C173.869 164.307 172.252 164.27 169.558 164.27H164.371V172.612Z" fill="black"/>
<path d="M190.936 191.585V158.708H215.345V164.27H197.582V171.558H214.11V177.098H197.582V186.046H215.974V191.585H190.936Z" fill="black"/>
<path d="M76.481 131.613C68.9518 144.603 64.6407 159.695 64.6407 175.795C64.6407 224.223 104.023 263.531 152.297 263.949H0L76.404 131.613H76.481Z" fill="black"/>
<path d="M228.102 131.613C235.631 144.603 239.942 159.695 239.942 175.795C239.942 224.223 200.568 263.531 152.295 263.949H304.583L228.179 131.613H228.102Z" fill="black"/>
<path d="M75.957 132.402C83.4423 119.387 94.3567 108.107 108.3 100.057C150.239 75.8431 203.783 89.967 228.281 131.564L152.322 0L75.9185 132.336L75.957 132.402Z" fill="black"/>
</svg>
